/* XPM */
static char *Ymx1ZV9yaWdodC4_[] = {
/* columns rows colors chars-per-pixel */
"30 30 207 2 ",
"   c #020202",
".  c #0A0100",
"X  c #030A05",
"o  c #01040C",
"O  c #09020C",
"+  c #01090C",
"@  c #0C0C0D",
"#  c #0D0906",
"$  c #120101",
"%  c #180300",
"&  c #100C09",
"*  c #04120E",
"=  c #1A100E",
"-  c #000513",
";  c #010B14",
":  c #00041A",
">  c #0A0718",
",  c #010D1B",
"<  c #0D0C11",
"1  c #100611",
"2  c #021117",
"3  c #01111A",
"4  c #09131C",
"5  c #09181A",
"6  c #091113",
"7  c #141413",
"8  c #000A23",
"9  c #000622",
"0  c #011324",
"q  c #001229",
"w  c #001A2D",
"e  c #081924",
"r  c #131A22",
"t  c #001D32",
"y  c #08242F",
"u  c #032936",
"i  c #03253C",
"p  c #0C2B37",
"a  c #192C34",
"s  c #102B36",
"d  c #0D313F",
"f  c #183837",
"g  c #10303B",
"h  c #0B2D43",
"j  c #142F42",
"k  c #073345",
"l  c #0D3141",
"z  c #173747",
"x  c #1E3F50",
"c  c #2A3B45",
"v  c #203A51",
"b  c #0F4358",
"n  c #1C4255",
"m  c #26444F",
"M  c #264758",
"N  c #244C5C",
"B  c #274656",
"V  c #314F59",
"C  c #3C5559",
"Z  c #315760",
"A  c #3D5967",
"S  c #4B586B",
"D  c #476677",
"F  c #52727F",
"G  c #4A7283",
"H  c #48748A",
"J  c #527585",
"K  c #4C7C93",
"L  c #587E94",
"P  c #617785",
"I  c #5C8394",
"U  c #63869A",
"Y  c #7C939B",
"T  c #5E8BA8",
"R  c #6C9BAE",
"E  c #6391A9",
"W  c #7B99A6",
"Q  c #6A9DB6",
"!  c #759EB1",
"~  c #6FA2B7",
"^  c #7BA3B5",
"/  c #7DABBC",
"(  c #79A7BE",
")  c #7CB0BD",
"_  c #6CADCA",
"`  c #7EB3C2",
"'  c #7EB2CD",
"]  c #6DBCDE",
"[  c #6BB6D3",
"{  c #77BFD5",
"}  c #74BDDD",
"|  c #7CBEDB",
" . c #73B5D7",
".. c #59BEE8",
"X. c #6BBDE3",
"o. c #74BEE3",
"O. c #7BBFE1",
"+. c #6EC3DE",
"@. c #7CC4DC",
"#. c #77CCDF",
"$. c #7ECBDE",
"%. c #78C3DB",
"&. c #6DC4E4",
"*. c #6DCCE6",
"=. c #6DC3E9",
"-. c #6CCAEC",
";. c #65C4E2",
":. c #75C4E4",
">. c #7BC5E4",
",. c #73CCE4",
"<. c #7AC9E5",
"1. c #75C6EA",
"2. c #7BC5EB",
"3. c #74CAEB",
"4. c #7ACAEA",
"5. c #71D0EE",
"6. c #68CCF4",
"7. c #73CCF3",
"8. c #7CCBF1",
"9. c #6FD2F9",
"0. c #79D3F4",
"q. c #77D2F6",
"w. c #89A4AD",
"e. c #87AEBB",
"r. c #89ACBC",
"t. c #83B2BE",
"y. c #87AEC3",
"u. c #80B2C4",
"i. c #8BB5C5",
"p. c #82B3C9",
"a. c #8AB6CB",
"s. c #94BBC4",
"d. c #90BDCE",
"f. c #92B5C9",
"g. c #8BB6D3",
"h. c #84BFD3",
"j. c #8BBCD4",
"k. c #85BEDB",
"l. c #8ABFDC",
"z. c #95BBD5",
"x. c #A1BEC8",
"c. c #A7B5C1",
"v. c #88BEE2",
"b. c #83C1D3",
"n. c #8DC2D5",
"m. c #84C2DC",
"M. c #8CC4DB",
"N. c #84CCDC",
"B. c #8BCADA",
"V. c #95C2D4",
"C. c #91C3D8",
"Z. c #99C2DB",
"A. c #95CCDA",
"S. c #9CD2DE",
"D. c #A5C3CE",
"F. c #A1C6D6",
"G. c #A5C8D7",
"H. c #83C5E3",
"J. c #8AC5E2",
"K. c #83CBE4",
"L. c #8ACAE3",
"P. c #8CC6ED",
"I. c #82CAEA",
"U. c #8BCCE8",
"Y. c #83C7EA",
"T. c #94CCE4",
"R. c #99CEE4",
"E. c #97CBE5",
"W. c #8ED1EA",
"Q. c #9BD1E6",
"!. c #93D3EB",
"~. c #98D6EB",
"^. c #82CBF2",
"/. c #83D2F6",
"(. c #84D5FB",
"). c #9FD7F0",
"_. c #A1C6E0",
"`. c #A6D3E3",
"'. c #ACD3E3",
"]. c #A5D3EC",
"[. c #ABD0EB",
"{. c #AAD9EB",
"}. c #B0DAE6",
"|. c #A8D8F7",
" X c #B3DDF1",
".X c #B0D5F0",
"XX c #ACE3FD",
"oX c #ADEDFF",
"OX c #B0E0F7",
"+X c #BBE3F4",
"@X c #BCEBFF",
"#X c #B3E5FC",
"$X c #C5D7EF",
"%X c #D7DAEB",
"&X c #CBE5FC",
"*X c #C8F2FF",
"=X c #D3F3FE",
"-X c #D0FFFF",
";X c #DCFEFF",
":X c #D5E7FB",
">X c #E6FFFF",
",X c #E4FFFF",
"<X c #E2FEFF",
"1X c #EBFFFF",
"2X c #E3F5FF",
"3X c #F4FEFF",
"4X c #FAFCFF",
/* pixels */
"; o o   . % % . .     X X   X X   .       .   . . . . .   + ",
"o -     $ . . =   o + + o o o o *     6     X .   . . .     ",
"  o       .     o + 3 u N F F D m V y - - - o         .     ",
"X       < o o , g H p.T.T.T.T.T.XXg.p.R n , - o o           ",
"  #     2 - 0 I l.J.>.} :.^.I.o.o.4.>.| k.K i , o + o       ",
".   @ + - z R k. .Y.(.^.3.=.=.=.7.9.q.2.K.XX( h - - + +     ",
".   X ; u ~ oX%./.2.] X.8.(.q.-...6.-.=.I.J.M.`.M ; o +     ",
". 7   3 R ~.] 8.1.8.^.0.:.] &.7.9.6.-.:.@.m.n.d.y.g - ;     ",
"    + J ~.[ (.:.2.>.Y._ J.U.%.:.4.0.,.N.b.B.i.i.F.! - 3 o X ",
"  + w ( $.4.-.3.o.k.T.OX`.` A.%.4.+.%.N.n.`.}.G.y.G.x - 3 2 ",
"  ; V Q.+.0.;.4.m.#X;X,X,X<X{.@.{ K.b.S.;X,X,X,X&X+XU , ; o ",
"o o I ~.,.&.&.<.E.<X1X2XP F +XS.W.%.A.-X=X;Xx.F f.[.y.q - o ",
"o - ! L.,.;.5.>.@X1X3Xc.c j H |._ U.M.;X>X,XD w h _.z.t 2 o ",
"- - ! !.&.5.,.N.[.1X4X%XS v j.).^.v.l.<X=X2XW v L .Xg.j - o ",
"o 0 ! !.+.0.:.@.Z.:X4X4X3X2X|.^.o.^.m. X,X1X;X=X;X.Xg.z - o ",
"o e ^ m.,.*.4.| z.z.$X&X=X|.P.O.^.o.Y.h.]. X*X&Xl.g.z.i ; ; ",
"O - e.n.,.,.3.2.v.v.v.k.v.2.2.2.2.<.4.<.<.>.O.O.m.J.C.l o o ",
"O > e.B.#.,.7.2.Y.2.2.1.1.1.2.2.<.<.:.,.3.-.3.1.:.J.C.l o + ",
"O - r.B.,.*.3.1.8.Y.2.3.3.3.3.4.>.<.:.3.7.3.7.3.>.J.C.d + + ",
"- , u.N.#.-.3.1.2.2.3.*.-.,.3.4.4.:.4.3.3.7.3.4.<.J.M.d o o ",
"; 3 u.N.*.*.*.3.1.4.,.,.-.*.3.3.4.:.3.3.3.-.3.1.>.J.V.d - o ",
"- 5 ) N.#.*.3.4.2.<.,.,.,.,.2.2.,.<.2.3.3.3.1.>.>.M.C.d + o ",
"- , ) N.$.,.<.K.K.H.<.,.,.<.Y.H.<.2.<.4.4.4.2.<.m.M.V.g - + ",
"o , t.B.$.<.K.J.J.m.N.$.$.N.J.Y.H.H.>.4.K.I.Y.L.m.C.V.d + o ",
"o , e.p.B.J.p.Q ].' l.h.B.b.T g.L.m.J.| U.J.~ b.R.V.s.s o o ",
"o o W '.Z.H h 9 D [.d.V.) k q 9 E M.' R.M.b 8 k / F.x.a 2 o ",
"X r Y D.J q : 9 ; P G.r.Z - : 8 w ^  Xt.n , 0 ; y w.c.2   o ",
"    5 c - - : > - @ C f o , - - - 0 A z ; - ; o o a c   ; o ",
"# X   2 o 3 > O O @ X X + + O o 4 o o o 5 5 o + ; X   X @   ",
"      5 o o o O       *     1   o 6 o o     + o     7 O o   "
};
