/* XPM */
static char *Ymx1ZV9sZWZ0[] = {
/* columns rows colors chars-per-pixel */
"30 30 101 2 ",
"   c #000000",
".  c #050708",
"X  c #060909",
"o  c #090D0E",
"O  c #090F10",
"+  c #0C1315",
"@  c #0F1618",
"#  c #10171B",
"$  c #111A1E",
"%  c #141E22",
"&  c #162327",
"*  c #17242A",
"=  c #18262A",
"-  c #1D2D33",
";  c #1F3037",
":  c #213137",
">  c #22333A",
",  c #23383E",
"<  c #263C44",
"1  c #00377D",
"2  c #0A3D7C",
"3  c #2B434D",
"4  c #2E4650",
"5  c #34525E",
"6  c #365A67",
"7  c #3F6373",
"8  c #436877",
"9  c #446A7A",
"0  c #154785",
"q  c #245289",
"w  c #2A568E",
"e  c #3B6595",
"r  c #446E81",
"t  c #477081",
"y  c #4A7687",
"u  c #466C99",
"i  c #577CA5",
"p  c #597BA3",
"a  c #4F8194",
"s  c #53869B",
"d  c #578EA4",
"f  c #5F80A8",
"g  c #5C96AE",
"h  c #609EB6",
"j  c #7C97B5",
"k  c #64A2BD",
"l  c #66A6C1",
"z  c #68A7C2",
"x  c #69AAC5",
"c  c #6BADCA",
"v  c #6CB1CE",
"b  c #6FB6D3",
"n  c #71BAD5",
"m  c #73BEDC",
"M  c #75C0DF",
"N  c #76C3E2",
"B  c #76C8E7",
"V  c #77C7E9",
"C  c #79C7EA",
"Z  c #77C8E9",
"A  c #78C8EA",
"S  c #8AA2BD",
"D  c #8FABC5",
"F  c #ADBED1",
"G  c #AFC0CF",
"H  c #AFC7D8",
"J  c #88CDE7",
"K  c #86CDEB",
"L  c #88CDE8",
"P  c #8CD0E9",
"I  c #93D2EA",
"U  c #9CD5EB",
"Y  c #ABD3E5",
"T  c #A5DAED",
"R  c #ACDCEE",
"E  c #B2DEEE",
"W  c #ACDCF1",
"Q  c #BDE2EF",
"!  c #D6DEE6",
"~  c #D5E7EE",
"^  c #DDE5E9",
"/  c #C7E8F3",
"(  c #CEEBF5",
")  c #D4EDF3",
"_  c #DCEFF5",
"`  c #E9EFF3",
"'  c #E2F2F5",
"]  c #E5F3F6",
"[  c #E7F5F7",
"{  c #ECF0F2",
"}  c #EDF2F2",
"|  c #F1F8F6",
" . c #F1F9FA",
".. c #F3F9FB",
"X. c #F4F9F9",
"o. c #F7F9F9",
"O. c #F7FCFA",
"+. c #F8FAF8",
"@. c #FEFFFB",
"#. c #FCFEFC",
"$. c #FEFFFD",
/* pixels */
"                                                            ",
"                                                            ",
"                      % 3 6 9 r 7 5 > @                     ",
"                . < a b V A A A A B M k t -                 ",
"              * a M A B C C C C A A A B A m 9 @             ",
"            3 x A A A A Z Z Z C A A A A A A A k -           ",
"          3 b A A A A A A B C C A A A A A A A A z -         ",
"        - v Z Z A A A A A C A B Z A A A A A A A A g +       ",
"      o g A Z Z A Z A C Z Z C C C C C Z C Z A A C C 7       ",
"      3 N A U R T K V V C C B A L T W I C C A A B C c &     ",
"      a K /  .@.#.' U A C C A T [ #.#...Q A Z A A A A 5     ",
"    + l R S p F #.#._ K C C P H f j { #.O.T B A A A A a     ",
"    & n H 0 1 e } #. .P C Z U i 1 2 G #.#.Q A A A A A g .   ",
"    - m Y p q j +.@.[ J A A I D w u ! #.#.E B A A A A k o   ",
"    - m I ~ ^ +.#.o.Q B A A A Q ^ { #.O.) J C A A A A k o   ",
"    ; m A L Q ( / T A A A A A A T ( ) Q J A A A A A A k +   ",
"    > m A C C A A B A B A A A A B A C A A A A B A A A z +   ",
"    > m C A A A A A A A A A A A A A A N A A A A A A A x @   ",
"    > N A A A A A B A A A B A C A A A A A A N C A A A x +   ",
"    > M C A A A A A A A A A A N A B A A B A A C A A A x @   ",
"    : M C C B A A A A N A A A A A A A A A A B A A A A x @   ",
"    > M C C B A A A A A A A A A A B A A A A A A C C A v @   ",
"    : M K A C A A A A A A A A A A B B A A A A B C C A x @   ",
"    : M C A A A C A A A A A A A A A A A A C C C A A A l @   ",
"    - M A A m h n C A A C A c g b A C C A A k x A A A x +   ",
"    - m A l , X 3 b C A A d % X > c A C N 9 o # y M A k O   ",
"    $ c x -       4 n A g $       4 m N 9 o     X 8 N s .   ",
"      , =           : 5 #           < 4 o         X , =     ",
"                                                            ",
"                                                            "
};
