/* XPM */
static char *result[] = {
/* columns rows colors chars-per-pixel */
"30 30 105 2 ",
"   c black",
".  c #090802",
"X  c #201B08",
"o  c #372F0E",
"O  c #463B11",
"+  c #090702",
"@  c #28220A",
"#  c #74621D",
"$  c #B69A2E",
"%  c #DDBB37",
"&  c #EEC93C",
"*  c #F5CF3D",
"=  c #B69A2D",
"-  c #73611D",
";  c #1C1807",
":  c #847021",
">  c #DFBC38",
",  c #FDD63F",
"<  c #FFD840",
"1  c #FED73F",
"2  c #FCD53F",
"3  c #DEBC38",
"4  c #836F21",
"5  c #413710",
"6  c #C8A932",
"7  c #FED63F",
"8  c #FED740",
"9  c #C7A832",
"0  c #403610",
"q  c #4E4214",
"w  c #E0BE38",
"e  c #E0BD38",
"r  c #4D4113",
"t  c #FFD740",
"y  c #DFBD38",
"u  c #3F3510",
"i  c #C6A731",
"p  c #1B1707",
"a  c #836E21",
"s  c #816D20",
"d  c #27210A",
"f  c #DCBA37",
"g  c #252009",
"h  c #715F1C",
"j  c #FDD53F",
"k  c #6F5D1C",
"l  c #080702",
"z  c #B4982D",
"x  c #B2962C",
"c  c #070602",
"v  c #1E1908",
"b  c #DBB937",
"n  c #DAB836",
"m  c #1D1907",
"M  c #342C0D",
"N  c #EDC83B",
"B  c #423811",
"V  c #F3CE3D",
"C  c #483D12",
"Z  c #423810",
"A  c #483C12",
"S  c #332B0D",
"D  c #ECC83B",
"F  c #362E0E",
"G  c #D9B736",
"H  c #B1952C",
"J  c #AF942C",
"K  c #060502",
"L  c #6D5C1B",
"P  c #6B5A1B",
"I  c #241E09",
"U  c #D9B836",
"Y  c #221D09",
"T  c #7D6A1F",
"R  c #7B681F",
"E  c #181506",
"W  c #C2A430",
"Q  c #C0A230",
"!  c #171406",
"~  c #3A310F",
"^  c #39300E",
"/  c #473C12",
"(  c #3A310E",
")  c #C0A330",
"_  c #BFA230",
"`  c #38300E",
"'  c #D8B736",
"]  c #7A671E",
"[  c #171306",
"{  c #221C08",
"}  c #69591A",
"|  c #AD922B",
" . c #D6B536",
".. c #EBC63B",
"X. c #F3CD3D",
"o. c #EAC63B",
"O. c #AC922B",
"+. c #69581A",
"@. c #211C08",
"#. c #060501",
"$. c #1A1607",
"%. c #433911",
"&. c #322A0D",
"*. c #1A1606",
"=. c white",
/* pixels */
"                                                            ",
"                      . X o O O o X +                       ",
"                  @ # $ % & * * & % = - @                   ",
"              ; : > , < 1 , 2 2 , 1 < , 3 4 ;               ",
"            5 6 7 8 2 2 2 2 2 2 2 2 2 2 8 7 9 0             ",
"          q w < 2 2 2 2 2 2 2 2 2 2 2 2 2 2 < e r           ",
"        0 w t 2 2 2 2 2 2 2 2 2 2 2 2 2 2 2 2 t y u         ",
"      ; 9 < 2 2 2 2 2 2 2 2 2 2 2 2 2 2 2 2 2 2 < i p       ",
"      a 7 2 2 2 2 2 2 2 2 2 2 2 2 2 2 2 2 2 2 2 2 , s       ",
"    d % 8 2 2 2 2 2 2 2 2 2 2 2 2 2 2 2 2 2 2 2 2 8 f g     ",
"    h , 2 2 2 2 2 2 2 2 2 2 2 2 2 2 2 2 2 2 2 2 2 2 j k     ",
"  l z < 2 2 2 2 2 2 2 2 2 2 2 2 2 2 2 2 2 2 2 2 2 2 < x c   ",
"  v b 8 2 2 2 2 2 2 2 2 2 2 2 2 2 2 2 2 2 2 2 2 2 2 8 n m   ",
"  M N , 2 2 2 2 2 2 2 2 2 2 2 2 2 2 2 2 2 2 2 2 2 2 , N o   ",
"  B V j 2 2 2 2 2 2 2 2 2 2 2 2 2 2 2 2 2 2 2 2 2 2 2 * C   ",
"  Z V j 2 2 2 2 2 2 2 2 2 2 2 2 2 2 2 2 2 2 2 2 2 2 2 * A   ",
"  S D , 2 2 2 2 2 2 2 2 2 2 2 2 2 2 2 2 2 2 2 2 2 2 , N F   ",
"  m n 8 2 2 2 2 2 2 2 2 2 2 2 2 2 2 2 2 2 2 2 2 2 2 8 G ;   ",
"  c H < 2 2 2 2 2 2 2 2 2 2 2 2 2 2 2 2 2 2 2 2 2 2 < J K   ",
"    L 2 2 2 2 2 2 2 2 2 2 2 2 2 2 2 2 2 2 2 2 2 2 2 2 P     ",
"    I b 8 2 2 2 2 2 2 2 2 2 2 2 2 2 2 2 2 2 2 2 2 8 U Y     ",
"      T , 2 2 2 2 2 2 2 2 2 2 2 2 2 2 2 2 2 2 2 2 , R       ",
"      E W < 2 2 2 2 2 2 2 2 2 2 2 2 2 2 2 2 2 2 < Q !       ",
"        ~ f < 2 2 2 2 2 2 2 2 2 2 2 2 2 2 2 2 < b ^         ",
"          A f < 2 2 2 2 2 2 2 2 2 2 2 2 2 2 < b /           ",
"            ( ) , 8 2 2 2 2 2 2 2 2 2 2 8 2 _ `             ",
"              ! R ' 2 < 8 , , , , 8 < 2 ' ] [               ",
"                  { } |  ...X.X.o. .O.+.@.                  ",
"                      #.$.S %.%.&.*.#.                      ",
"                                                            "
};
