/* XPM */
static char *result[] = {
/* columns rows colors chars-per-pixel */
"30 30 153 2 ",
"   c #000000",
".  c #090706",
"X  c #0E0804",
"o  c #0D0B0B",
"O  c #160400",
"+  c #180500",
"@  c #130A03",
"#  c #1C0A05",
"$  c #120F0E",
"%  c #190F08",
"&  c #13100F",
"*  c #141212",
"=  c #181514",
"-  c #250E06",
";  c #2A0F06",
":  c #2B1005",
">  c #25120C",
",  c #2B1108",
"<  c #341D0C",
"1  c #221614",
"2  c #251917",
"3  c #2E1B15",
"4  c #231E1D",
"5  c #28201C",
"6  c #36221D",
"7  c #39251F",
"8  c #37281E",
"9  c #1E1F21",
"0  c #372621",
"q  c #392620",
"w  c #372C26",
"e  c #372F2B",
"r  c #3D2F2C",
"t  c #39322E",
"y  c #363435",
"u  c #383537",
"i  c #3D3D3F",
"p  c #282829",
"a  c #432517",
"s  c #4D2B13",
"d  c #402419",
"f  c #432B1B",
"g  c #502D13",
"h  c #5E2E15",
"j  c #58371F",
"k  c #602F15",
"l  c #603015",
"z  c #633318",
"x  c #463029",
"c  c #4E3B2F",
"v  c #5B3B24",
"b  c #453730",
"n  c #413D3E",
"m  c #4B3C34",
"M  c #613F27",
"N  c #4E413A",
"B  c #5D4536",
"V  c #54453C",
"C  c #5C4738",
"Z  c #5C483B",
"A  c #624027",
"S  c #634128",
"D  c #7C4B2E",
"F  c #664937",
"G  c #6B4A37",
"H  c #624C3E",
"J  c #6C4B38",
"K  c #714B33",
"L  c #3C3E42",
"P  c #3D4144",
"I  c #424345",
"U  c #4F4643",
"Y  c #444548",
"T  c #554842",
"R  c #534C4A",
"E  c #594B44",
"W  c #5B504B",
"Q  c #654D46",
"!  c #655044",
"~  c #675048",
"^  c #6E574F",
"/  c #74594D",
"(  c #7B5A45",
")  c #6A5B56",
"_  c #6D5F59",
"`  c #796159",
"'  c #726460",
"]  c #855332",
"[  c #A65C2C",
"{  c #AE612D",
"}  c #B5632D",
"|  c #B9662E",
" . c #A56435",
".. c #B76A33",
"X. c #B0693B",
"o. c #BD6E3A",
"O. c #BF723F",
"+. c #C97236",
"@. c #C4723A",
"#. c #CB763A",
"$. c #CF7B3F",
"%. c #D47736",
"&. c #D77937",
"*. c #DB7B37",
"=. c #D67D3C",
"-. c #DF7F3A",
";. c #906243",
":. c #946E54",
">. c #A96D42",
",. c #B57040",
"<. c #836A60",
"1. c #816F6A",
"2. c #977A6A",
"3. c #8C7D77",
"4. c #C07642",
"5. c #C07843",
"6. c #DD813D",
"7. c #E4823B",
"8. c #E9873C",
"9. c #EB893F",
"0. c #9A8076",
"q. c #96857E",
"w. c #9F897F",
"e. c #AC8068",
"r. c #A0867C",
"t. c #A2887D",
"y. c #CF8757",
"u. c #9C8781",
"i. c #988982",
"p. c #A78F86",
"a. c #B0978C",
"s. c #B39D94",
"d. c #B99D92",
"f. c #B29F99",
"g. c #BDA397",
"h. c #B5A29C",
"j. c #B9A59E",
"k. c #BEACA4",
"l. c #C49A82",
"z. c #C5AFA5",
"x. c #C6B0A7",
"c. c #C6B2A8",
"v. c #CAB4A9",
"b. c #D7B7A7",
"n. c #D3B9AD",
"m. c #D3BBB1",
"M. c #DCC3B7",
"N. c #D6C3BA",
"B. c #E2C9BE",
"V. c #E5CEC4",
"C. c #E5D1C5",
"Z. c #E9D3C7",
"A. c #E9D4C9",
/* pixels */
"                                                            ",
"                            & 4                             ",
"                          4 i.c.U .                         ",
"        % X             t h.A.Z.N._ o             % .       ",
"        s 8 .       . U c.Z.g.t.M.V.3.=         = v %       ",
"        s V 9       W m.V.a.x > ` n.A.i.=     o y M @       ",
"        g V L *   U m.B.2.6 O # 1 ^ v.C.3.$ . p L M +       ",
"        g V I y w k.V.p.3 O + # - - Q n.C.) 4 i I M @       ",
"        s V I n 2.V.d.q + + + + + + # <.B.z.T L Y M @       ",
"        s V L n :.b.Q + + + + + + + O 6 d.l.V L I M @       ",
"        s c K  .5.2.< + + + + + + + O + / y...] m j @       ",
"        s B o.7.7.] - + + + + + + + + O a @.8.%.G v @       ",
"        s B o.7.-.z O + + + + + + + + O , } 9.&.G v @       ",
"        s B o.7.-.k O O + + + + + + + O : } 9.&.G v @       ",
"        s B o.9.-.k O + + O + + + + + + , } 9.&.G v @       ",
"        s C X.=.#.h O + + + + + + + + O ; [ =.@.F v @       ",
"        s B X.y.&.h O O O + O + + + + O , { 6.+.G v @       ",
"        s H #.8.7.l O O + + + + + + + O , | 9.&.G v @       ",
"        s H @.8.-.k O + + + + + + + + + , | 9.%.J v @       ",
"        s B o.8.*.h O + + + + + + + + + : | 9.%.J v @       ",
"      . s Z ( >.#.h O + + + + + + + + O : } ,.;.E S @       ",
"        s V Y Y Q a O O + + + + + + + + - F W Y Y S @       ",
"        s V Y Y I 2 O + + + O O + + + + % u Y Y Y S @       ",
"        s V Y P L 1 O O O O O O O O O O + u P Y Y A +       ",
"        g V P P I e 6 q 6 6 7 0 7 7 7 7 0 n I I I S +       ",
"        < b ` q.f.z.c.v.x.x.c.v.c.v.c.c.c.j.u.1.R f X       ",
"          e u.s.h.h.h.f.h.h.h.h.h.h.h.h.h.h.s.p.) .         ",
"          . & & $ * $ $ & & $ * o & * & & & & & o           ",
"                                                            ",
"                                                            "
};
