/* XPM */
static char *result[] = {
/* columns rows colors chars-per-pixel */
"60 60 176 2 ",
"   c #000000",
".  c #080707",
"X  c #090807",
"o  c #0D0B0A",
"O  c #11100F",
"+  c #181413",
"@  c #1C1817",
"#  c #231E1C",
"$  c #2B2422",
"%  c #2C2827",
"&  c #2D2C2C",
"*  c #372B26",
"=  c #322E2D",
"-  c #382F2B",
";  c #31302F",
":  c #3A312E",
">  c #2D2F31",
",  c #2F3133",
"<  c #333233",
"1  c #3D3531",
"2  c #34363A",
"3  c #36393D",
"4  c #393A3E",
"5  c #573B2B",
"6  c #5B3D2D",
"7  c #423733",
"8  c #463A36",
"9  c #483C37",
"0  c #463E3A",
"q  c #4A3E39",
"w  c #533C30",
"e  c #583F30",
"r  c #4E413D",
"t  c #68412A",
"y  c #7E4C2B",
"u  c #3C3E42",
"i  c #3F4144",
"p  c #424447",
"a  c #4E4644",
"s  c #444549",
"d  c #47494C",
"f  c #494A4D",
"g  c #514541",
"h  c #544A46",
"j  c #594B46",
"k  c #544C49",
"l  c #5C4E49",
"z  c #5A514D",
"x  c #4B4D51",
"c  c #515256",
"v  c #614E45",
"b  c #6A5347",
"n  c #63544E",
"m  c #725646",
"M  c #795D49",
"N  c #655650",
"B  c #675953",
"V  c #6B5A53",
"C  c #665C58",
"Z  c #725F58",
"A  c #6F615B",
"S  c #76635C",
"D  c #6E6665",
"F  c #6F6867",
"G  c #736964",
"H  c #736C6A",
"J  c #814D2D",
"K  c #85542F",
"L  c #9B5427",
"P  c #96552B",
"I  c #8C5A3B",
"U  c #9A5E36",
"Y  c #A15526",
"T  c #A65927",
"R  c #AC5924",
"E  c #A95A29",
"W  c #B45D25",
"Q  c #B85F26",
"!  c #A95D33",
"~  c #97623E",
"^  c #B86026",
"/  c #A9673B",
"(  c #BE6E35",
")  c #B46B3A",
"_  c #BF7034",
"`  c #BC743D",
"'  c #C76A2C",
"]  c #CE712F",
"[  c #D2732F",
"{  c #CE6E31",
"}  c #CE7334",
"|  c #C2763E",
" . c #D37432",
".. c #D87734",
"X. c #D67935",
"o. c #DA7936",
"O. c #D67639",
"+. c #DC7A39",
"@. c #E07E39",
"#. c #905F40",
"$. c #815F50",
"%. c #876047",
"&. c #936343",
"*. c #9A6643",
"=. c #9D6A46",
"-. c #886857",
";. c #AE6C46",
":. c #A1684A",
">. c #AD6D4A",
",. c #B16E44",
"<. c #A3704A",
"1. c #B2724E",
"2. c #AB7050",
"3. c #B27351",
"4. c #B57859",
"5. c #836D64",
"6. c #84726B",
"7. c #8A746C",
"8. c #8E7B73",
"9. c #C87B42",
"0. c #DD833D",
"q. c #E5853C",
"w. c #E8873D",
"e. c #E7883E",
"r. c #EA893E",
"t. c #96837B",
"y. c #9D847B",
"u. c #A2877D",
"i. c #AA8879",
"p. c #BE8C75",
"a. c #D48244",
"s. c #DC8442",
"d. c #EC8B40",
"f. c #C1927C",
"g. c #A68B81",
"h. c #AA8E85",
"j. c #AB948A",
"k. c #AF9990",
"l. c #B49F95",
"z. c #BB9D91",
"x. c #BBA49A",
"c. c #C59885",
"v. c #C0A396",
"b. c #CCA898",
"n. c #D0AD9F",
"m. c #CCAFA2",
"M. c #CCB1A5",
"N. c #C6B1A9",
"B. c #CCB6AC",
"V. c #CEB8AD",
"C. c #D3B4A7",
"Z. c #D4B6A9",
"A. c #D5B9AC",
"S. c #D9BBAE",
"D. c #CFBBB0",
"F. c #D4BDB3",
"G. c #DABEB1",
"H. c #D7C1B7",
"J. c #DCC3B6",
"K. c #D6C4BC",
"L. c #DDC5B9",
"P. c #DFC8BD",
"I. c #E0C5B9",
"U. c #E1CABE",
"Y. c #E4CDC4",
"T. c #E8CEC7",
"R. c #E8CEC8",
"E. c #E6D1C6",
"W. c #E7D2C9",
"Q. c #E9D4CB",
"!. c #EBD9CE",
"~. c #EDDDD2",
"^. c #F0DFD5",
"/. c #EFE1D6",
"(. c #F1E1D7",
"). c #F2E3D9",
/* pixels */
"                                                                                                                        ",
"                                                                                                                        ",
"                                                                                                                        ",
"                                                                                                                        ",
"                                                                                                                        ",
"                                                      O B n o                                                           ",
"                                                    # t.W.E.8.@                                                         ",
"                                                  0 l.~.(.(.~.k.:                                                       ",
"                                              o V F.).!.U.U.^.(.Z.n X                                                   ",
"                                            # t.E.(.Q.L.J.J.L.Q.).J.6.@                                                 ",
"                                          7 j./.).U.L.J.x.v.J.J.!.(.~.j.:                                               ",
"                                      . N H.W.Q.Y.H.A.u.r g u.S.U.U.~.(.B.j .                                           ",
"                                    o S U.).!.E.I.m.5.: = < : 7.C.H.U.!.(.H.V X                                         ",
"                                  o S L.).E.J.H.x.N & 3 4 4 < = V v.J.J.Q.!.Z.V .                                       ",
"                                . S A.W.E.J.A.u.r = p x s f i 2 % r j.S.Y.Q.(.F.N                                       ",
"                                g P.).E.L.S.t.1 1 f s p p s p i 4 & 7 y.S.L.Q.).H.r                                     ",
"                              = M.).W.J.H.t.* < s s p p i s p s s u = 1 y.G.L.Q.(.N.#                                   ",
"                            o g.).!.J.S.y.; : p p s p p i s p s p p i & 1 h.G.L.~.^.8..                                 ",
"                            h G./.U.J.z.r , p p s p p s i s p p p p p p & g v.J.U.(.H.1                                 ",
"                          + l.~.!.I.n.N & r p s f s p p p s p p p p p s u % Z Z.J.!.Y.y.+                               ",
"                          l Q.).U.J.i.* , 3 4 s i i i i i s p p i i u u 3 % - i.I.E.(.Y.j                               ",
"                        o h.).Q.J.n./ L K r : ; 3 2 i u 4 u 4 4 2 < < 1 e J L >.A.L.E.(.t..                             ",
"                        - F.(.U.J.p.E +.q.0._ L y t 2 > > , & * t y P ( X.r. .T c.J.Q.(.B.$                             ",
"                        V Q.^.L.C.>.^ q.q.w.q.[ +.X.y 2 2 2 2 5 { o. .r.q.d.q.R 4.A.U.^.Q.v                             ",
"                      . t.(.E.J.b.! ' r.r.r.q. .+.+.m u 3 u 3 6 { +.O.w.w.w.w.Q / b.J.!.(.8.                            ",
"                      @ x.).E.H.f.T ] r.d.r.q.[ +.+.b 3 3 u 3 6 { @...w.d.d.q.' R c.J.Y.).x.O                           ",
"                      % J.).U.S.4.R  .r.d.d.q. .+.+.m u 3 u u e { +.+.d.d.d.w.{ R p.H.U.).B.#                           ",
"                      7 P.(.P.A.4.W o.r.d.d.r...+.+.b u 3 u 3 5 { +.@.d.d.d.w.[ W 4.S.I.^.N.#                           ",
"                      r W./.J.Z.1.W ..r.d.d.r.o.+.+.b u 3 u u 6 { +.@.d.d.d.q. .W 3.A.L.~.F.$                           ",
"                      j L.E.U.Z.;.W +.r.d.d.d.+.o.+.m 3 3 4 3 6  ...@.d.d.d.r. .W 1.A.L.(.L.7                           ",
"                      j J.!.U.S.;.^ +.r.d.d.s.&.I | m u 3 u u 6 ) I ~ s.d.d.q. .W 3.A.Y.~.F.8                           ",
"                      k E.~.J.C.:.T o.| d.9.&.U ! *.b 3 3 4 3 e I U / =.| d.| } Y :.S.Y.~.L.9                           ",
"                      j Q.!.L.C.=.Y +.` d.,.&.) ) I v i 3 u u w I ) ) #.` d.` } L <.S.L./.U.9                           ",
"                      j !.~.L.C.>.R @.s.d.e.9.*.#./ b 3 3 u 3 6 ) #.I | s.d.s.+.R 2.A.L.~.U.9                           ",
"                      j !.!.L.C.,.^ q.d.d.d.r.o.} +.m i 3 u u 6 { O.} w.d.r.d.+.W 1.Z.L.~.G.7                           ",
"                      j !.!.J.C.;.W o.r.d.d.r.o.+.+.m 2 2 u 3 6 { @. .r.d.d.d.+.W 3.Z.L./.F.:                           ",
"                      j U.!.L.Z.;.^ X.r.d.r.q...+.+.m u u u u 6 O.@. .r.d.d.d.o.W 1.A.J.~.E.q                           ",
"                      r A.!.J.C.;.^  .r.d.r.q.[ +.+.m 2 2 u 2 5 { +. .w.d.d.r.o.W 1.A.J.~.Y.r                           ",
"                      g H.!.I.C.;.^  .q.r.d.q.[ O.+.m u 3 u u 6 { +.{ w.w.d.w...W 1.A.J.~.E.9                           ",
"                      l U.~.J.Z.;.^ [ q.e.r.q.[ ..O.m u 3 u u 6  .@...w.w.r.r...W 1.Z.L.~.Y.7                           ",
"                      l Q.!.L.C.;.W  .q.r.0.a.;.*.%.z d s d d h %.=.,.a.q.r.q. .W 1.A.U.Q.Z.-                           ",
"                      j U.!.E.Z.,.W  .9.<.M k s i p p i u s u x f f f z M <.9.X.W 1.A.U.^.Y.q                           ",
"                      j E.^.I.C.;.P M k i u i i s d s p i s s s d f c s i p k %.L 3.A.J.~.Y.q                           ",
"                      l Q.!.L.C.$.7 i s d s i s s s p p i s p p s p d x s s u 4 7 -.A.Y.~.G.7                           ",
"                      j E.!.L.C.v & f s s p p p p s p p i s s s p p p d p p p p % V A.I.~.Y.q                           ",
"                      j E.!.L.C.l ; s p p p p p p p p p i s p p p p p p p p p s < V S.J./.Y.q                           ",
"                      j L.!.U.C.l = p s p p p s p p s p p s p p p p p p p p p p = V A.L.~.Y.q                           ",
"                      j Q./.L.C.l & p p p p p p p p p p i s p p p p p p p p p p ; V A.L.~.Y.q                           ",
"                      j Q.~.J.C.l % u u u u u i u u u u 3 i u u i 4 3 i i u i u & N A.L.~.Y.8                           ",
"                    @ H E.E.J.A.6.C D D D D H H H F F F F H F F F F D D D D D D C 8.S.J.Q.U.A O                         ",
"                  . G V.Z.V.V.B.B.B.B.B.D.B.V.F.D.V.D.B.V.B.V.B.H.A.B.V.B.B.B.B.B.B.B.B.D.V.B.C                         ",
"                . H K.!.W.W.E.W.Q.W.Q.W.W.Q.Q.W.W.W.W.W.W.Q.W.W.Q.E.W.Q.W.W.W.W.W.Q.W.E.W.W.W.K.H .                     ",
"                + N.Q.R.R.R.T.T.R.R.Y.R.R.R.R.Y.R.Y.R.R.Y.R.Y.Y.Y.Y.Y.T.T.T.T.T.R.R.T.Y.Y.T.T.W.x.o                     ",
"                X a k k k h h h h a h h k k k k h k h k a h h h h h h k h h k k h k k h h k k l 0 .                     ",
"                                                                                                                        ",
"                                                                                                                        ",
"                                                                                                                        ",
"                                                                                                                        ",
"                                                                                                                        ",
"                                                                                                                        "
};
