/* XPM */
static char *result[] = {
/* columns rows colors chars-per-pixel */
"30 30 126 2 ",
"   c #000000",
".  c #090707",
"X  c #0C0A09",
"o  c #110E0D",
"O  c #13100F",
"+  c #141210",
"@  c #181514",
"#  c #1F1A18",
"$  c #221E1C",
"%  c #2D2725",
"&  c #2C2827",
"*  c #2F2B2A",
"=  c #312A27",
"-  c #342D2A",
";  c #39312E",
":  c #3C3431",
">  c #303438",
",  c #393638",
"<  c #363A3F",
"1  c #3D3C3E",
"2  c #453731",
"3  c #413A36",
"4  c #4D3F37",
"5  c #443E3C",
"6  c #4A413D",
"7  c #564237",
"8  c #5B4332",
"9  c #534238",
"0  c #363B40",
"q  c #3C3E41",
"w  c #3F4144",
"e  c #414346",
"r  c #4B4544",
"t  c #434549",
"y  c #47494D",
"u  c #4B4848",
"i  c #504541",
"p  c #554944",
"a  c #5D4C42",
"s  c #574D4A",
"d  c #594E4B",
"f  c #5E534E",
"g  c #5E5959",
"h  c #604C41",
"j  c #6E5445",
"k  c #725848",
"l  c #665A55",
"z  c #615C5D",
"x  c #6E605B",
"c  c #70635E",
"v  c #756761",
"b  c #94572F",
"n  c #995B32",
"m  c #9A5E38",
"M  c #9E623B",
"N  c #A2643C",
"B  c #AD6B3D",
"V  c #B96B34",
"C  c #B16E3F",
"Z  c #C36D35",
"A  c #CA6F34",
"S  c #C67136",
"D  c #CA7034",
"F  c #C9733A",
"G  c #D17534",
"H  c #D67834",
"J  c #DC7C36",
"K  c #D17639",
"L  c #D67B39",
"P  c #DC7E3A",
"I  c #E07E37",
"U  c #E07F38",
"Y  c #875F48",
"T  c #8C6246",
"R  c #8A624B",
"E  c #93664C",
"W  c #94684F",
"Q  c #B26E44",
"!  c #B96F41",
"~  c #B27343",
"^  c #BA7145",
"/  c #BB754C",
"(  c #8D7C74",
")  c #8D7F78",
"_  c #937E76",
"`  c #DF813C",
"'  c #E2813B",
"]  c #EC8A3F",
"[  c #BC815F",
"{  c #93837C",
"}  c #BD8463",
"|  c #D78141",
" . c #DC8441",
".. c #EC8B40",
"X. c #958681",
"o. c #9D8C85",
"O. c #A89187",
"+. c #A7978F",
"@. c #AB958B",
"#. c #B19F96",
"$. c #B09F98",
"%. c #B5A49D",
"&. c #BFA79C",
"*. c #BBAAA2",
"=. c #C69982",
"-. c #C99F8A",
";. c #C2A99E",
":. c #CFB6AA",
">. c #CAB8AF",
",. c #D5B9AB",
"<. c #D8BCAD",
"1. c #CEBBB2",
"2. c #D3BFB6",
"3. c #DBBFB2",
"4. c #D5C0B7",
"5. c #DDC1B4",
"6. c #D6C3B9",
"7. c #DBC6BC",
"8. c #DCC9BE",
"9. c #E2CBBF",
"0. c #DFCBC1",
"q. c #E2CCC1",
"w. c #E7D1C6",
"e. c #E9D3C7",
"r. c #E7D3C8",
"t. c #E9D4C9",
/* pixels */
"                                                            ",
"                                                            ",
"                          X ; X                             ",
"                        $ { 6.{ #                           ",
"                      3 %.r.9.r.#.;                         ",
"                  . l 1.r.&.( ;.e.2.l .                     ",
"                X v 8.9.@.s , d @.9.8.x .                   ",
"              . l 8.7.( r e t 1 5 { 7.0.l                   ",
"              5 7.9.( 1 e e e t w 1 _ 9.4.:                 ",
"            O +.e.O.5 w t t e t e q 6 @.r.o.O               ",
"            r q.<.E 8 6 5 1 w 1 1 4 8 W 5.0.6               ",
"          . { t.=.D P V n 6 > 2 b V L S -.t.(               ",
"          @ *.9.[ H ] I K h 0 7 D ' ] G } q.%.O             ",
"          % 6.3./ J ..' K h 0 7 D ' ] J / 5.1.$             ",
"          ; 7.<.^ J ..` F a 0 7 S ' ] J ^ 5.2.%             ",
"          : 6.<.~ H ` C N a < 6 M ~ ` D Q 3.4.-             ",
"          : 0.,.Q H | Q M p 0 9 m B | K Q <.6.-             ",
"          : 8.,.^ U ..P F h 0 7 Z P ] P ^ <.4.=             ",
"          ; 4.,.! I ] P K h < 7 D ' ..P ^ <.6.;             ",
"          ; 4.,.C J ] P F h q 7 Z P ] J ^ ,.6.-             ",
"          : 7.<.! S ~ T j u w y k T ~ F ^ 5.4.*             ",
"          : 8.,.R a t e t t t y t y y a R <.6.=             ",
"          : 7.:.s w t t t e w t t t w w f ,.7.-             ",
"          : 7.:.p q w e w w w w w w w w d ,.7.-             ",
"          r 7.:.c g z z g g x g x g z g v ,.6.5             ",
"        * %.q.8.4.2.2.6.6.4.6.6.4.4.4.4.6.8.q.$.*           ",
"        5 X.X.{ X.{ X.X.X.X.X.{ X.X.X.X.X.X.X.{ 3           ",
"          . . . . . . . .   . . . .   .   . . .             ",
"                                                            ",
"                                                            "
};
