/* XPM */
static char *result[] = {
/* columns rows colors chars-per-pixel */
"60 60 189 2 ",
"   c #000000",
".  c #0A0603",
"X  c #0D0804",
"o  c #0B0B0B",
"O  c #160400",
"+  c #180500",
"@  c #1C0904",
"#  c #160C09",
"$  c #1D1107",
"%  c #1D1109",
"&  c #0E1012",
"*  c #131110",
"=  c #1E1817",
"-  c #1A1818",
";  c #230B04",
":  c #210E09",
">  c #201207",
",  c #22120A",
"<  c #291A0F",
"1  c #231811",
"2  c #291913",
"3  c #231D1B",
"4  c #321B16",
"5  c #3D220E",
"6  c #2E231B",
"7  c #30251F",
"8  c #3A241E",
"9  c #242526",
"0  c #2B2524",
"q  c #2E2B2B",
"w  c #3A2620",
"e  c #302825",
"r  c #3D2923",
"t  c #332C2B",
"y  c #36312F",
"u  c #3A312E",
"i  c #2C2E32",
"p  c #332F30",
"a  c #333335",
"s  c #3F3633",
"d  c #33363B",
"f  c #36393E",
"g  c #3A3B3E",
"h  c #44260F",
"j  c #402B25",
"k  c #452E28",
"l  c #45342C",
"z  c #49342B",
"x  c #4C3B2E",
"c  c #573D2C",
"v  c #463A36",
"b  c #4C3C32",
"n  c #423A39",
"m  c #523D33",
"M  c #573E38",
"N  c #583F38",
"B  c #7A4115",
"V  c #5A412F",
"C  c #4A413E",
"Z  c #534136",
"A  c #5F4633",
"S  c #56443A",
"D  c #5B433C",
"F  c #71482F",
"G  c #604734",
"H  c #654737",
"J  c #644A39",
"K  c #7A543D",
"L  c #3B3D42",
"P  c #403E40",
"I  c #3E4045",
"U  c #424446",
"Y  c #434549",
"T  c #494748",
"R  c #46494D",
"E  c #4A4A4C",
"W  c #574944",
"Q  c #534B49",
"!  c #5D524E",
"~  c #634841",
"^  c #67554C",
"/  c #675753",
"(  c #775C54",
")  c #76625C",
"_  c #7F6E68",
"`  c #814417",
"'  c #854719",
"]  c #8F4C1A",
"[  c #914D1A",
"{  c #8C4B24",
"}  c #834E2E",
"|  c #954D23",
" . c #984F24",
".. c #86502E",
"X. c #955225",
"o. c #995125",
"O. c #9D572E",
"+. c #945A32",
"@. c #A95927",
"#. c #A0572C",
"$. c #A95929",
"%. c #B8642E",
"&. c #A8673C",
"*. c #BB6C35",
"=. c #B2673B",
"-. c #B96D3D",
";. c #C16A2F",
":. c #C36E37",
">. c #C57237",
",. c #CD7435",
"<. c #C4733A",
"1. c #CA753A",
"2. c #CB7B3E",
"3. c #D37735",
"4. c #DB7733",
"5. c #DC7A36",
"6. c #D37C3D",
"7. c #DD7C39",
"8. c #E17E38",
"9. c #8E674B",
"0. c #986947",
"q. c #81665D",
"w. c #BA7346",
"e. c #BA7446",
"r. c #846D66",
"t. c #8A6E66",
"y. c #877169",
"u. c #93756D",
"i. c #8F7A73",
"p. c #977B72",
"a. c #C67A48",
"s. c #D6803F",
"d. c #D9813F",
"f. c #E5843B",
"g. c #E8873C",
"h. c #EB8A3F",
"j. c #98857D",
"k. c #AC846F",
"l. c #DE8241",
"z. c #E38641",
"x. c #EC8B40",
"c. c #CD8F6A",
"v. c #C4916F",
"b. c #D19977",
"n. c #988781",
"m. c #9C8B85",
"M. c #9F8E88",
"N. c #AF8C81",
"B. c #B18F83",
"V. c #AD9186",
"C. c #A7938B",
"Z. c #AC968E",
"A. c #B7978B",
"S. c #B39B93",
"D. c #BB9D92",
"F. c #B2A097",
"G. c #BCA59B",
"H. c #BEA99D",
"J. c #C19F91",
"K. c #D4A487",
"L. c #CAA79A",
"P. c #D6AD99",
"I. c #DEB49B",
"U. c #C2ACA1",
"Y. c #CBAFA2",
"T. c #C7B1A7",
"R. c #CBB1A6",
"E. c #D0B3A6",
"W. c #D6BBAE",
"Q. c #D9B9A9",
"!. c #D6BEB4",
"~. c #DABEB1",
"^. c #DCC2B5",
"/. c #DEC6BA",
"(. c #DFC9BF",
"). c #E0C6BA",
"_. c #E1CABD",
"`. c #DFCAC2",
"'. c #E1CCC3",
"]. c #E9CEC5",
"[. c #E6D1C6",
"{. c #E9D0C4",
"}. c #E7D4C9",
"|. c #EDD5CD",
" X c #EBD9CE",
".X c #EEDCD2",
"XX c #F1DCD4",
"oX c #F1E1D6",
"OX c #F2E2D9",
/* pixels */
"                                                                                                                        ",
"                                                                                                                        ",
"                                                                                                                        ",
"                                                          = W *                                                         ",
"                                                        0 Z.'.j.3                                                       ",
"                                                      n G.oXOXoXS.a                                                     ",
"                                                  . ^ ^.oX X{.XXOXT.W                                                   ",
"                X h %                           * y./.oX}./.^./. XOX^.( o                           1 5 .               ",
"                , [ z o                       3 j..XOX[.^.~.E.^.~.|..X'.i.-                       & c ' X               ",
"                , [ x 9 .                   t S./..X'.^.W.u.m u.~.).}.OX.XC.0                   o q A ` X               ",
"                , [ b f 9                 v T.OX.X}./.Q.t.: O : q.W.~.'.XXoXG.e               . 9 L A ` X               ",
"                > [ S R g -             v T.OX X/./.R.( : + + + : ^ Y./.'..X.XV.e             - d I J ` X               ",
"                > [ Z R R d &         t A.|.}./.~.D.M @ + + + : : : ~ Y.^._..X}.V.3         * a f U J B X               ",
"                , [ Z U E U e .     = Z.|.[.(.~.V.k + + + + @ : , 2 : M G.)._..X Xj.*     . q g L L J ` X               ",
"                > [ S U U U g 6   . y.XXXX'.).D.j + + + + + @ , , 2 : + z D./._.oX X)     7 g I U I J ` .               ",
"                > [ S U U U I Z , C (.oX'.~.J.N + + + + + + @ @ , : + + O M L.^.'.OX!.u < v g U U U J B X               ",
"                , [ Z Y U U I C K D.OX}.~.E.D + + + + + + + + + O + + + O @ ( Q.~.|.OXV.H g P U Y Y G ` .               ",
"                % [ Z I Y U I I K I..X/.~.t.@ + + + + + + + + O + + + + + O < j.~.).XXP.J I U U U Y J ` X               ",
"                , [ Z I I Y I I Z v.}./.D.w O + + + + O + + + + + + + + + + O M L.^.{.k.n I U U Y I J ` .               ",
"                > [ Z f I I d a x e.Q.W.( + + + + + + + + + + + + + + + + + O @ t.).I.=.u a f I L L G ` .               ",
"                $ [ z i y l V +.1.5.K.G.4 + + + + + + + + + + + + + + + + + O O z Y.b.4.%.} c u a i c ` .               ",
"                $ [ l y +.;.3.g.g.3.c.t.@ + + + + O + + + O + + + + + O + O + + ; p.c.3.g.f.,.%.F i A B .               ",
"                $ ] Z C -.4.5.h.g.4.e.m O + + + + + + + + O + + + + + + + + + + + H a.5.h.g.5.4.} L A B .               ",
"                $ ] x L -.7.5.x.g.4.-.< O + @ + + + + + + + + + + + O + + + + + O 8 *.5.h.g.5.5.} d A B .               ",
"                $ ] x U -.4.5.x.x.5.#.: + + @ + + + + + + + + O + + + + + + + + + : $.4.x.x.8.5.} f A B .               ",
"                $ ] x C -.4.5.x.h.7. .+ + + + + + + + + + + + + + + + O + + + + O : $.4.x.x.8.5.} f A B                 ",
"                $ ] x U -.4.8.h.h.5.X.@ + + + + + + + + + + + + + + + + + + + + O ; $.7.x.x.8.7.} d A B .               ",
"                $ ] x U -.7.f.h.h.5. .@ + + + + + + O + + + + + + + O + + + + O O ; $.4.x.x.8.5...L H B .               ",
"                $ ] x n -.4.f.x.h.8. .@ O + + + + + O + O + + + + + + + + + + + + ; $.7.x.x.f.5.} d G B                 ",
"                $ ] x U -.8.g.x.h.f. .@ + + + + + + + + + + + + + O + + + + + + O ; $.8.x.x.f.7.} L G B .               ",
"                # [ x n =.,.6.f.a.3.| + O + + O + + + + + + + + + + + + + O + + + ; o.,.6.l.6.>.} d G B .               ",
"                % ] x U &.:.1.d.6.>.{ @ O + + + + + + + + + O + + + + + + + + + O : o.>.2.6.>.*.} f G B                 ",
"                $ ] x U &.<.<.s.6.<.{ @ + + + + + + + + + + + + + + + + + + O + O ;  .1.a.6.>.*.} f A B .               ",
"                $ ] x U e.f.z.x.x.8. .@ + + + + + + + O + + + O + + + + + + + + + ; @.f.h.h.7.4...d A B .               ",
"                @ ] b E e.l.z.x.x.8. .+ O + + + + + + + + + + + + @ @ + + + + + + ; @.f.x.x.5.7...L A B .               ",
"                % ] Z U e.7.f.x.x.7. .@ O + + + + + + + + + O + + @ + + + + + O + ; @.f.x.x.4.5.} d A B .               ",
"                $ X.S E w.8.5.x.x.5. .@ O + + + + O + + + + + + + + + + + + + + O ; @.f.x.x.6.7...L G B .               ",
"                $ X.S T w.5.7.x.x.4.| @ + + + + + + + O + + + + + + + + + + + + O ; @.f.x.x.4.4.} f G B .               ",
"                % X.m U -.4.7.h.g.4.| @ + + + + + + + + + O + + + + + + + + + + + ; @.5.h.h.6.4...f A B .               ",
"                % [ x P -.4.7.g.f.4.| + + O + + + + + + + + + + + + + + O + + + O ; @.f.h.g.5.4.} L A B .               ",
"                , ] Z R 0.<.6.g.f.4.| @ + + O + + + + + + + + + + + + + + + + + + ; @.5.g.h.6.-.K I J B X               ",
"                $ [ Z R T Q ^ 0.a.4.| O + + + + + + O + + + + + + O + + + + + + O ; @.7.a.9.^ Q E Y J B X               ",
"                > [ Z I R I I I Q 0.{ @ + + + + + + + + O + + + + + + + + O + + O ; O.9.E I Y E R I J ` X               ",
"                > [ Z I U U Y Y R P z @ + + + + + + + + + + + + + + + + + + + + + @ b Y R R Y Y U Y J ` X               ",
"                $ [ Z Y U U U U R Y 0 O + O + + + + + + + + + + + + O + + + + + + @ q R R U U U U I J ` X               ",
"                > [ Z Y U U U U U R e O + + + + + O + + + + + + + + + + + + + + + + t Y U U Y U U Y J ` .               ",
"                > [ Z I Y I U U U P 0 + + + + + O + + + + + O O + + + + + + + + + + t U U U U U U U J ` X               ",
"                $ [ Z Y Y Y U U U L 0 + + + + + + + + + @ O O O O + + + + + + + + + a U U U R U Y U J ` X               ",
"                > [ Z U U U U U U P 0 + + O O O O O O O O O O O O O O O O O O O O O p P U U Y Y Y U J ` X               ",
"                , [ Z U U L L L g L s r w w l r w w w w w r r u w 7 r k w r k r w w L L L L P P U U J ` X               ",
"                > [ b d g U Q / r.m.F.H.H.U.T.U.H.U.H.U.U.U.U.U.H.U.R.U.H.U.U.U.H.G.S.i.( / T P L L H ' X               ",
"                X h 1 t t.B.D.E.`.'.'.'.`.`.`.`.'.`.`.'.`.`.`.[.'.'.'.'.'.'.`.`.`.`.'.`.!.D.A.N.r.9 2 5 .               ",
"                      _ P.W.].|.|.|.XX|.|.|.|.|.|.|.|.|.|.|.|..X|.|.|.|.|.|.|.XX|.|.XX|.|.].~.L.L.!                     ",
"                      ! m.m.M.M.M.m.M.m.m.m.n.m.M.m.m.m.M.m.m.m.n.n.n.n.m.M.m.M.M.m.m.m.n.m.m.n.j.C                     ",
"                          . .   .   o     . .   o   . .   o . .   o . o   o .   . . . . . . .                           ",
"                                                                                                                        ",
"                                                                                                                        ",
"                                                                                                                        ",
"                                                                                                                        ",
"                                                                                                                        "
};
