/* XPM */
static char *Z3JlZW5fbGVmdA__[] = {
/* columns rows colors chars-per-pixel */
"30 30 96 2 ",
"   c #000000",
".  c #050D02",
"X  c #071003",
"o  c #091605",
"O  c #0B1A05",
"+  c #122D07",
"@  c #143407",
"#  c #143609",
"$  c #163B08",
"%  c #1D3F0E",
"&  c #194409",
"*  c #1C4C09",
"=  c #1E530A",
"-  c #20560B",
";  c #215A0B",
":  c #204412",
">  c #28650E",
",  c #2A6D0E",
"<  c #2D7C0F",
"1  c #326D1A",
"2  c #2D7A10",
"3  c #318510",
"4  c #318910",
"5  c #3D891E",
"6  c #359212",
"7  c #379910",
"8  c #3CA514",
"9  c #3DAC12",
"0  c #41AD17",
"q  c #41B212",
"w  c #43BC13",
"e  c #44B119",
"r  c #479924",
"t  c #45C314",
"y  c #47CB13",
"u  c #48CC15",
"i  c #4DCE1B",
"p  c #4AD314",
"a  c #4CD915",
"s  c #4ED419",
"d  c #52D51C",
"f  c #53D420",
"g  c #5AD726",
"h  c #59D528",
"j  c #64D736",
"k  c #65D838",
"l  c #6AD93F",
"z  c #74DA4C",
"x  c #7EDE56",
"c  c #7EDD58",
"v  c #89DF67",
"b  c #89DF69",
"n  c #91D97D",
"m  c #92E173",
"M  c #003683",
"N  c #053A87",
"B  c #194890",
"V  c #245292",
"C  c #2C5995",
"Z  c #335E99",
"A  c #466BA2",
"S  c #7DAB9F",
"D  c #6384AB",
"F  c #849EBE",
"G  c #8BC78C",
"H  c #9DCF9F",
"J  c #9DD09E",
"K  c #B6EBA0",
"L  c #B9EBA3",
"P  c #BDECAA",
"I  c #C3EEAF",
"U  c #C3EEB1",
"Y  c #C7EFB9",
"T  c #C8EFB9",
"R  c #AFBFD2",
"E  c #CEEAC7",
"W  c #CEEAC8",
"Q  c #D0F0C3",
"!  c #D5F2C9",
"~  c #D6F3C9",
"^  c #D6F3CB",
"/  c #DAE9DC",
"(  c #DBF4D1",
")  c #DCF4D2",
"_  c #E1E6EE",
"`  c #E7F7E0",
"'  c #EDF9E8",
"]  c #E5E9F1",
"[  c #E6EAF3",
"{  c #EDF1F4",
"}  c #F5FBF3",
"|  c #F6FBF2",
" . c #FBFCFA",
".. c #FAFAFC",
"X. c #FBFCFC",
"o. c #FFFEFF",
/* pixels */
"                            . .                             ",
"                    o : 1 5 r r 5 1 % o                     ",
"                O > e i s p s s a p i 0 > o                 ",
"              & 9 a a p p p p p p p p p a 9 &               ",
"            = y a p p p p p p p p p p p p a t ;             ",
"          = y a u p p p p p p p p p p p p p a t -           ",
"        $ t a p p p p p p p p p p p p p p i p a w @         ",
"      . 7 a u u p p p p p p p p p p p p p p p p p 7 .       ",
"      * y p s d p p p p p p p u p f s p p p p p p u &       ",
"      6 a c U ^ P z p p p p p l K ~ T b s p p p p a 6 .     ",
"    O w x / ] o.o.` z p p p j E _ X.o.| b p p p p a w O     ",
"    $ i J A C R o.o.L p p p n D V F  .o.) h p p p p y #     ",
"    * g S N M D o.o.Q s p a G B M Z { o.' k u p p p u *     ",
"    ; d H A C R o.o.L p p p n D V F  .o.( h p p p p p =     ",
"    - p x / ] o.o.` z p p u k W _ ..o.} m p p p p p p =     ",
"    - p p x I ~ P z p p p p p l L ~ Y v s p p p p p p -     ",
"    ; p u p d d p p p p p p p y p f s p p p p p p p p =     ",
"    - p p p p p p p p p p p p p p p p p p p p p p p p =     ",
"    - a p p p p p p p p p p p p p p p p p p p p p p p =     ",
"    - p p p p p p p p p p p p p p p p p p p p p p p p =     ",
"    ; p p p p p p p p p p p p p p p p p p p p p p p p =     ",
"    - p p p p p p p p p p p p p p a y p p p y p p p u =     ",
"    - p p p u p p p p p p p p p p p p p p p a p p p p =     ",
"    - p p p p p u p p p p p p p p p p p p p p p p p p *     ",
"    - a p p p p p p p p p p a a p p p p p p a p p p p *     ",
"    - p p a w 0 p p p p p p 9 q y a p p p t 0 y p p p *     ",
"    * p a 9 @ o < p p p p 2 o O 3 p p p w $ . ; t a u &     ",
"    $ p w @     X 6 a p 6 .     o 8 a y =       = u u #     ",
"    o < &         O 2 2 O         + 4 ;           ; , .     ",
"                                                            "
};
