/* XPM */
static char *Z3JlZW5fcmlnaHQ_[] = {
/* columns rows colors chars-per-pixel */
"30 30 199 2 ",
"   c black",
".  c #010301",
"X  c #040803",
"o  c #020301",
"O  c #091804",
"+  c #1D460D",
"@  c #307116",
"#  c #3C8D1B",
"$  c #459C21",
"%  c #459D21",
"&  c #3C8E1C",
"*  c #1C450C",
"=  c #0B1E03",
"-  c #29700D",
";  c #42B316",
":  c #4DCF19",
">  c #4ED618",
",  c #4CD617",
"<  c #4CD516",
"1  c #4ED518",
"2  c #4CCF19",
"3  c #0A1E03",
"4  c #010300",
"5  c #1A4C07",
"6  c #3FB312",
"7  c #4BD416",
"8  c #4BD415",
"9  c #4AD215",
"0  c #3EB212",
"q  c #1A4B07",
"w  c #020500",
"e  c #236609",
"r  c #47CA14",
"t  c #46C914",
"y  c #226409",
"u  c #010500",
"i  c #000100",
"p  c #216109",
"a  c #48CD14",
"s  c #4AD315",
"d  c #216009",
"f  c #153E06",
"g  c #45C513",
"h  c #4BD315",
"j  c #153D05",
"k  c #061102",
"l  c #39A210",
"z  c #4BD515",
"x  c #49D214",
"c  c #38A10F",
"v  c #051001",
"b  c #1C5008",
"n  c #49D015",
"m  c #48D112",
"M  c #4ED31B",
"N  c #53D420",
"B  c #4BD216",
"V  c #48D213",
"C  c #48D212",
"Z  c #4CD218",
"A  c #53D421",
"S  c #4DD319",
"D  c #49D014",
"F  c #1B4F07",
"G  c #020601",
"H  c #34940E",
"J  c #4AD214",
"K  c #4ED31A",
"L  c #8AE267",
"P  c #CAF2BB",
"I  c #D7F5CC",
"U  c #B8EEA1",
"Y  c #6ADA3E",
"T  c #49D213",
"R  c #75DC4D",
"E  c #BFEFAC",
"W  c #D8F5CD",
"Q  c #C5F1B3",
"!  c #7EDF57",
"~  c #33940E",
"^  c #0B1F03",
"/  c #42BD13",
"(  c #93E474",
")  c #F9FDF7",
"_  c white",
"`  c #FCFCFF",
"'  c #E5E8F5",
"]  c #D2EECD",
"[  c #64D936",
"{  c #74DC4B",
"}  c #EBFAE5",
"|  c #E9ECF7",
" . c #DEEDE3",
".. c #80E159",
"X. c #40BC10",
"o. c #153C06",
"O. c #58D527",
"+. c #DDF6D3",
"@. c #FCFDFD",
"#. c #85A0C3",
"$. c #225294",
"%. c #6685B6",
"&. c #93DC7E",
"*. c #BAEEA6",
"=. c #B0C1D8",
"-. c #2C5A98",
";. c #456CA7",
":. c #A0D2A4",
">. c #4ECF1B",
",. c #143B05",
"<. c #66D939",
"1. c #EFFBEA",
"2. c #EEF2F7",
"3. c #325F9B",
"4. c #003683",
"5. c #184992",
"6. c #8CC98E",
"7. c #4CD416",
"8. c #51D41D",
"9. c #D3F4C5",
"0. c #6485B3",
"q. c #053A88",
"w. c #7FACA5",
"e. c #5AD826",
"r. c #1A4E06",
"t. c #1E5908",
"y. c #859FC3",
"u. c #6585B6",
"i. c #92DC7E",
"p. c #BAEDA6",
"a. c #2B5998",
"s. c #A0D1A4",
"d. c #51D61C",
"f. c #1E5807",
"g. c #1E5907",
"h. c #E5E9F5",
"j. c #EAFAE5",
"k. c #E9ECF6",
"l. c #7FDF59",
"z. c #48D312",
"x. c #4DD31A",
"c. c #8AE268",
"v. c #CAF1BB",
"b. c #D8F5CC",
"n. c #B7EEA1",
"m. c #75DD4D",
"M. c #BFEEAC",
"N. c #1E5708",
"B. c #48CE14",
"V. c #3EB111",
"C. c #45C413",
"Z. c #3FB512",
"A. c #4AD115",
"S. c #3FB311",
"D. c #44C213",
"F. c #1E5808",
"G. c #1B4C08",
"H. c #46C713",
"J. c #061202",
"K. c #174406",
"L. c #43C013",
"P. c #30890D",
"I. c #091A02",
"U. c #081902",
"Y. c #2D820C",
"T. c #2C810C",
"R. c #071602",
"E. c #133705",
"W. c #3EB211",
"Q. c #1B5007",
"!. c #133805",
"~. c #47CC14",
"^. c #1F5A08",
"/. c #4CD816",
"(. c #3CAB11",
"). c #091B02",
"_. c #061001",
"`. c #34970E",
"'. c #4CD715",
"]. c #4BD615",
"[. c #34950E",
"{. c #061101",
"}. c #143A05",
"|. c #174206",
" X c #050E01",
".X c #2A7A0B",
"XX c #1F5B09",
"oX c #010400",
"OX c #020501",
"+X c #205D09",
"@X c #328F0E",
"#X c #113305",
"$X c #0B2003",
"%X c #2E830D",
"&X c #2B7D0C",
"*X c #194907",
"=X c #2E840C",
"-X c #081802",
";X c #010200",
/* pixels */
"                          . X X o                           ",
"                    O + @ # $ % & @ * O                     ",
"                = - ; : > , < < , 1 2 ; - 3                 ",
"            4 5 6 7 8 9 9 9 9 9 9 9 9 8 7 0 q 4             ",
"          w e r 8 9 9 9 9 9 9 9 9 9 9 9 9 8 t y u           ",
"        i p a s 9 9 9 9 9 9 9 9 9 9 9 9 9 9 s a d i         ",
"        f g h 9 9 9 9 9 9 9 9 9 9 9 9 9 9 9 9 h g j         ",
"      k l z 9 9 9 9 9 9 x 9 9 9 9 9 9 9 9 9 x 9 z c v       ",
"      b n 9 9 9 9 9 m M N B V 9 9 9 9 9 C Z A S C D F       ",
"    G H z 9 9 9 J K L P I U Y T 9 9 9 9 R E W Q ! < ~ G     ",
"    ^ / h 9 9 9 x ( ) _ ` ' ] [ V 9 C { } _ _ |  ...X.^     ",
"    o.a 9 9 9 x O.+._ @.#.$.%.&.T 9 B *._ _ =.-.;.:.>.,.    ",
"    b 9 9 9 9 V <.1._ 2.3.4.5.6.7.J 8.9._ _ 0.4.q.w.e.r.    ",
"    t.s 9 9 9 x O.+._ @.y.$.u.i.T 9 B p._ _ =.a.;.s.d.f.    ",
"    g.s 9 9 9 9 x ( ) _ ` h.] [ V 9 C { j._ _ k. .l.z.g.    ",
"    f.s 9 9 9 9 J x.c.v.b.n.Y T 9 9 9 J m.M.W Q ! B s g.    ",
"    g.s 9 9 9 9 9 9 m M N B V 9 9 9 9 9 C Z A S m 9 s g.    ",
"    g.s 9 9 9 9 9 9 9 9 x 9 9 9 9 9 9 9 9 9 x 9 9 9 s g.    ",
"    g.s 9 9 9 9 9 9 9 9 9 9 9 9 9 9 9 9 9 9 9 9 9 9 s g.    ",
"    g.s 9 9 9 9 9 9 9 9 9 9 9 9 9 9 9 9 9 9 9 9 9 9 s f.    ",
"    g.s 9 9 9 9 9 9 9 9 9 9 9 9 9 9 9 9 9 9 9 9 9 9 s f.    ",
"    f.s 9 9 9 9 9 9 9 9 9 9 9 9 9 9 9 9 9 9 9 9 9 9 s f.    ",
"    f.s 9 9 9 9 9 9 9 9 9 9 9 9 9 9 9 9 9 9 9 9 9 9 s f.    ",
"    g.s 9 9 9 9 9 9 9 9 9 9 9 9 9 9 9 9 9 9 9 9 9 9 s f.    ",
"    g.s 9 9 9 8 s 9 9 9 9 9 8 8 9 9 9 9 9 9 8 s 9 9 s f.    ",
"    N.s 9 s B.V.C.s 9 9 9 9 Z.Z.A.9 9 9 9 n S.D.8 9 s F.    ",
"    G.A.h H.d J.K.L.8 9 s P.I.U.Y.9 9 9 s T.R.E.W.8 9 Q.    ",
"    !.B.~.^.      F.a /.(.).    _.`.'.].[.{.    }.L.9 |.    ",
"     X.XXXoX      OX+X@X#X        $X%X&X).        *X=X-X    ",
"      ;X              oX            ;X;X            4       "
};
