/* XPM */
static char *result[] = {
/* columns rows colors chars-per-pixel */
"30 30 63 1 ",
"  c #010101",
". c #000101",
"X c black",
"o c #1E0505",
"O c #610F0F",
"+ c #711111",
"@ c #380909",
"# c #100202",
"$ c #531A1A",
"% c #7E4446",
"& c #522727",
"* c #0C0202",
"= c #110304",
"- c #901616",
"; c #C61F1D",
": c #C71F1D",
"> c #B21B1A",
", c #901514",
"< c #C22C2C",
"1 c #DD8182",
"2 c #E3B4B5",
"3 c #683334",
"4 c #010000",
"5 c #2A0706",
"6 c #B81C1B",
"7 c #C41E1C",
"8 c #C31E1C",
"9 c #C51E1C",
"0 c #C31D1A",
"q c #C42422",
"w c #DC9396",
"e c #A26567",
"r c #080000",
"t c #1B0405",
"y c #AA1A18",
"u c #C21D1A",
"i c #CF696B",
"p c #844A4C",
"a c #030000",
"s c #030101",
"d c #68100F",
"f c #C31D1B",
"g c #C42727",
"h c #B95458",
"j c #361416",
"k c #7D1312",
"l c #C21E1C",
"z c #C51F1E",
"x c #B63235",
"c c #521A1C",
"v c #0D0303",
"b c #B91C1A",
"n c #C61E1C",
"m c #A71D1D",
"M c #430F10",
"N c #040101",
"B c #4E0C0B",
"V c #901615",
"C c #290607",
"Z c #000100",
"A c #050102",
"S c #130303",
"D c white",
/* pixels */
"                              ",
"                              ",
"                              ",
"                              ",
"                              ",
"                              ",
"                              ",
"                              ",
"                              ",
"                              ",
"           .. ..XXX.          ",
"           oO+@#$%&*.         ",
"         .=-;:>,<1234         ",
"         .5678790qwer.        ",
"         .ty98888uipa         ",
"          sd7788fghjX         ",
"          .=kl78zxcs          ",
"           .vdbnmMs           ",
"            .NBVCZ            ",
"             .AS              ",
"               .              ",
"                              ",
"                              ",
"                              ",
"                              ",
"                              ",
"                              ",
"                              ",
"                              ",
"                              "
};
