/* XPM */
static char *result[] = {
/* columns rows colors chars-per-pixel */
"30 30 161 2 ",
"   c black",
".  c #070303",
"X  c #251615",
"o  c #2B1B1A",
"O  c #100909",
"+  c #0D0707",
"@  c #281918",
"#  c #261615",
"$  c #080404",
"%  c #130908",
"&  c #704544",
"*  c #B07471",
"=  c #B97D7B",
"-  c #936260",
";  c #281716",
":  c #231211",
">  c #8E5B59",
",  c #BA7B79",
"<  c #B37572",
"1  c #764745",
"2  c #170A0A",
"3  c #040000",
"4  c #612D2B",
"5  c #B76965",
"6  c #B7615D",
"7  c #BE625F",
"8  c #CD7B78",
"9  c #935957",
"0  c #8B4F4D",
"q  c #CF7B78",
"w  c #C46663",
"e  c #BD5D5B",
"r  c #BD635F",
"t  c #6A302D",
"y  c #060100",
"u  c #1F0403",
"i  c #8E322F",
"p  c #A8403E",
"a  c #A52E2B",
"s  c #AC2F2C",
"d  c #BC4A46",
"f  c #CB6D69",
"g  c #CD6C68",
"h  c #C44E4A",
"j  c #B6332F",
"k  c #AC2C29",
"l  c #AA3430",
"z  c #962D29",
"x  c #260604",
"c  c #390503",
"v  c #8E1815",
"b  c #971915",
"n  c #9C0C0A",
"m  c #A50C0B",
"M  c #B31C1A",
"N  c #C73D3A",
"B  c #CA3E3A",
"V  c #BE1D1A",
"C  c #B00D0B",
"Z  c #A70D0B",
"A  c #A11613",
"S  c #971512",
"D  c #450503",
"F  c #410302",
"G  c #870403",
"H  c #8E0502",
"J  c #980201",
"K  c #A30100",
"L  c #AD0302",
"P  c #BE0B09",
"I  c #C60B09",
"U  c #BF0201",
"Y  c #B00201",
"T  c #A70100",
"R  c #9C0402",
"E  c #930603",
"W  c #4E0302",
"Q  c #010000",
"!  c #3C0303",
"~  c #850301",
"^  c #8C0301",
"/  c #970201",
"(  c #AE0100",
")  c #BE0100",
"_  c #C70101",
"`  c #B30200",
"'  c #9C0201",
"]  c #900301",
"[  c #450302",
"{  c #270302",
"}  c #7E0302",
"|  c #A20100",
" . c #AC0100",
".. c #B60100",
"X. c #BB0200",
"o. c #AF0100",
"O. c #A50100",
"+. c #9A0201",
"@. c #8A0301",
"#. c #2E0202",
"$. c #100201",
"%. c #690403",
"&. c #8B0301",
"*. c #930301",
"=. c #9E0201",
"-. c #A80100",
";. c #B20100",
":. c #A00100",
">. c #980301",
",. c #730402",
"<. c #120201",
"1. c #390403",
"2. c #840705",
"3. c #910604",
"4. c #990302",
"5. c #A10100",
"6. c #A60100",
"7. c #9C0302",
"8. c #900704",
"9. c #420503",
"0. c #0C0101",
"q. c #5B0705",
"w. c #8E0B08",
"e. c #950B08",
"r. c #9A0604",
"t. c #9D0503",
"y. c #A00403",
"u. c #A00503",
"i. c #9B0604",
"p. c #950906",
"a. c #650705",
"s. c #0E0201",
"d. c #1A0202",
"f. c #680907",
"g. c #8F0E0A",
"h. c #970F0B",
"j. c #9A110E",
"k. c #99110E",
"l. c #990F0C",
"z. c #960D0A",
"x. c #720B08",
"c. c #1D0302",
"v. c #1E0302",
"b. c #650B08",
"n. c #8A0F0B",
"m. c #91120E",
"M. c #941311",
"N. c #90120F",
"B. c #710C09",
"V. c #230403",
"C. c #1A0303",
"Z. c #560A08",
"A. c #79100D",
"S. c #7D110F",
"D. c #5F0C0A",
"F. c #0F0202",
"G. c #3F0907",
"H. c #420A08",
"J. c #110302",
"K. c #060101",
"L. c white",
/* pixels */
"                                                            ",
"                                                            ",
"                                                            ",
"                                                            ",
"                                                            ",
"                                                            ",
"                                                            ",
"                    . X o O     + @ # $                     ",
"                  % & * = - ; : > , < 1 2                   ",
"                3 4 5 6 7 8 9 0 q w e r t y                 ",
"                u i p a s d f g h j k l z x                 ",
"                c v b n m M N B V C Z A S D                 ",
"                F G H J K L P I U Y T R E W Q               ",
"                ! ~ ^ / K ( ) _ U ` T ' ] [                 ",
"                { } ^ / |  ...U X.o.O.+.@.#.                ",
"                $.%.&.*.=.-.( ;.o.-.:.>.,.<.                ",
"                  1.2.3.4.5.6.-.T K 7.8.9.Q                 ",
"                  0.q.w.e.r.t.y.u.i.p.a.s.                  ",
"                    d.f.g.h.j.k.l.z.x.c.                    ",
"                      v.b.n.m.M.N.B.V.                      ",
"                        C.Z.A.S.D.u                         ",
"                          F.G.H.J.                          ",
"                            K.K.                            ",
"                                                            ",
"                                                            ",
"                                                            ",
"                                                            ",
"                                                            ",
"                                                            ",
"                                                            "
};
