/* XPM */
static char *result[] = {
/* columns rows colors chars-per-pixel */
"30 30 215 2 ",
"   c black",
".  c #080D01",
"X  c #273C03",
"o  c #324F03",
"O  c #1D2E02",
"+  c #020300",
"@  c #030400",
"#  c #243903",
"$  c #4E7B05",
"%  c #4A7405",
"&  c #223603",
"*  c #010200",
"=  c #070B01",
"-  c #152001",
";  c #304C03",
":  c #1B2A02",
">  c #324E04",
",  c #345104",
"<  c #1A2802",
"1  c #223502",
"2  c #507F03",
"3  c #6AA802",
"4  c #548402",
"5  c #060901",
"6  c #253903",
"7  c #213403",
"8  c #304B03",
"9  c #0C1301",
"0  c #2F4A02",
"q  c #68A503",
"w  c #74BA01",
"e  c #7FC901",
"r  c #69A501",
"t  c #0B1101",
"y  c #192802",
"u  c #213402",
"i  c #182602",
"p  c #2A4303",
"a  c #66A202",
"s  c #73B801",
"d  c #78BE01",
"f  c #84CF01",
"g  c #69A601",
"h  c #0A1001",
"j  c #121C02",
"k  c #273D03",
"l  c #2B4403",
"z  c #172302",
"x  c #385902",
"c  c #72B601",
"v  c #75BA01",
"b  c #81CA01",
"n  c #86D300",
"m  c #538302",
"M  c #030500",
"N  c #101801",
"B  c #294103",
"V  c #111A01",
"C  c #2E4803",
"Z  c #040600",
"A  c #497302",
"S  c #74B901",
"D  c #7CC501",
"F  c #85D100",
"G  c #7AC001",
"H  c #273D02",
"J  c #121C01",
"K  c #294003",
"L  c #010100",
"P  c #162302",
"I  c #040700",
"U  c #4E7C02",
"Y  c #7AC101",
"T  c #84D000",
"R  c #7EC600",
"E  c #416501",
"W  c #192702",
"Q  c #253A03",
"!  c #131E01",
"~  c #2A4103",
"^  c #518002",
"/  c #81CB01",
"(  c #6FAF01",
")  c #365502",
"_  c #050800",
"`  c #243803",
"'  c #1A2902",
"]  c #2D4604",
"[  c #324E02",
"{  c #3C5E02",
"}  c #152201",
"|  c #000100",
" . c #2F4904",
".. c #0C1201",
"X. c #223703",
"o. c #182902",
"O. c #010000",
"+. c #060000",
"@. c #120000",
"#. c #090000",
"$. c #1B2B02",
"%. c #0A0000",
"&. c #272102",
"*. c #4C3405",
"=. c #760510",
"-. c #7A040A",
";. c #340101",
":. c #020000",
">. c #2A0101",
",. c #840103",
"<. c #AA0107",
"1. c #900108",
"2. c #3E1503",
"3. c #2D4B03",
"4. c #091101",
"5. c #320101",
"6. c #950107",
"7. c #BE0711",
"8. c #DB0D1B",
"9. c #FA3754",
"0. c #F44A5C",
"q. c #BD020D",
"w. c #180101",
"e. c #9D0103",
"r. c #DE010D",
"t. c #F0001B",
"y. c #F70021",
"u. c #CC1416",
"i. c #7F180C",
"p. c #300002",
"a. c #1A0100",
"s. c #A40105",
"d. c #EE0019",
"f. c #FF0029",
"g. c #FF002A",
"h. c #FF153B",
"j. c #FC2E4E",
"k. c #E80317",
"l. c #780103",
"z. c #030000",
"x. c #400101",
"c. c #CA0106",
"v. c #E90016",
"b. c #FC0027",
"n. c #FF0028",
"m. c #FB2A4A",
"M. c #C62332",
"N. c #2E0001",
"B. c #440101",
"V. c #CF0109",
"C. c #F2001E",
"Z. c #FC0026",
"A. c #E90015",
"S. c #880104",
"D. c #450101",
"F. c #CD0107",
"G. c #FD0028",
"H. c #FE4160",
"J. c #F1354A",
"K. c #700003",
"L. c #4B0101",
"P. c #CF0108",
"I. c #EA0017",
"U. c #F90025",
"Y. c #FE0029",
"T. c #DD010E",
"R. c #650102",
"E. c #270101",
"W. c #B80105",
"Q. c #E50012",
"!. c #F30120",
"~. c #FC052B",
"^. c #EA041A",
"/. c #780104",
"(. c #250101",
"). c #AC0103",
"_. c #DF000D",
"`. c #E80016",
"'. c #ED001A",
"]. c #EB0018",
"[. c #E40011",
"{. c #AD0106",
"}. c #230101",
"|. c #050000",
" X c #6F0102",
".X c #D50109",
"XX c #E60013",
"oX c #EF001B",
"OX c #F1001D",
"+X c #CD010A",
"@X c #470101",
"#X c #420101",
"$X c #A90103",
"%X c #D10108",
"&X c #DA010B",
"*X c #D4010A",
"=X c #A70105",
"-X c #3A0101",
";X c #770102",
":X c #C20107",
">X c #D8010C",
",X c #D7010C",
"<X c #BC0107",
"1X c #620102",
"2X c #200101",
"3X c #510101",
"4X c #640102",
"5X c #4E0101",
"6X c #1C0100",
"7X c #080000",
"8X c #310101",
"9X c #540102",
"0X c #500101",
"qX c #290101",
"wX c white",
/* pixels */
"                                                            ",
"                                                            ",
"                                                            ",
"                                                            ",
"                                                            ",
"                    . X o O +                               ",
"                    @ # $ % & *                             ",
"                  = - ; : > , <                             ",
"              + 1 2 3 4 5 6 7 8 9                           ",
"            + 0 q w e r t y u i p +                         ",
"            y a s d f g h j k @ l z                         ",
"            x c v b n m M N B   V C Z                       ",
"          M A S D F G H   J K   L B P                       ",
"          I U Y T R E Z   W Q     ! ~ *                     ",
"          I ^ / ( ) _     ` '     I ] t                     ",
"          + [ { } |     _  ...      X.o.  O.                ",
"            +   +.@.#.  $.k L     %.&.*.=.-.;.:.            ",
"              >.,.<.1.2.3.4.    5.6.7.8.9.0.q.5.            ",
"            w.e.r.t.y.u.i.p.  a.s.d.f.g.h.j.k.l.z.          ",
"            x.c.v.b.g.n.m.M.N.B.V.C.g.g.f.Z.A.S.+.          ",
"            D.F.v.G.g.n.H.J.K.L.P.I.U.Y.b.C.T.R.O.          ",
"            E.W.Q.!.Y.g.~.^./.(.)._.`.'.].[.{.}.            ",
"            |. X.XXXoXOX].+X@X  #X$X%X&X*X=X-XO.            ",
"              @.;X:X>X,X<X1X#.  O.2X3X4X5X6X                ",
"                7X8X9X0XqX|.                                ",
"                                                            ",
"                                                            ",
"                                                            ",
"                                                            ",
"                                                            "
};
