/* XPM */
static char *result[] = {
/* columns rows colors chars-per-pixel */
"60 51 150 2 ",
"   c #000000",
".  c #0B0302",
"X  c #120303",
"o  c #1C0403",
"O  c #1A0807",
"+  c #1F0D0D",
"@  c #240404",
"#  c #2B0504",
"$  c #250E0E",
"%  c #320605",
"&  c #3D0907",
"*  c #350808",
"=  c #311617",
"-  c #351B1B",
";  c #460605",
":  c #4F0605",
">  c #490807",
",  c #550503",
"<  c #5B0605",
"1  c #520A07",
"2  c #5A0906",
"3  c #560B09",
"4  c #5E0E0B",
"5  c #46110F",
"6  c #591715",
"7  c #640604",
"8  c #630805",
"9  c #6C0A06",
"0  c #650B09",
"q  c #710403",
"w  c #7A0504",
"e  c #760D0A",
"r  c #7F0E0B",
"t  c #6C100C",
"y  c #7F110C",
"u  c #412424",
"i  c #562E2C",
"p  c #582E2D",
"a  c #652C2A",
"s  c #633331",
"d  c #623A39",
"f  c #763533",
"g  c #6F4544",
"h  c #7A4946",
"j  c #7D4C49",
"k  c #840201",
"l  c #8C0301",
"z  c #850906",
"x  c #8C0A06",
"c  c #840D0B",
"v  c #8D0D0A",
"b  c #940301",
"n  c #9B0201",
"m  c #930906",
"M  c #9B0907",
"N  c #940E0A",
"B  c #9C0B08",
"V  c #8C100C",
"C  c #94110D",
"Z  c #99110E",
"A  c #861110",
"S  c #881312",
"D  c #8D1A17",
"F  c #821F1B",
"G  c #941311",
"H  c #9B1411",
"J  c #971E19",
"K  c #A30100",
"L  c #AB0100",
"P  c #A40907",
"I  c #AB0907",
"U  c #A50C0B",
"Y  c #B30100",
"T  c #BB0200",
"R  c #B30C0A",
"E  c #A21411",
"W  c #AE1413",
"Q  c #A31D1A",
"!  c #BA1613",
"~  c #A0221F",
"^  c #A8211E",
"/  c #B1201C",
"(  c #952622",
")  c #9F2A25",
"_  c #A32622",
"`  c #AC2320",
"'  c #A22B28",
"]  c #B62623",
"[  c #B82320",
"{  c #B22D29",
"}  c #AB322F",
"|  c #BC312E",
" . c #A33532",
".. c #A83835",
"X. c #A13D3A",
"o. c #B43732",
"O. c #B13935",
"+. c #BB3E3A",
"@. c #C30202",
"#. c #C90101",
"$. c #C41713",
"%. c #C6231F",
"&. c #C22521",
"*. c #C83633",
"=. c #A7403F",
"-. c #C4413D",
";. c #83514E",
":. c #925654",
">. c #AE4844",
",. c #AD4D4B",
"<. c #B94644",
"1. c #B54E4B",
"2. c #AE5754",
"3. c #AF5B56",
"4. c #A65C59",
"5. c #B65350",
"6. c #B95754",
"7. c #BA625E",
"8. c #9F6764",
"9. c #B36F6C",
"0. c #BE716E",
"q. c #B37372",
"w. c #BE7671",
"e. c #BE7A75",
"r. c #CC4946",
"t. c #C14C49",
"y. c #C85552",
"u. c #CC5956",
"i. c #C35C59",
"p. c #CA5F5D",
"a. c #C16764",
"s. c #C86B67",
"d. c #C4716F",
"f. c #D4736E",
"g. c #C47371",
"h. c #CE7772",
"j. c #C57A76",
"k. c #CD7A77",
"l. c #C97C78",
"z. c #D37A77",
"x. c #D07D7A",
"c. c #C5817C",
"v. c #CB8381",
"b. c #CC8D8D",
"n. c #D18783",
"m. c #D88E8B",
"M. c #CD908C",
"N. c #D39593",
"B. c #DA9694",
"V. c #D49896",
/* pixels */
"                                                                                                                        ",
"                                                                                                                        ",
"                                                                                                                        ",
"                                                                                                                        ",
"                                                                                                                        ",
"                                                                                                                        ",
"                                                                                                                        ",
"                                                                                                                        ",
"                                                                                                                        ",
"                                                                                                                        ",
"                                                                                                                        ",
"                                                                                                                        ",
"                                                                                                                        ",
"                                          + i h ;.g u .         . - d j h p $                                           ",
"                                      . i q.b.M.N.V.N.8.=     $ :.M.B.B.N.M.q.s X                                       ",
"                                    . a e.c.w.w.g.j.v.B.9.$ O 4.B.n.l.g.d.d.l.l.f .                                     ",
"                                    5 3.0.3.2.,.1.6.a.k.m.;.f c.x.s.i.6.1.1.5.7.7.6                                     ",
"                                  o F 2.,.=. .} } O.<.i.h.k.f.z.p.t.+.o.{ } } ..>.( #                                   ",
"                                  > D X. .) ~ Q Q ` { +.y.f.f.u.-.| ] / ^ ^ _ _ ' J 2                                   ",
"                                . 8 v ( J C B M P U W [ *.r.r.*.&.! R I I U E Q J C w X                                 ",
"                                . q k v v b b n K K L R ! &.%.$.@.T Y L L K K M H b k o                                 ",
"                                X q k k l l b n K K L L T @.@.#.@.T Y I L K n b b l k o                                 ",
"                                X q k l l l b n K K L Y T #.#.#.@.T Y Y L K K n b l w o                                 ",
"                                . < k k l l b n K K L Y T T @.#.@.T T L L K n n b l q .                                 ",
"                                  ; k k l l b n K K L L Y T @.@.T T Y L L K n n b l ,                                   ",
"                                  @ w k l l b n n K L L Y Y Y T T Y L L K K n b l l #                                   ",
"                                  . < l k l l b n K K L L L Y Y L L L K K n n b b 7 .                                   ",
"                                    @ w z l l b n n K K L L L L L L L K K n m b z #                                     ",
"                                      ; z z m m b n n K K K L K K K K n n n m m : .                                     ",
"                                      . < z x N N m n n n n K K K K n n m m m 7 .                                       ",
"                                        X 8 z v N N N B B M M M B B B N N m 9 o                                         ",
"                                          o < c v N N Z H H H H Z Z B N v 9 o                                           ",
"                                            o , r c N C C G G G G C N c 0 o                                             ",
"                                              . > e c V V C G G C S c 2 X                                               ",
"                                                . % 0 e y S S A y e & .                                                 ",
"                                                    o 1 0 t t t 3 @                                                     ",
"                                                      . * 4 4 & .                                                       ",
"                                                          o @                                                           ",
"                                                                                                                        ",
"                                                                                                                        ",
"                                                                                                                        ",
"                                                                                                                        ",
"                                                                                                                        ",
"                                                                                                                        ",
"                                                                                                                        ",
"                                                                                                                        ",
"                                                                                                                        ",
"                                                                                                                        ",
"                                                                                                                        ",
"                                                                                                                        ",
"                                                                                                                        "
};
