/* XPM */
static char *result[] = {
/* columns rows colors chars-per-pixel */
"30 30 124 2 ",
"   c #010101",
".  c #010102",
"X  c #020101",
"o  c #020100",
"O  c #000101",
"+  c #000001",
"@  c #000102",
"#  c #000002",
"$  c #070201",
"%  c #2E0707",
"&  c #550D0D",
"*  c #5B0E0F",
"=  c #380909",
"-  c #0B0202",
";  c #040101",
":  c #260606",
">  c #521011",
",  c #5C1517",
"<  c #3C0A0B",
"1  c #0E0101",
"2  c #000100",
"3  c #0F0204",
"4  c #6D1010",
"5  c #B51C1A",
"6  c #C41E1C",
"7  c #C51E1C",
"8  c #BB1C1B",
"9  c #791212",
"0  c #190404",
"q  c #530B0B",
"w  c #B12E2F",
"e  c #DA8687",
"r  c #EABABA",
"t  c #D99A9B",
"y  c #933F3F",
"u  c #240605",
"i  c #560D0D",
"p  c #C11D1D",
"a  c #C41E1D",
"s  c #C31E1C",
"d  c #C11E1D",
"f  c #951615",
"g  c #B41C1A",
"h  c #C52222",
"j  c #C63939",
"k  c #DD8F8F",
"l  c #F1DEDE",
"z  c #EABEC0",
"x  c #8D3436",
"c  c #0A0001",
"v  c #0B0201",
"b  c #8F1615",
"n  c #C61F1D",
"m  c #C31C19",
"M  c #C42525",
"N  c #DC9293",
"B  c #E8CECF",
"V  c #C57276",
"C  c #260504",
"Z  c #0F0302",
"A  c #9B1717",
"S  c #C31B19",
"D  c #CA4C4E",
"F  c #DEB6BA",
"G  c #CC7F82",
"H  c #330909",
"J  c #000201",
"K  c #070103",
"L  c #841313",
"P  c #C61F1C",
"I  c #C31D19",
"U  c #C43838",
"Y  c #D7A0A4",
"T  c #B76568",
"R  c #200404",
"E  c #4C0B0B",
"W  c #C01E1C",
"Q  c #C21E1C",
"!  c #C31C1A",
"~  c #C64142",
"^  c #D18B90",
"/  c #7F3235",
"(  c #070000",
")  c #140303",
"_  c #931616",
"`  c #C21F1E",
"'  c #C95D61",
"]  c #B4575D",
"[  c #31090B",
"{  c #300708",
"}  c #A9191A",
"|  c #C31D1B",
" . c #C4393C",
".. c #BC5257",
"X. c #571416",
"o. c #040102",
"O. c #370808",
"+. c #A31917",
"@. c #C31E1B",
"#. c #C3292A",
"$. c #B63E42",
"%. c #5C1415",
"&. c #080101",
"*. c #2B0706",
"=. c #951616",
"-. c #C31F1C",
";. c #C52120",
":. c #AC282A",
">. c #4A0F10",
",. c #050102",
"<. c #74110F",
"1. c #BD1C1B",
"2. c #C41F1C",
"3. c #931717",
"4. c #310809",
"5. c #010201",
"6. c #080201",
"7. c #5E0D0D",
"8. c #BB1D1B",
"9. c #851413",
"0. c #0A0203",
"q. c #550C0D",
"w. c #200405",
"e. c white",
/* pixels */
"                                                            ",
"                                                            ",
"                                                            ",
"                                                            ",
"                                                            ",
"                                                            ",
"                                                            ",
"                    . X o     X                             ",
"                  O O O + O     O @ # O O                   ",
"            X O $ % & * = - O ; : > , < 1 2                 ",
"          X . 3 4 5 6 7 8 9 0 q w e r t y u O               ",
"              i p a s s s d f g h j k l z x c O             ",
"            v b n s s s s s 7 s s m M N B V C O O           ",
"          O Z A 7 s s s s s s s s s S D F G H 2 J           ",
"          O K L P s s s s s s s s s I U Y T R O             ",
"            O E W s s s s s s s s Q ! ~ ^ / (               ",
"            O ) _ n s s s s s s s s ` ' ] [ @               ",
"              O { } P s s s s s s |  ...X.o..               ",
"                . O.+.7 s s s s @.#.$.%.&.                  ",
"                  O *.=.-.s s s ;.:.>.,.@                   ",
"                    @ 0 <.1.2.Q 3.4.o 5.                    ",
"                      O 6.7.8.9.0 O                         ",
"                        O 0.q.w.@                           ",
"                          . X X X .                         ",
"                                                            ",
"                                                            ",
"                                                            ",
"                                                            ",
"                                                            ",
"                                                            "
};
