/* XPM */
static char *result[] = {
/* columns rows colors chars-per-pixel */
"60 60 101 2 ",
"   c #000000",
".  c #0B0101",
"X  c #060901",
"o  c #090D01",
"O  c #130101",
"+  c #1A0101",
"@  c #0D1302",
"#  c #0F1801",
"$  c #101702",
"%  c #121C02",
"&  c #220101",
"*  c #2C0202",
"=  c #340202",
"-  c #3D0202",
";  c #172302",
":  c #192603",
">  c #1D2D03",
",  c #1F3102",
"<  c #2A2B04",
"1  c #213403",
"2  c #253A03",
"3  c #283F04",
"4  c #440202",
"5  c #4C0202",
"6  c #550202",
"7  c #580101",
"8  c #630203",
"9  c #6C0202",
"0  c #740203",
"q  c #7D0202",
"w  c #2C4404",
"e  c #2F4904",
"r  c #3F4303",
"t  c #324F03",
"y  c #355404",
"u  c #385704",
"i  c #395A03",
"p  c #3F6205",
"a  c #416605",
"s  c #456C04",
"d  c #497305",
"f  c #4D7A05",
"g  c #507F05",
"h  c #840202",
"j  c #910202",
"k  c #9C0202",
"l  c #9D0208",
"z  c #A30202",
"x  c #AE0203",
"c  c #AA0807",
"v  c #B10201",
"b  c #BC0202",
"n  c #BE0211",
"m  c #B12E0A",
"M  c #C50202",
"N  c #CC0102",
"B  c #C1020A",
"V  c #CE0208",
"C  c #D30106",
"Z  c #D60109",
"A  c #DC010D",
"S  c #CE0319",
"D  c #DF0011",
"F  c #E50013",
"G  c #E90016",
"H  c #E30418",
"J  c #EC011A",
"K  c #ED081F",
"L  c #F2011E",
"P  c #F50121",
"I  c #FA0026",
"U  c #FF002A",
"Y  c #FD1639",
"T  c #984805",
"R  c #F62A45",
"E  c #FA314F",
"W  c #F93C59",
"Q  c #F64159",
"!  c #FA6178",
"~  c #548406",
"^  c #578905",
"/  c #598D06",
"(  c #5D9304",
")  c #609704",
"_  c #629A08",
"`  c #67A403",
"'  c #68A502",
"]  c #6DAC04",
"[  c #6FB202",
"{  c #72B601",
"}  c #74B901",
"|  c #78BE02",
" . c #7CC302",
".. c #83CE00",
"X. c #85D100",
"o. c #FA7389",
"O. c #F98C9D",
"+. c #F993A3",
"@. c #FA99A8",
"#. c #FBBAC4",
"$. c #F9DCE1",
/* pixels */
"                                                                                                                        ",
"                                                                                                                        ",
"                                                                                                                        ",
"                                                                                                                        ",
"                                                                                                                        ",
"                                                                                                                        ",
"                                                                                                                        ",
"                                                                                                                        ",
"                                                                                                                        ",
"                                                                                                                        ",
"                                            o o o X                                                                     ",
"                                          : ~ / ) ( d ;                                                                 ",
"                                          o : > ( ] _ / >                                                               ",
"                                              2 ~ w ~ y / ;                                                             ",
"                                            X ~ w   f w y ~ @                                                           ",
"                                      X % : a d X   3 f X s s                                                           ",
"                                  X w ~ ` ]  .w     @ ^ % @ ^ w                                                         ",
"                                : g ] } { | ..s       d w   1 / %                                                       ",
"                              2 _ } } { } ..X.( X     y a     p d                                                       ",
"                            2 ` } { { {  .X.X.` X     1 g     @ ^ 3                                                     ",
"                          $ ) } } { {  . .X.X.` X     : ~ o     3 ~ o                                                   ",
"                          u } { { { }  .X.X.X.(       $ ~ @     X f y                                                   ",
"                        X / } { { [  ...X.X.X.s       @ / @       > / @                                                 ",
"                        : ' { { { | X.X.X... .,       @ ^ #         d y                                                 ",
"                        2 { { { { ..X...X.X./ X       @ / @         > / @                                               ",
"                        w { { {  .......X.| 1         ; ^ o           f e                                               ",
"                        y } { } ..........i           > ~ X           2 ~ X                                             ",
"                        y } { ..X.......s X           w f             X ~ >                                             ",
"                        y }  ...X.X.| u               p y               u a                                             ",
"                        t | ..X.../ >               X ~ ,               : ~ o                                           ",
"                        w  .} ^ w X                 : ^ @               X ~ >                                           ",
"                        @ w ;                       p p                   p u                                           ",
"                                                  % / :                   3 f   O = = &                                 ",
"                                    . .           a a                   O % ~ 8 n H D b h +                             ",
"                                = 0 k k h 4 .   3 / #             . 5 j x c m K U ! Q K A k +                           ",
"                            . 9 M N C A A V q < / 1             O q N D G P I U U +.$.R G Z q                           ",
"                            8 N V A F J L L D T r .             0 V D L U U U U U Y +.E J A b &                         ",
"                          * b N A F L I U U I H S B 0 O       = b C G I U U U U U U U U L D N 5                         ",
"                          8 N C F J I U U U U U U Y K l +     9 N A G I U U U U U U U U L D C 7                         ",
"                          q N Z F J U U U U U U U @.! F 0     j N D G I U U U U U U I I G D N 5                         ",
"                          h N A F J U U U U U U U #.O.J b +   j N A F L U U U U U U U L F A b =                         ",
"                          0 N Z F G U U U U U U U o.W G V =   q N A F F L U U U U I L F F C k .                         ",
"                          5 M C F F L U U U U U U U P F V -   5 M N F F F J L L L G F F A M 5                           ",
"                          + x N F F H I U U U U U I G D M *   . j N N F F F F F F F F D N h .                           ",
"                            8 N C F F F L I I I P G F Z k O     & z N N A A F F F D Z N j +                             ",
"                            O j N Z F F F F F F H F Z M 6         & h M N N C C C N b q O                               ",
"                              + k N C A F F F F A C M 9             . - h z v x k q =                                   ",
"                                + q b N C Z C C N x 6 .                   . + + .                                       ",
"                                    = 8 j z k h 6 +                                                                     ",
"                                          . .                                                                           ",
"                                                                                                                        ",
"                                                                                                                        ",
"                                                                                                                        ",
"                                                                                                                        ",
"                                                                                                                        ",
"                                                                                                                        ",
"                                                                                                                        ",
"                                                                                                                        ",
"                                                                                                                        ",
"                                                                                                                        "
};
