/* XPM */
static char *result[] = {
/* columns rows colors chars-per-pixel */
"30 30 162 2 ",
"   c #010101",
".  c #010102",
"X  c #020101",
"o  c #030100",
"O  c #020102",
"+  c #000101",
"@  c #000201",
"#  c #000102",
"$  c #000003",
"%  c #070202",
"&  c #280606",
"*  c #480B0C",
"=  c #4C0B0D",
"-  c #2D0707",
";  c #080102",
":  c #190303",
">  c #3F0607",
",  c #4B080A",
"<  c #370507",
"1  c #110101",
"2  c #020100",
"3  c #010103",
"4  c #170303",
"5  c #701010",
"6  c #B01B19",
"7  c #C01E1C",
"8  c #C21E1D",
"9  c #B41C1A",
"0  c #731111",
"q  c #160305",
"w  c #050101",
"e  c #46090A",
"r  c #A22829",
"t  c #CE6A6A",
"y  c #DA8C8D",
"u  c #CC7577",
"i  c #963435",
"p  c #350807",
"a  c #030200",
"s  c #0B0205",
"d  c #7B1112",
"f  c #C31E1E",
"g  c #C51E1C",
"h  c #C41E1C",
"j  c #C31E1C",
"k  c #C41E1D",
"l  c #791212",
"z  c #4B0A0A",
"x  c #B21A19",
"c  c #CA3638",
"v  c #D77D80",
"b  c #F0D0D1",
"n  c #F6EAEA",
"m  c #ECC5C7",
"M  c #B34E4F",
"N  c #300507",
"B  c #3A0909",
"V  c #B91C1B",
"C  c #C11E1C",
"Z  c #C21E1C",
"A  c #BE1D1B",
"S  c #B51B1A",
"D  c #C11F1C",
"F  c #C31C1B",
"G  c #C01A19",
"H  c #C84647",
"J  c #E9BCBC",
"K  c #EEDCDC",
"L  c #E6ADB1",
"P  c #7C2123",
"I  c #050000",
"U  c #010100",
"Y  c #640F0E",
"T  c #C31B1A",
"R  c #CF5D5F",
"E  c #E6C6C7",
"W  c #E7C3C6",
"Q  c #AB4B4E",
"!  c #140100",
"~  c #010201",
"^  c #721011",
"/  c #C51E1D",
"(  c #C31D1B",
")  c #C42A2B",
"_  c #DB9EA2",
"`  c #E0BCBF",
"'  c #B85B5D",
"]  c #1E0302",
"[  c #650E0F",
"{  c #C31E1B",
"}  c #C21F1D",
"|  c #D07E82",
" . c #DCAFB3",
".. c #AB4D51",
"X. c #170101",
"o. c #3D0909",
"O. c #BC1D1B",
"+. c #C1201D",
"@. c #CE757A",
"#. c #D6999E",
"$. c #832F32",
"%. c #070000",
"&. c #160303",
"*. c #9C1817",
"=. c #C22726",
"-. c #CD7D81",
";. c #C56F74",
":. c #460F11",
">. c #010202",
",. c #590C0C",
"<. c #C21C1B",
"1. c #C43D3F",
"2. c #CC7B81",
"3. c #913235",
"4. c #120203",
"5. c #110303",
"6. c #891316",
"7. c #C31D1C",
"8. c #C32324",
"9. c #C65E64",
"0. c #B2464B",
"q. c #39090B",
"w. c #000103",
"e. c #250507",
"r. c #9C1717",
"t. c #C34145",
"y. c #B8464A",
"u. c #550E0E",
"i. c #000202",
"p. c #280605",
"a. c #981715",
"s. c #C22D2F",
"d. c #B53A3E",
"f. c #580F10",
"g. c #070102",
"h. c #260606",
"j. c #921615",
"k. c #C31F1B",
"l. c #C31F1C",
"z. c #C52222",
"x. c #B1292C",
"c. c #4F0E0F",
"v. c #060201",
"b. c #1B0404",
"n. c #7A1210",
"m. c #BF1D1B",
"M. c #A21A1B",
"N. c #40090B",
"B. c #030101",
"V. c #0D0201",
"C. c #670E0D",
"Z. c #BD1D1B",
"A. c #971616",
"S. c #2A0605",
"D. c #0A0203",
"F. c #761111",
"G. c #A41918",
"H. c #2C0606",
"J. c #1B0405",
"K. c #380708",
"L. c #040001",
"P. c white",
/* pixels */
"                                                            ",
"                                                            ",
"                                                            ",
"                                                            ",
"                                                            ",
"                    . X o       X   . O                     ",
"                  + @ + #         + # $ .                   ",
"                % & * = - ;   X   : > , < 1 +               ",
"        2 X 3 4 5 6 7 8 9 0 q w e r t y u i p a             ",
"          . s d f g h j h k l z x c v b n m M N +           ",
"        . + B V k C j h Z j A S D F G H J K L P I +         ",
"          U Y k j j j j j j j h j j h T R E W Q ! @ @       ",
"        ~ 2 ^ / j j j j j j j j j j j ( ) _ ` ' ] @ @       ",
"          + [ h j j j j j j j j j j Z { } |  ...X.+ +       ",
"        . # o.O.h j j j j j j j j j j { +.@.#.$.%.          ",
"        X   &.*.g j j j j j j j j j Z { =.-.;.:.+           ",
"        X >.2 ,.7 h j j j j j j j j j <.1.2.3.4.#           ",
"            + 5.6.g h j j j j j j j 7.8.9.0.q.w.#           ",
"              . e.r.h j j j j j j j Z t.y.u.w X             ",
"              O i.p.a.j j Z j j j Z s.d.f.g..               ",
"                  + h.j.k.l.j j Z z.x.c.v.w.                ",
"                    w.b.n.m.h j l.M.N.B.~ X                 ",
"                      + V.C.Z.j A.S..   ~ X                 ",
"                        + D.F.G.H.#                         ",
"                          + J.K.L.O                         ",
"                          O   + X   .                       ",
"                                                            ",
"                                                            ",
"                                                            ",
"                                                            "
};
