/* XPM */
static char *result[] = {
/* columns rows colors chars-per-pixel */
"30 30 174 2 ",
"   c #010101",
".  c #000001",
"X  c black",
"o  c #060503",
"O  c #181409",
"+  c #2E2610",
"@  c #3C3314",
"#  c #3B3213",
"$  c #2A2310",
"%  c #141108",
"&  c #030302",
"*  c #110E08",
"=  c #4A3F1A",
"-  c #937B2E",
";  c #C4A43A",
":  c #DBB640",
">  c #E6C043",
",  c #E5BF43",
"<  c #D8B440",
"1  c #BC9E39",
"2  c #846F2A",
"3  c #3C3217",
"4  c #090805",
"5  c gray1",
"6  c #3B3215",
"7  c #A78C33",
"8  c #E9C244",
"9  c #F9CF47",
"0  c #FAD047",
"q  c #F9CF46",
"w  c #F8CE46",
"e  c #F8CE47",
"r  c #E0BA42",
"t  c #91792E",
"y  c #282210",
"u  c #060504",
"i  c #5B4D1E",
"p  c #D6B23F",
"a  c #F7CD46",
"s  c #F9CE46",
"d  c #F7CE47",
"f  c #C0A23B",
"g  c #403617",
"h  c #020103",
"j  c #040303",
"k  c #605121",
"l  c #E2BC42",
"z  c #D0AE3F",
"x  c #423718",
"c  c #000002",
"v  c #463B19",
"b  c #DBB741",
"n  c #FACF47",
"m  c #C3A33B",
"M  c #1D190C",
"N  c #B99B38",
"B  c #967D2F",
"V  c #0C0A07",
"C  c #594B20",
"Z  c #EDC645",
"A  c #E5BE43",
"S  c #473B19",
"D  c #1C180D",
"F  c #756226",
"G  c #CEAC3D",
"H  c #F6CC46",
"J  c #9A8130",
"K  c #080704",
"L  c #030305",
"P  c #2A2311",
"I  c #D9B640",
"U  c #F8CF47",
"Y  c #D3B13F",
"T  c #28210F",
"R  c #060505",
"E  c #362E14",
"W  c #947C2F",
"Q  c #E1BC42",
"!  c #EEC645",
"~  c #53461D",
"^  c #0A0807",
"/  c #443919",
"(  c #A48933",
")  c #F7CD47",
"_  c #776426",
"`  c #0F0D08",
"'  c #52451D",
"]  c #B29537",
"[  c #EBC445",
"{  c #8E772C",
"}  c #040403",
"|  c #000003",
" . c #201B0F",
".. c #9E8432",
"X. c #F5CC46",
"o. c #967E2E",
"O. c #070604",
"+. c #000101",
"@. c #080706",
"#. c #3A3114",
"$. c #977F2F",
"%. c #E1BC41",
"&. c #91792D",
"*. c #050403",
"=. c #050404",
"-. c #302912",
";. c #8C752D",
":. c #DDB841",
">. c #7C6828",
",. c #010102",
"<. c #020202",
"1. c #272110",
"2. c #7F6B29",
"3. c #D4B23F",
"4. c #F0C845",
"5. c #594B1D",
"6. c #1F1A0D",
"7. c #715F24",
"8. c #CBA93C",
"9. c #F6CD46",
"0. c #2E2712",
"q. c #17130B",
"w. c #635421",
"e. c #C1A23A",
"r. c #F2CA46",
"t. c #A58B33",
"y. c #0D0B07",
"u. c #5D4F20",
"i. c #ECC545",
"p. c #F8CD46",
"a. c #EBC444",
"s. c #55481D",
"d. c #C8A73C",
"f. c #120F07",
"g. c #5A4B1F",
"h. c #D4B03E",
"j. c #393015",
"k. c #090808",
"l. c #796628",
"z. c #DFBA42",
"x. c #57491E",
"c. c #030204",
"v. c #0D0B08",
"b. c #E3BE43",
"n. c #D4B13F",
"m. c #594A1F",
"M. c #070605",
"N. c #51451D",
"B. c #BD9F3A",
"V. c #F1C945",
"C. c #A98E34",
"Z. c #3B3115",
"A. c #030203",
"S. c #1C180C",
"D. c #645422",
"F. c #AC9035",
"G. c #D7B440",
"H. c #EAC344",
"J. c #EFC744",
"K. c #EFC745",
"L. c #E7C143",
"P. c #D0AF3E",
"I. c #9F8532",
"U. c #54471C",
"Y. c #131008",
"T. c #0E0C06",
"R. c #2A230F",
"E. c #463B17",
"W. c #53471A",
"Q. c #52461A",
"!. c #403615",
"~. c #231E0D",
"^. c #0A0805",
"/. c white",
/* pixels */
"                      . X X X X . .                         ",
"                  . . o O + @ # $ % & . .                   ",
"                . * = - ; : > , < 1 2 3 4 .                 ",
"            . 5 6 7 8 9 0 q w w q 0 e r t y .               ",
"          . u i p 9 w a a a a a a a a s d f g h             ",
"          j k l 9 a a a a a a a a a a a a 9 z x c           ",
"        . v b 9 a a a a a a a a a a a a a a n m $ .         ",
"      . M N 9 a a a a a a a a a a a a a a a a d B V .       ",
"      . C Z n a a a a a a a a a a a a a a a a s A S .       ",
"      . D F G H 9 a a a a a a a a a a a a a a a 9 J K .     ",
"        c L P 2 I U s a a a a a a a a a a a a a 9 Y T c     ",
"            . R E W Q 9 w a a a a a a a a a a a w ! ~ .     ",
"                c ^ / ( 8 9 w a a a a a a a a a a ) _ .     ",
"                  . . ` ' ] [ a a a a a a a a a a 0 { }     ",
"                      . |  ...X.a a a a a a a a a 0 o.O.+.  ",
"                    c @.#.$.%.a a a a a a a a a a n &.*.    ",
"                . =.-.;.:.U s a a a a a a a a a a d >.,.    ",
"            . <.1.2.3.) 9 a a a a a a a a a a a w 4.5..     ",
"        . c 6.7.8.9.9 a a a a a a a a a a a a a q I 0..     ",
"        q.w.e.r.9 a a a a a a a a a a a a a a a 0 t.y..     ",
"      . u.i.n p.a a a a a a a a a a a a a a a w a.s..       ",
"      . T d.n a a a a a a a a a a a a a a a a 9 7 f..       ",
"        ,.g.> s a a a a a a a a a a a a a a n h.j..         ",
"        . k.l.i.q a a a a a a a a a a a a 0 z.x.c.          ",
"          c v.F b.0 w a a a a a a a a w 9 n.m.=.,.          ",
"            . M.N.B.V.0 q w w w w 9 0 a.C.Z.A..             ",
"              . c S.D.F.G.H.J.K.L.P.I.U.Y..                 ",
"                  . c T.R.E.W.Q.!.~.^.. .                   ",
"                      . X X X X X X .                       ",
"                                                            "
};
