/* XPM */
static char *result[] = {
/* columns rows colors chars-per-pixel */
"60 60 79 1 ",
"  c #010101",
". c #080606",
"X c #0D0A07",
"o c #030208",
"O c #090709",
"+ c #0C0A09",
"@ c #110E0A",
"# c #14110A",
"$ c #1B150D",
"% c #1E190D",
"& c #1C1610",
"* c #1D1810",
"= c #221C0F",
"- c #251E11",
"; c #272011",
": c #2C2412",
"> c #2F2914",
", c #342B14",
"< c #362D18",
"1 c #3C3115",
"2 c #3D3319",
"3 c #443817",
"4 c #423619",
"5 c #443919",
"6 c #493D1B",
"7 c #4E421D",
"8 c #52441D",
"9 c #55481F",
"0 c #5B4D1E",
"q c #544720",
"w c #5D4E21",
"e c #615323",
"r c #6C5A26",
"t c #6D5E29",
"y c #715F27",
"u c #736327",
"i c #746129",
"p c #7A672B",
"a c #7E6B2C",
"s c #826F2E",
"d c #85722D",
"f c #8A772D",
"g c #917D2F",
"h c #8C7530",
"j c #927C32",
"k c #968033",
"l c #9B8334",
"z c #A08733",
"x c #A18836",
"c c #A48B38",
"v c #AE9439",
"b c #B39639",
"n c #B59A3C",
"m c #B89C3C",
"M c #BCA13F",
"N c #C3A53E",
"B c #C7A93F",
"V c #CBAB3F",
"C c #D2AE3F",
"Z c #C5A941",
"A c #CBAB40",
"S c #D0AF42",
"D c #CFB142",
"F c #D4B443",
"G c #DAB743",
"H c #DDBB44",
"J c #E2BE45",
"K c #E6C246",
"L c #EBC647",
"P c #EFC947",
"I c #EECA48",
"U c #F7CD46",
"Y c #F8CE46",
"T c #F4CD48",
"R c #F9CF48",
"E c #F7D047",
"W c #F9D047",
"Q c #F7D048",
"! c #F9D048",
/* pixels */
"                                                            ",
"                                                            ",
"                                                            ",
"                                                            ",
"                                                            ",
"                                                            ",
"                      oo@-,37661:$O  oo                     ",
"                    #2ixNJJLTTPKJVbs8=                      ",
"                 .,sNJYYYYYUUUYUUYYYTSl6@o                  ",
"               o2lJTYYUUYYUUUUUUUUYYTYYLnw@                 ",
"              ;gJYYUYYUUYUUUUUUUUUUUUUUURTb6O               ",
"            OwAYYYUUUYUUYUUYUUUUUUUUUUUUTTRJs&              ",
"           #aLYYTTUUUUUUUUUUUUUUUUUUUUUUYUUYUv:             ",
"          &lTQUUYYUUUUUUUUUUUUUUUUUUUUUUYUUUTYB2o           ",
"         &cQTYTUUUUUUUUUUUUUUUUUUUUUUUUUUUUUYUYC2o          ",
"        @kTTTTYUUUUUUUUUUUUUUUUUUUUUUUUUUUUUYYYWA>          ",
"       .aPUUUUUUUUUUUUUUUUUUUUUUUUUUUUUUUUUUUYUUQb$         ",
"       9KUUUUUUUUUUUUUUUUUUUUUUUUUUUUUUUUUUUUUUUYTdO        ",
"      =BYYUUUUUUUUUUUUUUUUUUUUUUUUUUUUUUUUUUUUUUTYK6        ",
"     osTUYUUUUUYUUUUUUUUUUUUUUUUUUUUUUUUUUUUUUUUYY!n@o      ",
"     :GYTUUUUUUUUUUUUUUUUUUUUUUUUUUUUUUUUUUUUUUUTUUTw       ",
"     sRTUUUUUUUUUUUUUUUUUUUUUUUUUUUUUUUUUUUUUUUUYUTYn@      ",
"    $BYUUUUUUUUUUUUUUUUUUUUUUUUUUUUUUUUUUUUUUUUUUUUUL3      ",
"    8PUUUUUUUUUUUUUUUUUUUUUUUUUUUUUUUUUUUUUUUUUUUUUURd      ",
"    fRTYUUUUUUUUUUUUUUUUUUUUUUUUUUUUUUUUUUUUUUUUUUUUYM@     ",
"   @nWTYUUUUUUUUUUUUUUUUUUUUUUUUUUUUUUUUUUUUUUUUUUUUYJ>     ",
"   -CUUUUUUUUUUUUUUUUUUUUUUUUUUUUUUUUUUUUUUUUUUUUUUUYI8     ",
"   <LUUUUUUUUUUUUUUUUUUUUUUUUUUUUUUUUUUUUUUUUUUUUUUUTTy     ",
"   7TUUUYUUUUUUUUUUUUUUUUUUUUUUUUUUUUUUUUUUUUUUUUUUUUWd     ",
"   0TUUUUUUUUUUUUUUUUUUUUUUUUYUUUUUUUUUUUUUUUUUUUUUUUWg     ",
"   0TUUUUUUUUUUUUUUUUUUUUUUUCbYUUUUUUUUUUUUUUUUUUUUUYWg     ",
"   8TUUUUUUUUUUUUUUUUUUUUUUUy,JUUUUUUUUUUUUUUUUUUUTYYYg     ",
"   3LUUUUUUUUUUUUUUUUUUUUUWN&ohRTYUUUUUUUUUUUUUUUUUUUUp     ",
"   :HYUUUUUUUUUUUUUUUUUUUUIeo :FRYUUUUUUUUUUUUUUUUUUUTe     ",
"   #BWUYUUUUUUUUUUUUUUUUTRb@o  aTYUUUUUUUUUUUUUUUUUUTL2     ",
"   .zYUYUUUUUUUUUUUUUUUUYKq    -ARUUUUUUUUUUUUUUYUUUYS%     ",
"    rTYTUUUUUUUUUUUUUTTYWc+o  ooyTUUUUUYUUUUUUUYUUUU!x.     ",
"    :HYYUUUUUUUUUUUUUYYYJ4      =NRYUUUUUUUUUUUUUUUUTw      ",
"    OxYTUUUUUUUUUUUUUUYRjO     o eTRUUUUUUUUUUUUUURRS-      ",
"     7LYUUUUUUUUUUUUUUYG,        @nRUUUUUUUUUUUUYYTTs       ",
"     @vQUUUUUUUUUUUUUUTso         qLUUUUUUUUUUUUYTYG:       ",
"      5KUUUUUUUUUUUUUYF-         o+vWUUUUUUUUUUUETTp        ",
"      .dTUUUUUUUUUUTUTi  o         6KYUUUUUUUUUUQ!m$        ",
"       %mWUUUUUUUUUYYN%            XzYUTUUUUUUUYQH2o        ",
"       o,AWUUUUUUUUTIeo             1JYYUUUUUUUULeo         ",
"         5GTUUUUUYUYn@ o            ojYYUUUUUUYLp+          ",
"         o7FWYUUTYRLq                ,GYYUUUYYLa+           ",
"           2BYUUYYRc+               o sTUUYYYJt+            ",
"            :cIRTYK3 o                ;DRTYRZqo             ",
"             +rFTRkoo                  uT!Kj- o             ",
"               :jZ<                    -Mv6.                ",
"               oo*.                    o-+   o              ",
"                                                            ",
"                                                            ",
"                                                            ",
"                                                            ",
"                                                            ",
"                                                            ",
"                                                            ",
"                                                            "
};
