/* XPM */
static char *result[] = {
/* columns rows colors chars-per-pixel */
"60 60 79 1 ",
"  c #010101",
". c #080606",
"X c #0D0A07",
"o c #030208",
"O c #090709",
"+ c #0C0A09",
"@ c #110E0A",
"# c #14110A",
"$ c #1B150D",
"% c #1E190D",
"& c #1C1610",
"* c #1D1810",
"= c #221C0F",
"- c #251E11",
"; c #272011",
": c #2C2412",
"> c #2F2914",
", c #342B14",
"< c #362D18",
"1 c #3C3115",
"2 c #3D3319",
"3 c #443817",
"4 c #423619",
"5 c #443919",
"6 c #493D1B",
"7 c #4E421D",
"8 c #52441D",
"9 c #55481F",
"0 c #5B4D1E",
"q c #544720",
"w c #5D4E21",
"e c #615323",
"r c #6C5A26",
"t c #6D5E29",
"y c #715F27",
"u c #736327",
"i c #746129",
"p c #7A672B",
"a c #7E6B2C",
"s c #826F2E",
"d c #85722D",
"f c #8A772D",
"g c #917D2F",
"h c #8C7530",
"j c #8F7931",
"k c #927C32",
"l c #968033",
"z c #9B8334",
"x c #A08733",
"c c #A18836",
"v c #A48B38",
"b c #AE9439",
"n c #B39639",
"m c #B59A3C",
"M c #B89C3C",
"N c #C3A53E",
"B c #C7A93F",
"V c #CBAB3F",
"C c #C2A440",
"Z c #C5A941",
"A c #CBAB40",
"S c #D0AF42",
"D c #CFB142",
"F c #D4B443",
"G c #DAB743",
"H c #DDBB44",
"J c #E2BE45",
"K c #E6C246",
"L c #EBC647",
"P c #EFC947",
"I c #EECA48",
"U c #F7CD46",
"Y c #F8CE46",
"T c #F4CD48",
"R c #F9CF48",
"E c #F7D047",
"W c #F9D047",
"Q c #F7D048",
"! c #F9D048",
/* pixels */
"                                                            ",
"                                                            ",
"                                                            ",
"                                                            ",
"                                                            ",
"                                                            ",
"                                                            ",
"                                                            ",
"                 o@-o                    .*oo               ",
"                .6bM*o                   <Zj:               ",
"             o ;kKYTu                  oOkRRFr@             ",
"             oqZTRTRF;                  5KRURLv;            ",
"           o+tKRUUUUQd                 XvRRUUURZ2           ",
"          o+aLUUUUUUYG,                8LRUUYUUYF7o         ",
"          +pLUUUUUUUUQg.             o#mRUUUUUUUQF6         ",
"          eLQRUUUUUUUEJ2            o eIUUUUUUUUEWA<o       ",
"         4HUUUUUUUUUUURx+           o&NYUUUUUUUUUUYm%       ",
"        $MWUUUUUUUUUUUYK6            yUTUUUUUUUUUUURdO      ",
"        pUUUUUUUUUUUUUYRb@o         -SRTUUUUUUUUUUTTK3      ",
"       :FYUUUUUUUUUUUUUULq        oodRRRUUUUUUUUUURRQb@     ",
"      osRUUUUUUUUUUUUUUURm#       o,GRUUUUUUUUUUUUUUUL7     ",
"      -A!UUUUUUUUUUUUUUURTe       OkRUUUUUUUUUUUUUUUUWcO    ",
"      wTUUUUUUUUUUUUUUUUTYC$o     2KUUUUUUUUUUUUUUUUUYH:    ",
"     .c!UUUUUUUUUUUUUUUUUUTto   o+vQUUUUUUUUUUUUUUUUUUUr    ",
"     %DWUUUUUUUUUUUUUUUUUURS=    7LRUUUUUUUUUUUUUUUUUURx.   ",
"     2LUUUUUUUUUUUUUUUUUUUUUs o @m!RUUUUUUUUUUUUUUUUUUYB#   ",
"     eTUUUUUUUUUUUUUUUUUUUURF: owIUUUUUUUUUUUUUUUUUUUUYH:   ",
"     pUUUUUUUUUUUUUUUUUUUUUURh &NEUUUUUUUUUUUUUUUUUUUUYL3   ",
"     fWYUUUUUUUUUUUUUUUUUUUURH<rTTUUUUUUUUUUUUUUUUUUUUUT8   ",
"     gWYUUUUUUUUUUUUUUUUUUUURRnSUUUUUUUUUUUUUUUUUUUUUUUU0   ",
"     gWYUUUUUUUUUUUUUUUUUUUUUUYYUUUUUUUUUUUUUUUUUUUUUUUT0   ",
"     dWUUUUUUUUUUUUUUUUUUUUUUTYYUUUUUUUUUUUUUUUUUUUUUUUP7   ",
"     yUUUUUUUUUUUUUUUUUUUUUUUUUUUUUUUUUUUUUYUUUUUUUUUUYK1   ",
"     8IUUUUUUUUUUUYUUUUUUUUUUUUUUUUUUUUUUUUUUUUUUUUUUUWF-   ",
"     >JYUUUUUUUUUUUUUUUUUUUUUUUUUUUUUUUUUUUUUUUUUUUUUUYMX   ",
"     @NYUUUUUUUUUUUUUUUUUUUUUUUUUUUUUUUUUUUUUUUUUUYUUURf    ",
"      sRUUUUUUUUUUUUUUUUUUUUUUUUUUUUUUUUUUUUUUUUUUUUUUI7    ",
"      4LUUUUUUUUUUUUUUUUUUUUYUUUUUUUUUUUUUUUUUUUUUUUUYA&    ",
"      @MWUUUUUUUUUUUUUUUUUUUUUUUUUUUUUUUUUUUUUUUUUUUURao    ",
"       wIUUUUUUUUUUUUUUUUUUUUUUUUUYUUUUUUUUUUUUUUUUURF:     ",
"      o@m!UUUUUUUUUUUUUUUUUUUUUUUUUUUUUUUUUUUUUUUUUURao     ",
"        7KYUUUUUUUUUUUUUUUUUUUUUUUUUUUUUUUUUUUUUUUUEB-      ",
"        .dTUUUUUUUUUUUUUUUUUUUUUUUUUUUUUUUUUUUUUUUQK9       ",
"         $nEUUYUUUUUUUUUUUUUUUUUUUUUUUUUYUUUUUUUUUTs.       ",
"          >AWYYYUUUUUUUUUUUUUUUUUUUUUUUUUUUUUUUUQIl+        ",
"          o2A!UUUUUUUUUUUUUUUUUUUUUUUUUUUUUUUUUUQv&         ",
"           o2ZYUUUUUUUUUUUUUUUUUUUUUUUUUUUUUUUUUz&          ",
"             >bUUUUUUUUUUUUUUUUUUUUUUUUUUUUUUUKs#           ",
"              $dJRYYUUUUUUUUUUUUUUUUUUUUUUUURAwO            ",
"            o  O6nIRYUUUUUUUYUUUYUUUUUUUUYRJj;o             ",
"                 @wmPWYUYYUUUUUUUUUYUUUYUJz2.               ",
"                  o@7kDIYWYUYYUUUYYYYYKNs<.                 ",
"                      -7sbVJLLTPPJGCvi4@                    ",
"                        oO$:166731-@.                       ",
"                      o            o                        ",
"                                                            ",
"                                                            ",
"                                                            ",
"                                                            ",
"                                                            "
};
