/* XPM */
static char *result[] = {
/* columns rows colors chars-per-pixel */
"30 30 175 2 ",
"   c #010101",
".  c #000001",
"X  c black",
"o  c #090804",
"O  c #231E0D",
"+  c #413715",
"@  c #52461A",
"#  c #54471B",
"$  c #463B18",
"%  c #2A230F",
"&  c #0E0C06",
"*  c #121008",
"=  c #54461D",
"-  c #9F8631",
";  c #D0AE3E",
":  c #E7C143",
">  c #EFC745",
",  c #E9C344",
"<  c #D7B340",
"1  c #AC9035",
"2  c #655522",
"3  c #1C180B",
"4  c #030203",
"5  c #3B3115",
"6  c #A98E34",
"7  c #ECC444",
"8  c #FACF47",
"9  c #F9CE46",
"0  c #F8CE46",
"q  c #F9CF47",
"w  c #FAD047",
"e  c #F1C846",
"r  c #BC9E3A",
"t  c #52441C",
"y  c #070605",
"u  c #050404",
"i  c #584A1E",
"p  c #D4B23F",
"a  c #F7CD46",
"s  c #F7CE46",
"d  c #F9D048",
"f  c #E3BE43",
"g  c #756327",
"h  c #0D0B06",
"j  c #020203",
"k  c #57491E",
"l  c #DFBA42",
"z  c #ECC545",
"x  c #796628",
"c  c #090806",
"v  c #3A3115",
"b  c #D3B13F",
"n  c #E7C144",
"m  c #594C1F",
"M  c #010102",
"N  c #120F07",
"B  c #A88C33",
"V  c #C8A73D",
"C  c #28220F",
"Z  c #55481C",
"A  c #ECC544",
"S  c #EBC546",
"D  c #5E4F20",
"F  c #0C0A07",
"G  c #A58B33",
"H  c #F3CA46",
"J  c #C2A23A",
"K  c #645421",
"L  c #171309",
"P  c #2E2711",
"I  c #D9B640",
"U  c #F9CF46",
"Y  c #F5CC46",
"T  c #CCAA3D",
"R  c #726025",
"E  c #1F1A0C",
"W  c #594B1E",
"Q  c #F0C845",
"!  c #F7CE47",
"~  c #D4B240",
"^  c #7E6A29",
"/  c #27210F",
"(  c #020202",
")  c #7C6828",
"_  c #DDB842",
"`  c #8C752D",
"'  c #302912",
"]  c #040404",
"[  c #040403",
"{  c #91792D",
"}  c #E0BB41",
"|  c #977F2F",
" . c #070604",
".. c #000101",
"X. c #060503",
"o. c #977E2E",
"O. c #F5CB46",
"+. c #9E8431",
"@. c #201B0F",
"#. c #000003",
"$. c #040302",
"%. c #8E772C",
"&. c #B39637",
"*. c #52451D",
"=. c #0F0D08",
"-. c #776426",
";. c #E8C244",
":. c #A48A33",
">. c #443917",
",. c #0A0807",
"<. c #000002",
"1. c #EEC644",
"2. c #E1BC43",
"3. c #947D30",
"4. c #362D13",
"5. c #050504",
"6. c #28210F",
"7. c #F8CE47",
"8. c #F8CF47",
"9. c #D9B540",
"0. c #846F2A",
"q. c #2A2311",
"w. c #030204",
"e. c #090704",
"r. c #9A8130",
"t. c #F6CD47",
"y. c #CEAC3E",
"u. c #746226",
"i. c #1D180C",
"p. c #E5BF43",
"a. c #F8CD46",
"s. c #ECC646",
"d. c #584A1F",
"f. c #0B0906",
"g. c #967D2F",
"h. c #B99B39",
"j. c #1D180B",
"k. c #2A2310",
"l. c #C3A33B",
"z. c #DBB741",
"x. c #463C19",
"c. c #423817",
"v. c #CFAE3F",
"b. c #F8D048",
"n. c #E2BC43",
"m. c #605120",
"M. c #020102",
"N. c #413617",
"B. c #C1A33B",
"V. c #D5B340",
"C. c #5C4D1E",
"Z. c #060505",
"A. c #917A2E",
"S. c #E9C244",
"D. c #A78C33",
"F. c #030202",
"G. c #090805",
"H. c #3B3215",
"J. c #85702A",
"K. c #BB9E39",
"L. c #D8B440",
"P. c #E4BF43",
"I. c #E6C043",
"U. c #DCB841",
"Y. c #C4A43B",
"T. c #937B2E",
"R. c #4B3F1A",
"E. c #110E07",
"W. c #030302",
"Q. c #131108",
"!. c #3A3114",
"~. c #3C3214",
"^. c #2F2811",
"/. c #18150A",
"(. c white",
/* pixels */
"                                                            ",
"                      . X X X X X X .                       ",
"                  . . o O + @ # $ % & . .                   ",
"                . * = - ; : > > , < 1 2 3 . .               ",
"            . 4 5 6 7 8 8 9 0 0 0 q w e r t y .             ",
"          . u i p q 0 a a a a a a a a s d f g h .           ",
"          j k l q a a a a a a a a a a a a q z x c .         ",
"        . v b 8 a a a a a a a a a a a a a a 9 n m M         ",
"      . N B q a a a a a a a a a a a a a a a a 8 V C X       ",
"      . Z A 0 a a a a a a a a a a a a a a a 0 w S D .       ",
"    . F G w a a a a a a a a a a a a a a a 8 H J K L         ",
"    X P I U a a a a a a a a a a a a a q Y T R E . .         ",
"    X W Q 0 a a a a a a a a a a a q ! ~ ^ / ( X             ",
"    M ) ! a a a a a a a a a a 0 q _ ` ' ] X                 ",
"    [ { w a a a a a a a a a a } | 5  ..                     ",
"  ..X.o.w a a a a a a a a a O.+.@.#..                       ",
"    $.%.w a a a a a a a a a a 7 &.*.=.. M                   ",
"    . -.a a a a a a a a a a a 0 q ;.:.>.,.<.                ",
"    . *.1.0 a a a a a a a a a a a 0 q 2.3.4.5..             ",
"    X 6.b U a a a a a a a a a a a a a 7.8.9.0.q.w.X         ",
"    . e.r.q a a a a a a a a a a a a a a a q t.y.u.i.        ",
"      X $ p.9 a a a a a a a a a a a a a a a a.w s.d..       ",
"      . f.g.7.a a a a a a a a a a a a a a a a q h.j..       ",
"        . k.l.q a a a a a a a a a a a a a a q z.x..         ",
"          . c.v.b.a a a a a a a a a a a a q n.m.[           ",
"            M.N.B.! 9 a a a a a a a a 0 q V.C.Z..           ",
"              . C A.l 7.w U 0 0 9 8 q S.D.v F..             ",
"                X G.H.J.K.L.P.I.U.Y.T.R.E..                 ",
"                  . X W.Q.% !.~.^./.X.. .                   ",
"                        . X X X X X .                       "
};
