/* XPM */
static char *result[] = {
/* columns rows colors chars-per-pixel */
"30 30 171 2 ",
"   c #010101",
".  c #000101",
"X  c #000001",
"o  c black",
"O  c #040302",
"+  c #060503",
"@  c #050403",
"#  c #010102",
"$  c #090704",
"%  c #27210F",
"&  c #52441D",
"*  c #776426",
"=  c #8D762C",
"-  c #977F2F",
";  c #91792D",
":  c #7C6827",
">  c #594B1E",
",  c #2F2812",
"<  c #0C0A06",
"1  c #0B0906",
"2  c #463B18",
"3  c #998130",
"4  c #D3B03F",
"5  c #EEC644",
"6  c #F7CE47",
"7  c #F9CF47",
"8  c #FAD047",
"9  c #F0C845",
"0  c #DAB641",
"q  c #A58A33",
"w  c #54471D",
"e  c #120F08",
"r  c #2A2310",
"t  c #967E2E",
"y  c #E4BF43",
"u  c #FACF46",
"i  c #F8CE46",
"p  c #F7CD46",
"a  c #F9CE46",
"s  c #EBC445",
"d  c #A88C34",
"f  c #3A3115",
"g  c #020202",
"h  c #020102",
"j  c #423717",
"k  c #C3A43B",
"l  c #F8CF47",
"z  c #57491D",
"x  c #050404",
"c  c #403617",
"v  c #CFAE3F",
"b  c #F8D048",
"n  c #DFBA41",
"m  c #594A1F",
"M  c #28220F",
"N  c #C1A13A",
"B  c #FACF47",
"V  c #D4B13F",
"C  c #3B3115",
"Z  c #090805",
"A  c #90792E",
"S  c #A98E34",
"D  c #120F09",
"F  c #3C3315",
"G  c #DFBB42",
"H  c #F8CE47",
"J  c #54471C",
"K  c #85702A",
"L  c #A08631",
"P  c #090804",
"I  c #141108",
"U  c #BB9D39",
"Y  c #F9D047",
"T  c #F9CF46",
"R  c #D0AE3E",
"E  c #231E0D",
"W  c #D8B440",
"Q  c #E6C144",
"!  c #403616",
"~  c #3B3214",
"^  c #E5C043",
"/  c #F5CB46",
"(  c #EEC745",
")  c #52451A",
"_  c #3C3314",
"`  c #E6C043",
"'  c #ECC444",
"]  c #9F8431",
"[  c #E1BC42",
"{  c #EFC845",
"}  c #54471B",
"|  c #2E2710",
" . c #DCB841",
".. c #B39637",
"X. c #201B0F",
"o. c #977E2F",
"O. c #E9C344",
"+. c #463B17",
"@. c #18150A",
"#. c #C4A43A",
"$. c #E8C244",
"%. c #52451D",
"&. c #000002",
"*. c #D7B440",
"=. c #2A230F",
"-. c #937B2E",
";. c #A48A33",
":. c #0F0D08",
">. c #080606",
",. c #8D762D",
"<. c #AD9135",
"1. c #0E0C06",
"2. c #4B3F1A",
"3. c #E2BC42",
"4. c #443918",
"5. c #302911",
"6. c #D4B240",
"7. c #F1C947",
"8. c #645421",
"9. c #110E07",
"0. c #A68C33",
"q. c #947D2F",
"w. c #090806",
"e. c #040304",
"r. c #7E6A29",
"t. c #F5CC46",
"y. c #F9D048",
"u. c #BD9E3A",
"i. c #1C180A",
"p. c #3B3215",
"a. c #D5B23F",
"s. c #D9B540",
"d. c #372E13",
"f. c #28210E",
"g. c #CCAA3C",
"h. c #E3BF43",
"j. c #51441D",
"k. c gray1",
"l. c #5B4D1E",
"z. c #E2BD43",
"x. c #F5CD47",
"c. c #836F2B",
"v. c #060505",
"b. c #715E24",
"n. c #F3CA46",
"m. c #ECC545",
"M. c #756327",
"N. c #070605",
"B. c #060504",
"V. c #605120",
"C. c #DBB741",
"Z. c #CFAD3E",
"A. c #2A2410",
"S. c #1F1A0C",
"D. c #786628",
"F. c #0D0B06",
"G. c #B99B39",
"H. c #ECC646",
"J. c #746126",
"K. c #030204",
"L. c #635420",
"P. c #EBC546",
"I. c #C8A73C",
"U. c #594B1F",
"Y. c #1D180C",
"T. c #594B20",
"R. c #17140A",
"E. c #5E4F21",
"W. c #27210E",
"Q. c #010103",
"!. c white",
/* pixels */
"                                                            ",
"                            .                               ",
"                  X o X X O + @ # o X X                     ",
"              X o $ % & * = - ; : > , < X X                 ",
"            o 1 2 3 4 5 6 7 8 8 6 9 0 q w e X               ",
"          X r t y 7 u i i p p p p i a 7 s d f g X           ",
"        h j k 6 l p p p p p p p p p p p i 7 4 z x X         ",
"      X c v b p p p p p p p p p p p p p p p 8 n m g         ",
"    o M N 7 p p p p p p p p p p p p p p p p p B V C X       ",
"  X Z A 6 p p p p p p p p p p p p p p p p p p p 7 S D X     ",
"  o F G H p p p p p p p p p p p p p p p p p p p H s J X     ",
"  O K 6 p p p p p p p p p p p p p p p p p p p p p B L P X   ",
"X I U Y p p p p p p p p p p p p p p p p p p p p p T R E o   ",
"o r W 7 p p p p p p p p p p p p p p p p p p p p p i Q ! o   ",
"o ~ ^ i p p p p p p p p p p / p p p p p p p p p p i ( ) o   ",
"o _ ` i p p p p p p p p i ' ] [ i p p p p p p p p i { } o   ",
"o |  .a p p p p p p p p 7 ..X.o.l p p p p p p p p i O.+.o   ",
"o @.#.8 p p p p p p p i $.%.&.f  .T p p p p p p p 7 *.=.o   ",
"X + -.7 p p p p p p p 7 ;.:.X >.,.6 p p p p p p p 8 <.1.X   ",
"  X 2.$.i p p p p p a 3.4.X   X 5.6.7 p p p p p i 7.8.X     ",
"  X 9.0.7 p p p p p H q.w.X     e.r.t.p p p p p y.u.i.o     ",
"    X p.a.7 p p p l s.d.X       X f.g.7 p p p 7 h.j.X       ",
"      k.l.z.7 p p x.c.v.          g b.n.i p T m.M.N.X       ",
"      X B.V.C.7 8 Z.A.X           X S.N 8 8 ` D.F.X         ",
"        X O 2 G.H.J.K.              X L.P.I.U.w.X           ",
"            X Y.T.Y.X               o R.E.W.Q.X             ",
"              X X                       X o                 ",
"                                                            ",
"                                                            ",
"                                                            "
};
