/* XPM */
static char *result[] = {
/* columns rows colors chars-per-pixel */
"30 30 173 2 ",
"   c #010101",
".  c #000001",
"X  c #000002",
"o  c #010102",
"O  c #000102",
"+  c #28210F",
"@  c #5E4F21",
"#  c #16130B",
"$  c #1C180D",
"%  c #584A20",
"&  c #1D180C",
"*  c #090707",
"=  c #5A4B1F",
"-  c #C8A73D",
";  c #EBC445",
":  c #635421",
">  c #020205",
",  c #746226",
"<  c #ECC646",
"1  c #B99A39",
"2  c #463A1A",
"3  c #040304",
"4  c #0D0B08",
"5  c #786628",
"6  c #E6C044",
"7  c #FACF47",
"8  c #C1A23A",
"9  c #1F1A0C",
"0  c #2A2310",
"q  c #CEAC3E",
"w  c #F9CF47",
"e  c #DBB741",
"r  c #605120",
"t  c #060505",
"y  c #010001",
"u  c #070605",
"i  c #756327",
"p  c #ECC545",
"a  c #F9CE46",
"s  c #F7CD46",
"d  c #F8CD46",
"f  c #F3CA46",
"g  c #715F25",
"h  c #020203",
"j  c #050405",
"k  c #846F2A",
"l  c #F6CD47",
"z  c #E2BC43",
"x  c #5B4D20",
"c  c #51441C",
"v  c #E3BE43",
"b  c #F9CF46",
"n  c #CBAA3D",
"m  c #272110",
"M  c #362D14",
"N  c #D9B640",
"B  c #D5B240",
"V  c #3B3215",
"C  c #1C180C",
"Z  c #BD9E3A",
"A  c #F9D047",
"S  c #F6CC46",
"D  c #7F6A29",
"F  c #090807",
"G  c #957D2F",
"H  c #F8CE47",
"J  c #A68C33",
"K  c #100E08",
"L  c #645422",
"P  c #F1C946",
"I  c #F8CE46",
"U  c #D5B13F",
"Y  c #302812",
"T  c #443918",
"R  c #E1BC42",
"E  c #E8C244",
"W  c #4B3F1B",
"Q  c #0E0C06",
"!  c #AC9035",
"~  c #FAD047",
"^  c #F7CD47",
"/  c #8C752D",
"(  c #070506",
")  c #0F0C09",
"_  c #A48A33",
"`  c #937B2E",
"'  c #060503",
"]  c #29230F",
"[  c #D7B440",
"{  c #DDB841",
"}  c #3B3115",
"|  c #000003",
" . c #52451D",
".. c #C4A43A",
"X. c #181409",
"o. c #463A17",
"O. c #E9C344",
"+. c #987F30",
"@. c #201A0F",
"#. c #B29638",
"$. c #DCB840",
"%. c #2E2711",
"&. c black",
"*. c #54471A",
"=. c #EFC745",
"-. c #E1BB42",
";. c #9E8431",
":. c #EBC444",
">. c #E5BF43",
",. c #3C3213",
"<. c #52451A",
"1. c #F5CB46",
"2. c #E4BE42",
"3. c #3A3113",
"4. c #403616",
"5. c #E6C143",
"6. c #D9B540",
"7. c #231D0D",
"8. c #D1AE3E",
"9. c #BB9D38",
"0. c #141108",
"q. c #090805",
"w. c #A08531",
"e. c gray1",
"r. c #54461C",
"t. c #DFBB42",
"y. c #3C3216",
"u. c #120F09",
"i. c #A98E34",
"p. c #F7CE47",
"a. c #90792E",
"s. c #090806",
"d. c #3A3115",
"f. c #D4B23F",
"g. c #C1A23B",
"h. c #28220F",
"j. c #584A1F",
"k. c #DFBA42",
"l. c #CEAE3F",
"z. c #403618",
"x. c #57491E",
"c. c #D3B13F",
"v. c #C3A43B",
"b. c #413718",
"n. c #010103",
"m. c #020204",
"M. c #393015",
"N. c #A88C34",
"B. c #E4BF43",
"V. c #967D2F",
"C. c #2A2311",
"Z. c #110F08",
"A. c #55471D",
"S. c #A68B33",
"D. c #D9B641",
"F. c #F0C845",
"G. c #EEC645",
"H. c #9A8130",
"J. c #473B19",
"K. c #0B0906",
"L. c #0C0A07",
"P. c #2E2712",
"I. c #594B1F",
"U. c #7C6827",
"Y. c #91782C",
"T. c #977E2F",
"R. c #8E762B",
"E. c #786326",
"W. c #53451D",
"Q. c #080705",
"!. c #040303",
"~. c #000101",
"^. c white",
/* pixels */
"                                                            ",
"                                                            ",
"                                                            ",
"                . X o                   O X .               ",
"            X o + @ # .               X $ % & .             ",
"          X * = - ; : X               > , < 1 2 3 .         ",
"        . 4 5 6 7 7 8 9 .           X 0 q 7 w e r t .       ",
"      y u i p a s d f g h         X j k l s s w z x h       ",
"      X c v b s s s w n m .       X M N w s s s w B V .     ",
"    . C Z A s s s s s S D 3     X F G H s s s s s w J K X   ",
"    X L P I s s s s s w U Y X   X T R I s s s s s I E W .   ",
"  . Q ! ~ s s s s s s s ^ / ( X ) _ w s s s s s s s w ` ' . ",
"  . ] [ b s s s s s s s a { } |  .E I s s s s s s s 7 ..X.. ",
"  . o.O.I s s s s s s s s H +.@.#.w s s s s s s s s a $.%.. ",
"  &.*.=.I s s s s s s s s I -.;.:.I s s s s s s s s I >.,.&.",
"  &.<.=.I s s s s s s s s s s 1.s s s s s s s s s s I 2.3.&.",
"  . 4.5.I s s s s s s s s s s s s s s s s s s s s s b 6.0 . ",
"  &.7.8.w s s s s s s s s s s s s s s s s s s s s s ~ 9.0.. ",
"  . q.w.7 s s s s s s s s s s s s s s s s s s s s s H k e.  ",
"    X r.:.I s s s s s s s s s s s s s s s s s s s a t.y..   ",
"    . u.i.w s s s s s s s s s s s s s s s s s s s p.a.s..   ",
"      . d.f.7 s s s s s s s s s s s s s s s s s w g.h..     ",
"        h j.k.7 s s s s s s s s s s s s s s s w l.z.X       ",
"        . j x.c.7 I s s s s s s s s s s s a H v.b.n.        ",
"          X m.M.N.:.7 b I s s s s s I w w B.V.C.X           ",
"              . Z.A.S.D.F.H 7 ~ 7 s G.c.H.J.K..             ",
"                . . L.P.I.U.Y.T.R.E.W.m Q.. .               ",
"                    . . X o !.' !.X . . .                   ",
"                              ~.                            ",
"                                                            "
};
