/* XPM */
static char *result[] = {
/* columns rows colors chars-per-pixel */
"60 60 77 1 ",
"  c #010101",
". c #080606",
"X c #0D0A07",
"o c #030208",
"O c #090709",
"+ c #0C0A09",
"@ c #110E0A",
"# c #14110A",
"$ c #1B150D",
"% c #1E190D",
"& c #1C1610",
"* c #1D1810",
"= c #221C0F",
"- c #251E11",
"; c #272011",
": c #2C2412",
"> c #2F2914",
", c #342B14",
"< c #362D18",
"1 c #3C3115",
"2 c #3D3319",
"3 c #443817",
"4 c #423619",
"5 c #443919",
"6 c #493D1B",
"7 c #4E421D",
"8 c #52441D",
"9 c #55481F",
"0 c #5B4D1E",
"q c #544720",
"w c #5D4E21",
"e c #615323",
"r c #6C5A26",
"t c #6D5E29",
"y c #715F27",
"u c #736327",
"i c #746129",
"p c #7A672B",
"a c #7E6B2C",
"s c #826F2E",
"d c #85722D",
"f c #8A772D",
"g c #917D2F",
"h c #8C7530",
"j c #8F7931",
"k c #927C32",
"l c #968033",
"z c #9B8334",
"x c #A18836",
"c c #A48B38",
"v c #AE9439",
"b c #B39639",
"n c #B59A3C",
"m c #B89C3C",
"M c #BCA13F",
"N c #C3A53E",
"B c #D2AE3F",
"V c #C2A440",
"C c #C5A941",
"Z c #CBAB40",
"A c #D0AF42",
"S c #D4B443",
"D c #DAB743",
"F c #DDBB44",
"G c #E2BE45",
"H c #E6C246",
"J c #EBC647",
"K c #EFC947",
"L c #EECA48",
"P c #F7CD46",
"I c #F8CE46",
"U c #F4CD48",
"Y c #F9CF48",
"T c #F7D047",
"R c #F9D047",
"E c #F7D048",
"W c #F9D048",
/* pixels */
"                                                            ",
"                                                            ",
"                                                            ",
"                                                            ",
"                                                            ",
"                        @>8udggjae2%.                       ",
"                    o+5dMFKTRRIIUUJZze-o                    ",
"                   #wnJYIIIIIIIIPPIYYUZd:                   ",
"                 .6nUIPPIIPPPPPPPPPPPPIYSp&                 ",
"               o$dHPPPPPPIPIPPPPPPPPPPPPUUm5o               ",
"               >bTIPPPPPPPPPPPPPPPPPPPPPURYDe+              ",
"             o2ZTPPPPPPPPPPPPPPPPPPPPPPPPPYUJp+             ",
"           o 2AWPPPPPPPPPPPPPPPPIPPPPPPPPPPIPKa+            ",
"            :CYPPPPPPPPPPPPPPPPPPPPPPPPPPPPPPIJtoo          ",
"           $vYPIPPPPPPPPPPPPPPPPPPPPPPPPPPPPPPPHq           ",
"          OdUYPPPPPPPPPPPPPPPPPPPPPPPPPPPPPPPPPIC-          ",
"          6GPPIPPPPPPPPPPPPPPPPPPPPPPPPPPPPPPPPIEj+         ",
"         @bIPIPPPPPPPPPPPPPPPPPPPPPPPPPPPPPPPPPPYH6         ",
"         wUPPPPPPPPPPPPPPPPPPPPPPPPPPPPPPPPPPPPPUYv+        ",
"        @mIIPPPPPPPPPPPIPPPPPPPPPPPPPPPPPPPPPPIPIUM-        ",
"        7KIIPPPPPPPPPPPPPPPPPPPPPPPPPPPPPPPPIPIISu-         ",
"      ookWPPPPPPPPPPPPPPPPPPPPPIPPPPPPPPPPPIIYDs-           ",
"       %SPPPPPPPPPPPPPPPPPPPPPPPPPPPPPPPPIIYGg,o            ",
"       7KPIPPPPPPPPPPPPPPPPPPPPPPPPPPPPPPIGx4o              ",
"       sIIPPPPPPPPPPPPPPPPPPPPPPPPPPPPUYJv6+                ",
"      +vIPPPPPPPPPPPPPPPPPPPPPPPPPPPPYUmq+                  ",
"      $ZIPPPPPPPPPPPPPPPPPPPPPPPPPYYUVe#o                   ",
"      :GIPPPPIPPPPPPPPPPPPPPPPPPPYYZy$                      ",
"      ,KIPPPPPPPPPPIPPPPPPPPPPPPUDa- o                      ",
"      6KIPPPPPPPPPPPPPPPPPPPPPIFh:                          ",
"      6PPPPPPPPPPPPPPPPPPPPPPPb, oo                         ",
"      6KPPPPPPPPPPPPPPPPIPPPPIBy&o o                        ",
"      3KPPPPPPPPPPPPPPPPPPPPPPIUNe@ o                       ",
"      ,HIPPPPPPPPPPPPPPPPPPPPPPPPKn7+   o                   ",
"      -FIPPPPPPPPPPPPPPPPPPPPPPPPPYJc4.                     ",
"      #NIIPPPPPPPPPPPPPPPPPPPPPPPPPUEHk,oo o                ",
"      oxIPPPPPPPPPPPPPPPPPPPPPPPPPPPPPEDs-                  ",
"      oiIPPPPPPPPPPPPPPPPPPPPPPPPPPPPPPWUSi$ o              ",
"       2HIPPPPPPPPPPPPPPPPPPPPPPPPPPPPPPUYUNe@ oo           ",
"       #NIPPPPPPPPPPPPPPPPPPPPPPPPPPPPPPIIPYUn8+            ",
"        sPPPPPPPPPPPPPIPPPPPPPPPPPPPPPPPIPPPPYJc4O          ",
"        ,GIPPPPPPPPPPPPPPPPPPPPPPPPPPPPPPPPPPPIWHl<.        ",
"        .zWIPPPPPPPPPPPPPPPIPPPPPPPPPPPPPPPPPPIPUWC*        ",
"         2GIPPPPPPPPPPPPPPPPPPPPPPPPPPPPPPPPIPPPYUjo        ",
"         okWPPPPPPPPPPPPPPPPPPPPPPPPPPPPPPPPPPPPIS:         ",
"          ;ZIIPPPPPPPPPPPPPPPPPPPPPPPPPPPPPPPPPPLt          ",
"          oqJPPPPPPPPPPPPPPPPPPPPPPPPPIPPPPPPPPIc+          ",
"           +aUPPPPPPPPPPPPPPPPPPPPPPPPPPPPPPPPIC>           ",
"            #zEUUUPPPPPPPPPPPPPPPPPPPPPPPPPPPYS2            ",
"             %cUPIPPPPPPPPIPPPPPPPPPPPPPPPPPUD6             ",
"              &zUTTPPPPPPPPPPPPPPPPPPPPPPPYEZ6oo            ",
"               +aHIPPPPPPPPPPPPPPPPPPPPPPIUm,               ",
"                OqCYPIPPPPPPPPPPPPPPPPPPYHd*                ",
"                  -sDUWPPPPPPPPPPPPPPIIKv5o                 ",
"                   o:aZKTRIPPPPPIIIWYFz8@                   ",
"                      $7fMBHKUUUJFZzr:O                     ",
"                         X=179085>#.                        ",
"                                                            ",
"                                                            ",
"                                                            "
};
