/* XPM */
static char *result[] = {
/* columns rows colors chars-per-pixel */
"60 60 77 1 ",
"  c #010101",
". c #080606",
"X c #0D0A07",
"o c #030208",
"O c #090709",
"+ c #0C0A09",
"@ c #110E0A",
"# c #14110A",
"$ c #1B150D",
"% c #1E190D",
"& c #1C1610",
"* c #221C0F",
"= c #251E11",
"- c #272011",
"; c #2C2412",
": c #2F2914",
"> c #342B14",
", c #362D18",
"< c #3C3115",
"1 c #3D3319",
"2 c #443817",
"3 c #423619",
"4 c #443919",
"5 c #493D1B",
"6 c #4E421D",
"7 c #52441D",
"8 c #55481F",
"9 c #5B4D1E",
"0 c #5D4E21",
"q c #615323",
"w c #6C5A26",
"e c #6D5E29",
"r c #715F27",
"t c #736327",
"y c #7A672B",
"u c #7E6B2C",
"i c #826F2E",
"p c #85722D",
"a c #8A772D",
"s c #917D2F",
"d c #8F7931",
"f c #927C32",
"g c #968033",
"h c #9B8334",
"j c #A08733",
"k c #A18836",
"l c #A48B38",
"z c #AE9439",
"x c #B39639",
"c c #B59A3C",
"v c #B89C3C",
"b c #BCA13F",
"n c #C3A53E",
"m c #C7A93F",
"M c #CBAB3F",
"N c #D2AE3F",
"B c #C2A440",
"V c #C5A941",
"C c #CBAB40",
"Z c #D0AF42",
"A c #CFB142",
"S c #D4B443",
"D c #DAB743",
"F c #DDBB44",
"G c #E2BE45",
"H c #E6C246",
"J c #EBC647",
"K c #EFC947",
"L c #EECA48",
"P c #F7CD46",
"I c #F8CE46",
"U c #F4CD48",
"Y c #F9CF48",
"T c #F7D047",
"R c #F9D047",
"E c #F7D048",
"W c #F9D048",
/* pixels */
"                                                            ",
"                                                            ",
"                                 o                          ",
"                         $;47996<*X                         ",
"                  o  O;wjMNJUUUKJNba6$oo                    ",
"                   @6hFYRRRPPPPPPIRRJmu;o                   ",
"                 .4zKYIPRTPPPPPPPPPPIIYDi%o                 ",
"               o%pHTYPPPPPPPPPPPPPPPPIPPYm8.                ",
"               ,vPPPPPPPPPPPPPPPPPPPPPPPPRHu@               ",
"            o 4CIPPPPPPPPPPPPPPPPPPPPPPPPPTLf$o             ",
"            o6DIPPPPPPPPPPPPPPPPPPPPPPPPPPPPYl$             ",
"            1SYPPPPPPPPPPPPPPPPPPPPPPPPPPPPUYYh@o           ",
"          o-VIPPPPPPPPPPPPPPPPPPPPPPPPPPPPPPPPPi.           ",
"          @lYPPPPPPPPPPPPPPPPPPPPPPPPPPPPPPPPPPH9o          ",
"          wLPPPPPPPPPPPPPPPPPPPPPPPPPPPPPPPPPPPIC-          ",
"        o;SPPPPPPPPPPPPPPPPPPPPPPPPPPPPPPPPPPPPPYd.o        ",
"        OdYPPPPPPPPPPPPPPPPPPPPIPPPPPPPPPPPIPIPPIG1         ",
"        &VEPPPPPPPPPPPPPPPPPPPPPPPPPPPPPPPPPPPPPPYh.        ",
"        o,gHIPPPPPPPPPPPPPPPPPPPPPPPPPPPPPPPPPPPPIG,        ",
"          .4lJPPPPPPPPPPPPPPPPPPPPPPPPPPPPPPPPPPPPEu        ",
"         oo X7cURPIPPPPPPPPPPPPPPPPPPPPPPPPPPPPPPPRn#       ",
"           oo @qnURPPPPPPPPPPPPPPPPPPPPPPPPPPPPPPPPH<oo     ",
"              o %rSPIPPPPPPPPPPPPPPPPPPPPPPPPPPPPPPYto      ",
"               o o*iDEIPPPPPPPPPPPPPPPPPPPPPPPPPPPPRk.      ",
"                   o>fGYPPPPPPPPPPPPPPPPPPPPPPPPPPPIn#      ",
"                 o ooO3lJRPPPPPPPPPPPPPPPPPPPPPPPPPIF*      ",
"                       +6xLWPPPPPPPPPPPPPPPPPPPPPPPIH>      ",
"                       oo#0BLWPPPPPPPPPPPPPPPPPPPPPPK2      ",
"                        o o&eNPPPPPPPPPPPPPPPPPPPPPPK5.     ",
"                         o .,xRPPPPPPPPPPPPPPPPPPPPPU5      ",
"                          ;aFIPPPPPPPPPPPPPPPPPPPPPPJ5      ",
"                     oo.*uSIIPPPPPPPPPPPPPPPPPPPPPPPJ<      ",
"                      $rCIYPIPPPPPPPPPPPPPPPPPPPPPPIG;      ",
"                   o#qnUYIPPPPPPPPPPPPPPPPPPPPPPPPPIM$      ",
"                oo@8vLIPPPPPPPPPPPPPPPPPPPPPPPPPPPPRz.o     ",
"                .5zJYIIPPPPPPPPPPPPPPPPPPPPPPPPPPPPIp       ",
"            oo.<hHRIPPPPPPPPPPPPPPPPPPPPPPPPPPPPPPPJ6       ",
"             >sGIIIIPPPPPPPPPPPPPPPPPPPPPPPPPPPPPPIS%o      ",
"         oo-pDTPPPPPPIPPPPPPPPPPPPPPPPPPPPPPPPPPIPRf.o      ",
"        o%tAPTPPPPPPPPPPPPPPPPPPPPPPPPPPPPPPPPPPIIJ6        ",
"        =vYPPPPPPPPPPPPPPPPPPPPPPPPPPPPPPPPPPPPPPIv@        ",
"        +zWPPPPPPPPPPPPPPPPPPPPPPPPPPPPPPPPPPPPPIL0o        ",
"        o5HPPPPPPPPPPPPPPPPPPPPPPPPPPPPPPPPPPPPPYx#         ",
"         .fYPPPPPPPPPPPPPPPPPPPIPPPPPPPPPPPPPIPIH4          ",
"          =VIPPPPPPPPPIPPPPPPPPPPPPPPPPPPPPPPPPPi           ",
"          o7HPPPPPPPPPPPPPPPPPPPPPPPPPPPPPPIIPPx$o          ",
"          ooeJIPPPPPPPPPPPPPPPPPPPPPPPPPPPIPPYV;            ",
"           o+uKPIPPPPPPPPPPPPPPPPPPPPPPPPPPIYZ<oo           ",
"           o +uHRPPPPPPPPPPPPPPPPPPPPPPPPPPTC1o  o          ",
"            o .qFRPPPPPPPPPPPPPPPPPPPPPPPRPx:o              ",
"               o1bUTPPPPPPPPPPPPPPPPIIPPWHp$                ",
"                o$ySPTPPPPPPPPPPPPPPPIIKc5. o               ",
"                  o;pAUWIPPPIIIIPPIRYHv0#                   ",
"                    o%0kAJUPIRRRTKGbp3@ o                   ",
"                    o  .$1quasspr7;#o                       ",
"                                                            ",
"                                                            ",
"                                                            ",
"                                                            ",
"                                                            "
};
