/* XPM */
static char *cmVkX3JpZ2h0[] = {
/* columns rows colors chars-per-pixel */
"30 30 104 2 ",
"   c #000000",
".  c #0A0303",
"X  c #0F0808",
"o  c #130506",
"O  c #110909",
"+  c #27080A",
"@  c #2C0A0C",
"#  c #350B0D",
"$  c #3C0C0E",
"%  c #351013",
"&  c #3A1416",
"*  c #39181A",
"=  c #430D0F",
"-  c #4A0D0F",
";  c #440E10",
":  c #4C0E11",
">  c #441112",
",  c #4F1013",
"<  c #501013",
"1  c #501518",
"2  c #54191C",
"3  c #631115",
"4  c #6D1215",
"5  c #721317",
"6  c #701319",
"7  c #7D141A",
"8  c #5D1D21",
"9  c #642225",
"0  c #672428",
"q  c #83161C",
"w  c #8D161C",
"e  c #AE171E",
"r  c #921C21",
"t  c #A31C23",
"y  c #B71A20",
"u  c #BB1B22",
"i  c #84292D",
"p  c #982F33",
"a  c #AA252B",
"s  c #B12A32",
"d  c #C31C23",
"f  c #CB1A23",
"g  c #D51C24",
"h  c #DB1D25",
"j  c #EB1723",
"k  c #E41C25",
"l  c #EC1A25",
"z  c #E41E28",
"x  c #EC1E29",
"c  c #F11B26",
"v  c #C9232B",
"b  c #D1252D",
"n  c #DA242C",
"m  c #DE2932",
"M  c #E5252D",
"N  c #EA222B",
"B  c #E92731",
"V  c #E72E37",
"C  c #E92933",
"Z  c #E62F38",
"A  c #E63F47",
"S  c #E9444B",
"D  c #E7555C",
"F  c #EB5E63",
"G  c #E96C72",
"H  c #EA7075",
"J  c #E97A7D",
"K  c #013986",
"L  c #0A3E87",
"P  c #1D4D8E",
"I  c #2A5692",
"U  c #335B95",
"Y  c #3C639A",
"T  c #4B72A3",
"R  c #6683AD",
"E  c #6988B0",
"W  c #9C8CA5",
"Q  c #DD8088",
"!  c #C38895",
"~  c #CC9BA5",
"^  c #EEADAF",
"/  c #F0A6A7",
"(  c #F1B2B5",
")  c #F3B5B8",
"_  c #F1BBBC",
"`  c #8CA2C1",
"'  c #AEBED2",
"]  c #E9C9CB",
"[  c #F3CBCC",
"{  c #F4CDD0",
"}  c #E7DCDE",
"|  c #F2D0D1",
" . c #E2ECEF",
".. c #F5E5E3",
"X. c #E0EAF0",
"o. c #E3EDF3",
"O. c #EEF1F4",
"+. c #F9F3F2",
"@. c #F9F4F2",
"#. c #FAFBFA",
"$. c #FAFCF9",
"%. c #FAFFFF",
"&. c #FEFEFC",
"*. c #FCFFFF",
/* pixels */
"                                                            ",
"                    X * 0 i p p i 0 * O                     ",
"                O 9 s M N c x x c B m s 8 O                 ",
"              & s N c c c l x c l l j c N a %               ",
"            2 b c l l l l l l l l l l l l c b 1             ",
"          2 n c l l l l l l l l l l l l l l c n 1           ",
"        % v c l l l l l l l l l l l l l l l l l v @         ",
"      . a l l l l l l l l l l l l l l l l l l l x r .       ",
"      > k j N M x j l l l l l l k B N l l l l l c h %       ",
"      r c F ( [ ^ D l l l l j S / [ ) G N j l l l c q       ",
"    o d F } o.%.%...D l l c A ]  .#.*.+.J x l l l c u o     ",
"    # n ~ T U ' %.%.^ x l l Q E I ` #.*.[ V l l l l g +     ",
"    ; Z W L K R #.%.[ C j x ! P K Y O.*...A j l l l k #     ",
"    ; M ~ T U ' *.*.^ x l l Q E I ` $.$.| V l l l l k $     ",
"    : j F }  .*.*...D j j l S ] o.$.*.@.J k l l l l k $     ",
"    - k x F ) { ( D l l l l l S / [ _ H N l j l l l k =     ",
"    - l l l N B z l l l l l l l x C B j l l l l l l k =     ",
"    < x l l l l l l l l l l l j l l j l l l l l l l k $     ",
"    < k l j l l l l l l l l l l l l l l l l l l l l k =     ",
"    < k l l l l l l l l l l j l l l l l l l l l l l k =     ",
"    - c l j l l l l l l l l l l x j l l l l l l l l k =     ",
"    < k l l l l l l l l l l l l j j l l l l l l l l k =     ",
"    - c l l l l l l l l l l l l x l l l l l l l l l k =     ",
"    - k l l j l l l l l l l l l l l l l l l l l l l k ;     ",
"    1 N l l l c l l l l l l l c j x l l l l c j l l z ;     ",
"    - k l l f e k l l l l k e e z j l l l f y g l l j ;     ",
"    - N x y @ . 5 k c l k 7 . . 7 x c j d % . , g l z ;     ",
"    $ M d #     . w l x w .     o t c h ;       : g h @     ",
"    o 6 #         o 4 5 o         + 7 :           : 3 .     ",
"                                                            "
};
