/* XPM */
static char *cmVkX2xlZnQu[] = {
/* columns rows colors chars-per-pixel */
"30 30 215 2 ",
"   c #010302",
".  c #0C0001",
"X  c #000A02",
"o  c #00030C",
"O  c #0B000B",
"+  c #01090A",
"@  c #140001",
"#  c #1C0000",
"$  c #130009",
"%  c #1A0709",
"&  c #001200",
"*  c #00120B",
"=  c #040011",
"-  c #040A16",
";  c #240000",
":  c #2C0000",
">  c #330000",
",  c #3D0001",
"<  c #390A00",
"1  c #102D36",
"2  c #253439",
"3  c #430000",
"4  c #4B0708",
"5  c #530201",
"6  c #5D0202",
"7  c #56000B",
"8  c #5F030B",
"9  c #590908",
"0  c #44110B",
"q  c #420E11",
"w  c #580B12",
"e  c #551F1D",
"r  c #620104",
"t  c #6A0002",
"y  c #640109",
"u  c #6C010A",
"i  c #690B0D",
"p  c #710809",
"a  c #65120D",
"s  c #6B0918",
"d  c #621916",
"f  c #771A1C",
"g  c #67201E",
"h  c #770C20",
"j  c #771823",
"k  c #572A25",
"l  c #662525",
"z  c #7F262A",
"x  c #2E3D42",
"c  c #383A4C",
"v  c #334049",
"b  c #38565E",
"n  c #615561",
"m  c #636166",
"M  c #4C7273",
"N  c #8A161C",
"B  c #900D15",
"V  c #AD111C",
"C  c #B5181A",
"Z  c #AA1222",
"A  c #BB1B28",
"S  c #9E2024",
"D  c #832E3B",
"F  c #992833",
"G  c #833535",
"H  c #AF272A",
"J  c #A92A38",
"K  c #B92933",
"L  c #A93438",
"P  c #B8393B",
"I  c #B7252F",
"U  c #DB131A",
"Y  c #D91D1C",
"T  c #E50C19",
"R  c #E51C16",
"E  c #EB141B",
"W  c #E41B1C",
"Q  c #EC1B1C",
"!  c #E6141B",
"~  c #F21917",
"^  c #F3191A",
"/  c #F3161C",
"(  c #CD2117",
")  c #F5211E",
"_  c #C10E24",
"`  c #C2192B",
"'  c #CD1C27",
"]  c #DB1B21",
"[  c #D11D2C",
"{  c #DC1C2D",
"}  c #D81428",
"|  c #D50F30",
" . c #C81833",
".. c #D91C31",
"X. c #E60F23",
"o. c #EB0F27",
"O. c #F40F2D",
"+. c #E61323",
"@. c #EC1624",
"#. c #E31D23",
"$. c #EB1B24",
"%. c #E2162C",
"&. c #EB172C",
"*. c #E41C2B",
"=. c #EB1A2A",
"-. c #F51522",
";. c #F21A22",
":. c #FC1B24",
">. c #F3162B",
",. c #F31A2B",
"<. c #FA1421",
"1. c #E61C31",
"2. c #EC1B34",
"3. c #EC1637",
"4. c #FF1D39",
"5. c #F41A35",
"6. c #C4252D",
"7. c #C42A2C",
"8. c #CC252A",
"9. c #D62224",
"0. c #DC2324",
"q. c #D3222C",
"w. c #DA252C",
"e. c #D3292D",
"r. c #DE2D25",
"t. c #CE2435",
"y. c #C42A35",
"u. c #CC2E34",
"i. c #C22D39",
"p. c #C62431",
"a. c #DA2632",
"s. c #D52B34",
"d. c #DC2932",
"f. c #D92839",
"g. c #C63234",
"h. c #CA3234",
"j. c #C33937",
"k. c #CC333D",
"l. c #C33A39",
"z. c #C93837",
"x. c #D8393D",
"c. c #E32224",
"v. c #E3222B",
"b. c #EC242B",
"n. c #F62228",
"m. c #E52C36",
"M. c #EA263B",
"N. c #E62535",
"B. c #F1213B",
"V. c #EA363F",
"C. c #9F413F",
"Z. c #9B3B42",
"A. c #A23E58",
"S. c #AF3149",
"D. c #C82041",
"F. c #D52D42",
"G. c #CA3442",
"H. c #C63A49",
"J. c #DC3242",
"K. c #CB3854",
"L. c #E83645",
"P. c #EC2D42",
"I. c #9A495A",
"U. c #A24C4F",
"Y. c #BB414C",
"T. c #A04C63",
"R. c #AD6570",
"E. c #CA4447",
"W. c #C44147",
"Q. c #D1444D",
"!. c #CA4454",
"~. c #DC4659",
"^. c #D4505D",
"/. c #DD4462",
"(. c #CC5762",
"). c #E34A68",
"_. c #E87379",
"`. c #9C7F95",
"'. c #8D748A",
"]. c #D46180",
"[. c #FA6F84",
"{. c #A18C95",
"}. c #8A9DA4",
"|. c #94AFB0",
" X c #DE8FA2",
".X c #D191A2",
"XX c #FF8BA0",
"oX c #FF9DA3",
"OX c #E68EA4",
"+X c #D6ACB9",
"@X c #FFA7AC",
"#X c #FFAEB4",
"$X c #FFA7B9",
"%X c #FFB1B4",
"&X c #FFB9BB",
"*X c #FFB4C1",
"=X c #FFBFCC",
"-X c #C2DADA",
";X c #FFCBC8",
":X c #FFCAD8",
">X c #FFD3E9",
",X c #FFDEE4",
"<X c #DBF0E9",
"1X c #FFECEB",
"2X c #FFE6E9",
"3X c #FFE6F2",
"4X c #FFEDF5",
"5X c #FFE2FD",
"6X c #EEFFFD",
"7X c #E4FFFF",
"8X c #FFF5F3",
"9X c #FFF9F4",
"0X c #FFF3FB",
"qX c #FFFBFE",
"wX c #F6FFFF",
/* pixels */
"; @   X   o O O . . . . . @ ; : : @ .   @ @   X   .     @ ; ",
". . +     o O $ @ # ; 0 l G Z.Z.D l q : : ;             @ @ ",
"o - o o + o . @ > d L E.x.e.e.e.j.E.H.I B 3 #       X       ",
"- o + + + . # 4 U.K 7.( ! E ^ n.Y 9.N.M.F.J w # .     X     ",
"O   & X   : f K 7.e.9.b.n.:./ ~ R R T ! N.J.L f ; .     X   ",
".   X   # a j.m.v.b.b.$.E T -.:.Q ^ n.^ @.N.J.S.i :     X   ",
"      @ 5 H m.@.n.@.T +.>.4.5.X.@.Q Y #.,.,.*.' I p #   X X ",
"    . : N s.n.;.@.=.=.2.5.3.3.3.>.,.b.w.%.#.*.m.L.N > . X X ",
"o O ; 7 G...>.>.] e.C ` f.| | 2.O.O.&.1.t.p.y.6.q.i.a @   * ",
"= $ : h F.3.>.>.d.K _.%X&XXX/. .&.4.2._ ^.@X&X%X!.Y.z :   X ",
"O @ , F f.1.>.&.p.(.1X9X0X5X>XS.{ +.{ ~.2X8X8X0X4XR.D , .   ",
". @ 3 S.a.=.@.*.i.,X8X6X}.x {.OXA ] [ #X8X<X-X2 m +XI.3 : @ ",
"&   3 l.0.$.#.a.H.=X0XwXb 1 c .Xz.( 7.#X9X7XM 2 v {.T.7 ; # ",
"&   5 z.] #.W e.G.:X4XqX}.x '. XC r.h.oX9X6X|.v n +XA.s : @ ",
". ; t u.v.$.#.v._ [.3X0XqX4X>XK.w.W } ~.3X4X0X0X5X].S.s #   ",
". : u t.v.$.$.=.M.` _.#X;X#XH.t.v.Q 5.| (.*X:X$X/.D.K.7 @   ",
"O @ r u.v.! $.$.%.*.[ 6.6.8.{ %.*.*.>.;.q.y.y.t.=.*.G.8 . X ",
"= # 6 g.c.Q ;.$.&.=.=.*.#.#.>.,.*.*.-.-.=.*.{ =.<.$.z.8 . X ",
"= @ r u.c.Q n.@.,.,.,.$.$.$.>.>.&.@.^ ^ $.=.>.>.;.#.z.r @ O ",
"o @ r u.c.~ $.#.@.&.;.;.;.$.;.;.>.$.Q Q $.&.>.>.^ 0.l.r # . ",
"X @ 6 g.0.R c.c.$.=.Q Q Q W W #.#.@.~ ^ Q *.=.=.;.0.l.9 @   ",
"  @ 6 g.0.R c.c.*.$.;.^ Q Q #.c.#.Q ~ ~ $.$.*.=.$.9.l.9 @ o ",
"  @ r h.r.W c.v.$.=.<.^ ) W c.*.$.Q ~ ~ ;.@.=.*.$.9.l.y # $ ",
". ; t u.w.] v.{ *.,.-.^ Q c.0.c.$.;.^ / $.%.1.=.*.9.k.u ; @ ",
"# > t k.' w.{ B.B.X.,.n.R ] m.N.0.! :.:.@.%.P.f.3.{ G.u : # ",
"@ ; t y.p.L.I Z  .L.*.U m.d.V Z u.V.T T P.F.Z A a.[ i.u ; $ ",
"X . y G.F.K i 3 5 L f.{ f.B 3 3 p S.a.[ G.N , 6 H G.Y.w @ + ",
"&   7 S.J s ; @ # w L Q.S 5 ; @ < f W.H.j > # ; 7 F U.<   + ",
"&   # e 0 ; . % # # 4 l < @ @ . @ : d g : @ $ . # 0 k ;     ",
"X   . @ @ . . . @ @ @ @ . X       @ # # @ . X   . . @ . X o "
};
