/* XPM */
static char *result[] = {
/* columns rows colors chars-per-pixel */
"30 30 19 1 ",
"  c black",
". c #000001",
"X c #010121",
"o c #020258",
"O c #010179",
"+ c navy",
"@ c #010178",
"# c #020221",
"$ c #01012E",
"% c #01016F",
"& c #01012D",
"* c #000082",
"= c #010177",
"- c #010157",
"; c #010120",
": c #00006F",
"> c #00006E",
", c #01012C",
"< c white",
/* pixels */
" .XoO++++++++++++++++++++@o#. ",
".$%++++++++++++++++++++++++%&.",
"#%*++++++++++++++++++++++++*%#",
"o++++++++++++++++++++++++++++o",
"@++++++++++++++++++++++++++++@",
"++++++++++++++++++++++++++++++",
"++++++++++++++++++++++++++++++",
"++++++++++++++++++++++++++++++",
"++++++++++++++++++++++++++++++",
"++++++++++++++++++++++++++++++",
"++++++++++++++++++++++++++++++",
"++++++++++++++++++++++++++++++",
"++++++++++++++++++++++++++++++",
"++++++++++++++++++++++++++++++",
"++++++++++++++++++++++++++++++",
"++++++++++++++++++++++++++++++",
"++++++++++++++++++++++++++++++",
"++++++++++++++++++++++++++++++",
"++++++++++++++++++++++++++++++",
"++++++++++++++++++++++++++++++",
"++++++++++++++++++++++++++++++",
"++++++++++++++++++++++++++++++",
"++++++++++++++++++++++++++++++",
"++++++++++++++++++++++++++++++",
"++++++++++++++++++++++++++++++",
"=++++++++++++++++++++++++++++=",
"-++++++++++++++++++++++++++++-",
";:*++++++++++++++++++++++++*>;",
".,>++++++++++++++++++++++++:,.",
" .;-@++++++++++++++++++++@o;. "
};
