/* XPM */
static char *result[] = {
/* columns rows colors chars-per-pixel */
"60 60 35 1 ",
"  c #0D0D0D",
". c #131313",
"X c #1C1C1C",
"o c #242424",
"O c gray17",
"+ c #353535",
"@ c #3C3C3C",
"# c #444444",
"$ c #4C4C4C",
"% c #545454",
"& c #5B5B5B",
"* c #636363",
"= c #6C6C6C",
"- c #747474",
"; c #7C7C7C",
": c #848484",
"> c #8C8C8C",
", c #939393",
"< c #9C9C9C",
"1 c #A4A4A4",
"2 c #ACACAC",
"3 c #B4B4B4",
"4 c #BCBCBC",
"5 c #C4C4C4",
"6 c #CCCCCC",
"7 c #D3D3D3",
"8 c #DCDCDC",
"9 c #E4E4E4",
"0 c #E7E7E8",
"q c #ECECEC",
"w c #F0EFF0",
"e c #F5F5F5",
"r c #F7F7F8",
"t c #F8F7F8",
"y c #FAFAFA",
/* pixels */
" oo#&##&&-*%&*<,&*=*=:-$---=%%,:&:,-::;-=&***;,:$&%*%@oXXX..",
".O#=&%&=;-:,<;<1>:,21<,>2<1<1<1,:21:1,1,:>2,;>><-;;>,:=+@#o.",
"X$--;,,,1,121342446531313454742215661355545444311341<<:$%@Oo",
"o&*;,1125645678677676787877657877777560007657965673361>>*@+X",
"O$*,>1364880008w00900800w0ee6998q09800qqwwe888wqq888641,&$@X",
"#$><4676800eeyyyeweyw0eyeqeyyye9eeeqqeweeewqwee0qq0q622,;&$o",
"+&;25808wqyeeeyyeeyeeyyeeqeyyyweyqeyyeeeyyweyeweeeew9412<%&O",
"@*:;4788eeyeeeyyyyyeyyyyteeyyyeqeyeweyeweeeyyq0yweye0632:=&@",
"+=,,669wryyyyyyyyyyyyyyytwyeyeeeeyyeeeyewyyyyeeyeyyeq983,;#@",
"O$<2589qrryyyyyyewyyyyeyeyyyeyyeyyyweyyyrweweyyyeyyyyq721<&o",
"@*,368qeyyyyeyyyweyewwqytyyyyyyeeryeyeyyeweyyyyyeyyyyq8411*X",
"&->290eyyyyyeeyywyyywweeeyyyyyyyywryyeyyyyeweywyeyyewwe53,&O",
"#=>570ewyyeyryeyyyyywyyeyyyyeeeyyewryyyyyyeeyqyyyyyee0e62-&#",
"$-4757weyyyyyyreyyyyeyeyyyyyywweyyyyyyyyyyyyewyyyyyeeeq43-=#",
"$*258wyyyyeeweqwyyyyyyyyyyyyeweyyyyyyyyyrweyyyyeyyyeqw763,*#",
"+*<680eyeeyweyeyyyeyyyyyyyeeyeeeyyyyyyyyyeqeyeyyyeee0w877,%+",
"#*>588wyyyyeyyyyeeweyyreeyyeeeyeyyyyyyyyryyryyeeyyqeye857<=+",
"@=>48qyeyeeyyyyyyywqeyyyyeeeyyyeyyeeeeyeeeyyyywetyyyyw994<&o",
"+=<4q0wyrweyyyyyyyyy9qqyyywyyyyyyyeeweeeyyyeeeyyttyeeq9661=o",
"$=<60q8eyyyyyyyyyyeewyywyeyyeyweyyyreryyyyeeyyyyqeyete9742*+",
"%>;6qeeyyyyrwyeeyyywwyywyryyeyeyryyeyyyyyyeyyeertyytye941-$o",
"$>,40wyyeeeeyyyyyyyyqyeeyyyyyyyyeqyyeeeyyeyyyewetyeew9956;#@",
"+><46qywerereeyyyyyyeewyyyyyyyyye0eyeyyyyyyeywqyeteyyq874--@",
"%-,48eweeeyyeyyyyyyywqyyyyyyyyyyyewyyyyyyyyyyeyyeteyewq81;-#",
"-:168qeyyeyyyyeeyyyyyweyyyyyyyyyyyyyyyeyyyyyyeyytyeee9873>*+",
"%>248qyyyeyyyewwyeyewyyeyyyyyyeyyyyyeytyeeyyyyyyyyyew09651#X",
"+=5780eeyyyyyeeeyeeewyyyyyeyyeeyyyreeyyeeryyeyyyyyye999634%O",
"@=498qwyyyyyeyyyyyeyyyyyyewyyyeeyeeeyye0eyyyyeyyyyyeee983>&@",
"%;359wwyyyeeyyyeyyyyeyyeeeyyyeeyyyyyyyyeyyyyyyyyeeyyye071-=@",
"%;160qeyyyyyyyyyeyyyyyyeyyyyyyeryyyeyyyyeyyyyyyyyyyyeqq82>*+",
"#=49qyyyyyeeyyyyyyyyyyyyyeqyyyeeeeyyyyyeeyyyyyyyyyyyy0653:%O",
"%-367qqyyyyyyyyyyyeyyyyyreqyyyweeyyyyyyeeyyyyyyyyyyyyq755<$O",
"$;268qwyyeyyyeeyyyeeyyyyyewyyyyeeeyyyeyeyyyyyyeeyyyyyew71,&o",
"#;<39wwyyyyyyeyyewweeyyyeyyyyyyyeeyyyyyyyyyeyyyyyeeeeq062>*@",
"%;4469wyyeyyeyyyre0eeyyeeyyyyyyyeeytyyyryyyyqeyyyyeee0861>-O",
"*,477qeyewyyyyyyyywyyyeyyyyyyyyyyyqeyyyeyeyyyyrreyeew0742<:+",
"#=647qwyeeeyyyeewyqqyyyyyyeyyyyyyyeeeyyeyeryyyywyyyyq09651*O",
"@;369qeyyyyyywweyyw0eyyyyyyyyyyyyyeyyqqywryyyyewyyeyeq986,*$",
"#=28qqeyeyyyyeweyyyyyyeyyyyyyyyeyyyeyeeyeereyyyyeyeyeq982>=+",
"#-<3q9weeyyyyeyyyyyyyyyyyyeyyyyyyyyeyyeeeeeeyyyyyyyyyw971,%O",
"&,,468eeyyyyyyyyyyyyyywyyweyyeyyyyeeweeryryyyyyyyyyeww072<=@",
"+-33680qeyyeyyyyeyyyeeqeeweyyyyyyrrweyyyewyyyyyyyyyywe073>%O",
"%=15890qweyyyyyyeyyyyyyweeeeyeeywerrwqeywwyyyyeyyyyewe864;&o",
"%=<660eeyeeyyeyyyeeeeyyeeeyyyyyyyyyyewwywyeeyyyyeyyeww851*%O",
"%;1167eyeeeeeeqyeyyeyy0qeeyeyyeeyyyeeyeeyyyyeyyyeyyyy0863,%@",
"@-336qyyeeeyeyqyyyyyyeyyeyeeeyyeeyyyyyeyyyyyyyyyeeyeqe943;*+",
"O=279qyyyyyyyyyyyyyyyyyyeyyeeyyeyyyyyyyyyyeyyyeyyyyyeww72==#",
"#-<380eeeeyyyyyyyeyyeyyyyyyyyyeyyeryyyyyyyyyytyyyyyy9q944<=+",
"#;<250eqweyyyyyyyyyyyyyyyyeeyyeyyeeyyeyyyyyyyyyyyyyw08842<%X",
"@;;1780w0eteyyyyyeeyyyyyeyyyyyweywyyyyyeeeyywyyeyyeeew04,;#@",
"$=<5898yeeyeeyyyyyyyyyyyywyyyyyeyyyeyyyreyyyyreyyeewew853>#@",
"$>33590wyeyywyeeyyyyyyyyyyeweeyqeyyyyeyyeyyyyeyyyyeqq9773>%O",
"$-><4660eeeeeyyyyeeyyyywqyewwwyyeeyeyeyeeyyyeeeyy000w955<,%O",
"#%:24669w80e000eyeweeyy0qqweyyeeeweyyyyyyyeyeeqye0e9095,:;%o",
"$%=2255709q9qw0eyw00q0099we0ewqqwwwwweeeq0w0eeqq8078763<=&#o",
"@@=<<<3677990w780w089988789909987990w0087899088668663321;$o.",
"X@=;--,3245747547785455844566645786666667943686552161:-:-*#X",
"XO%-=*:,-321131<,213<,43623<>221323542<372,<;<321:>,-*=-#$+.",
"oOO$@%=$*>::;>;,-;-,;:,,11,-*<>>;;<<:-->:>;,-:;---*=**&%@X..",
" XX+o@%@@%&=%$*=#$&=##&*;=&&$$%*=$&#*#$%&&@$#%$&$$#&%++XXo ."
};
