/* XPM */
static char *eWVsbG93X3JpZ2h0Lg__[] = {
/* columns rows colors chars-per-pixel */
"30 30 220 2 ",
"   c #020301",
".  c #0B0100",
"X  c #020B01",
"o  c #0A0A00",
"O  c #02010B",
"+  c #0A000B",
"@  c #05080F",
"#  c #130100",
"$  c #1B0200",
"%  c #130B02",
"&  c #1B0B03",
"*  c #11070D",
"=  c #071206",
"-  c #131204",
";  c #11170B",
":  c #020112",
">  c #0D0B14",
",  c #03001B",
"<  c #060616",
"1  c #140815",
"2  c #1A1116",
"3  c #240400",
"4  c #290A00",
"5  c #260603",
"6  c #261800",
"7  c #351700",
"8  c #271918",
"9  c #2E2400",
"0  c #3B2200",
"q  c #090326",
"w  c #1F3532",
"e  c #282C2F",
"r  c #28233A",
"t  c #451D00",
"y  c #4C2D00",
"u  c #472C01",
"i  c #533C01",
"p  c #5B3F02",
"a  c #523201",
"s  c #48330D",
"d  c #613E08",
"f  c #554502",
"g  c #5C4300",
"h  c #5C4D02",
"j  c #5A4A16",
"k  c #644300",
"l  c #644D01",
"z  c #6C4F00",
"x  c #755904",
"c  c #604A10",
"v  c #7B5B10",
"b  c #5D4B23",
"n  c #6E5633",
"m  c #726136",
"M  c #7B672A",
"N  c #102540",
"B  c #2F334F",
"V  c #2F3360",
"C  c #35455C",
"Z  c #344767",
"A  c #5F5A54",
"S  c #6F656D",
"D  c #80581B",
"F  c #8A6600",
"G  c #896F24",
"H  c #89762C",
"J  c #80633B",
"K  c #977730",
"L  c #98794D",
"P  c #738378",
"I  c #9E8F18",
"U  c #B59117",
"Y  c #99883C",
"T  c #94842D",
"R  c #B99329",
"E  c #A7852B",
"W  c #C09515",
"Q  c #FEAB0D",
"!  c #E8BB0F",
"~  c #FDB40C",
"^  c #FDBD0E",
"/  c #F6B708",
"(  c #FAAF15",
")  c #EEBB1A",
"_  c #EAB917",
"`  c #FEB313",
"'  c #F3BC15",
"]  c #FEBC15",
"[  c #FFB61D",
"{  c #F4BB1C",
"}  c #FEBB1C",
"|  c #F5B517",
" . c #C1A225",
".. c #D4A827",
"X. c #DAAF35",
"o. c #D9BA38",
"O. c #CDBC28",
"+. c #F5AC21",
"@. c #E4BD2A",
"#. c #E8B826",
"$. c #F3B721",
"%. c #FFB625",
"&. c #F4BB23",
"*. c #FDBB24",
"=. c #F3B32B",
"-. c #FAB42C",
";. c #F3BD2C",
":. c #FEBC2C",
">. c #E8B937",
",. c #FFB533",
"<. c #F3BC33",
"1. c #FDBD34",
"2. c #F3BB3C",
"3. c #F2B634",
"4. c #E9AD3D",
"5. c #F5C30D",
"6. c #FAC10C",
"7. c #F4C305",
"8. c #EBC31A",
"9. c #F5C215",
"0. c #FAC013",
"q. c #F4C21A",
"w. c #FCC31B",
"e. c #FEC91C",
"r. c #D8C23D",
"t. c #DDC42A",
"y. c #EDC225",
"u. c #EBC42C",
"i. c #F4C323",
"p. c #FDC325",
"a. c #F5C32C",
"s. c #FBC52A",
"d. c #F5CC27",
"f. c #FFD028",
"g. c #EBC432",
"h. c #E6C23B",
"j. c #EBC23C",
"k. c #E6CD3C",
"l. c #F3C533",
"z. c #FCC33D",
"x. c #F9C63A",
"c. c #F7D43E",
"v. c #9B8941",
"b. c #BB994F",
"n. c #949C75",
"m. c #B29D68",
"M. c #C79E46",
"N. c #DABB43",
"B. c #CDA156",
"V. c #D5B75C",
"C. c #D9A955",
"Z. c #E3B34B",
"A. c #E7BE45",
"S. c #F3BC45",
"D. c #F8B449",
"F. c #E2B958",
"G. c #D9AA66",
"H. c #F3BA60",
"J. c #D8C658",
"K. c #E3C147",
"L. c #E7C749",
"P. c #F4C74E",
"I. c #FCC349",
"U. c #F3C84B",
"Y. c #F7C645",
"T. c #F8D24C",
"R. c #E3C451",
"E. c #E8C95B",
"W. c #FAC25C",
"Q. c #F6C356",
"!. c #F8D15A",
"~. c #ECDC55",
"^. c #EACC66",
"/. c #E8C664",
"(. c #FBC56F",
"). c #E7D364",
"_. c #E8DA6F",
"`. c #F8D266",
"'. c #FAD879",
"]. c #E6DD74",
"[. c #FEE575",
"{. c #5D6896",
"}. c #A4958E",
"|. c #8F9FB9",
" X c #A3A2B4",
".X c #CDB786",
"XX c #DFD49C",
"oX c #D1C693",
"OX c #E4CF8E",
"+X c #ECD88D",
"@X c #F9DC87",
"#X c #FFEE89",
"$X c #FFEC9C",
"%X c #FBE697",
"&X c #FEF297",
"*X c #ECDFBC",
"=X c #E9D3A4",
"-X c #FFE9A8",
";X c #FFFBAD",
":X c #FBF0A1",
">X c #FFEFBF",
",X c #FFFDB3",
"<X c #FFFABD",
"1X c #FFF6B8",
"2X c #B4B8DB",
"3X c #B9C2E3",
"4X c #E7D6C4",
"5X c #FFFAC8",
"6X c #EAE1D2",
"7X c #F9EDD7",
"8X c #FFF9D1",
"9X c #FFF4DD",
"0X c #F8FED8",
"qX c #FEFDE4",
"wX c #FFFFEA",
"eX c #E4F4FF",
"rX c #FFFEF3",
"tX c #F3FCFF",
"yX c #FEFCFE",
"uX c #FBF8F2",
/* pixels */
"# & . > < O X X X X X .   X X - o #     X   O O   + .   X X ",
"# . 2 O O O   X   . & a M v.Y T H H j % . o   + O   *       ",
"  o O O O   . # 4 D C.W.I.z.z.I.!.K.r.N.x # # . > O   X     ",
"    O O : & # d G.H.I.-.( } p.} <._ q.y.!.V.i .   O X X @ O ",
"X   , , * # l F.>.2.:.*.` ~ ~ ` } p.^ ] +.D.Z.k . ; X   O O ",
"X X : + # p R.c.&.' | ] 0.w.} w.{ ' ` Q *.z.3.`.h   X X   @ ",
"X   > . 0 E.g.! q.9.w.w.5.' $.&.{ p.:.z.[ Q *.#.o.6 X ; O O ",
"X     # E T.! ' 9.p.i.&.8.a.l.a.9.f.%.+.%.*.$.a.T.I o   @ O ",
"X X . k A.) e.^ } 1.D.2.#.;.l.i.5.7.9.) ;.2.>.>.t.K.f . < , ",
"    # K Y.} ^ ] -.4.H.%X&X[.K.@.5./ 8.@.`.@X,X@XJ.).v.# * , ",
"    4 B.I.*./ w.x.'.8X7XqX5X:XR.{ / a.L.1XqXuXuX8XoXm.7 # + ",
"O . 7 F.1.*./ p.X.,X9XyX Xe n.+X=.&.#.#X9XyX2XB S 4X=X6 # # ",
", . y Z.&.] } ;.).;XwXeXZ N w oXD.,.S.%XrXtX{.V r }..Xj 3 # ",
": . g >.p.} *.;.o.&X0XtX|.C P XXD.,.S.#XqXtX3XB A *XOXi # . ",
"    h j.:.*.} *.@.[.5X7XyX6X<X).-.| x.L.,XqXuXqX;X].V.h # . ",
"X   f Y.*.} ( s.&.@.'.-X>X-XR.g.:.w.! t.).$X<X&X~.O.E.f . . ",
"    g U.$.} ] ] q.i.<.2.S.2.i.{ &.} ] } <.K.A.g.q.8.L.l . O ",
"O . g P.{ ] 0.] ' 9.} { } } ^ ^ q.*.} ] &.*.{ 9.6.' P.g .   ",
"O   p U.{ 0.] ] ] 9.] [ } ] ] 6.0.] } [ } } 6.6.0.$.Q.k .   ",
"O . g U.{ ] } } } ] ] ] ] ] ] ] 0.] [ %.} ] 6.6.] -.Q.k .   ",
": . k P.[ } *.%.} } ] ] } } } { } } [ [ *.} ] ] } -.W.k .   ",
": . g U.$.} *.%.%.} ` ] } *.*.;.{ } } ` [ } ] } [ -.H.k .   ",
"O . g U.&.} %.%.} } ~ ] } } i.&.9.] [ [ } ] ] ] } ,.W.k #   ",
"  . g L.&.*.*.*.} ] ^ ] } *.a.y.q.0.] ] ] ] ] ] *.-.Q.k #   ",
"o . l T.#.s.a.s.' e.] ] p.a.u.u.d.9./ ^ ] q.s.s.{ ;.P.z . X ",
"  o f L.@.g.X.U ..x.q.) a.j. .U K.u.f.q.l.>.U ..x.;.N.k -   ",
"q   h r.k.K.d 5 t M.Y.y.j.F $ $ v /.@.@.A.x 5 7 R E.'.f . O ",
"q O 9 _.J.a 3 # $ a ^.R.R 4 $ # & K /.'.G # $ # y b.+Xs   O ",
": 2 . m b . # % . # u L 3 $ . & . $ J n # . . & $ s n 6 @ O ",
", O # # . 8       o # $ 5 # .   # # # # . -     + # # .     "
};
