/* XPM */
static char *eWVsbG93X2xlZnQ_[] = {
/* columns rows colors chars-per-pixel */
"30 30 121 2 ",
"   c #000000",
".  c #0C0904",
"X  c #120F05",
"o  c #141107",
"O  c #16140B",
"+  c #1A160B",
"@  c #2C230A",
"#  c #31270A",
"$  c #392D0C",
"%  c #3B2F11",
"&  c #42330E",
"*  c #4C3C0F",
"=  c #463915",
"-  c #4C3C12",
";  c #453C1C",
":  c #503E14",
">  c #54410F",
",  c #4A401E",
"<  c #544214",
"1  c #594612",
"2  c #5C4913",
"3  c #574418",
"4  c #594619",
"5  c #5D4B1A",
"6  c #614C16",
"7  c #6E5410",
"8  c #765C13",
"9  c #725918",
"0  c #736124",
"q  c #746128",
"w  c #7A6729",
"e  c #846515",
"r  c #876816",
"t  c #8B6B14",
"y  c #987619",
"u  c #9E7B18",
"i  c #927826",
"p  c #967D2A",
"a  c #A48019",
"s  c #B48716",
"d  c #B88A14",
"f  c #B3881C",
"g  c #BA8C18",
"h  c #BD9116",
"j  c #A5882D",
"k  c #CF9E1C",
"l  c #D29F16",
"z  c #D5A118",
"x  c #D9A71B",
"c  c #DCAA1F",
"v  c #FDBD0E",
"b  c #E4AD1A",
"n  c #EEB216",
"m  c #E5B11C",
"M  c #ECB41D",
"N  c #F3B716",
"B  c #FDBC16",
"V  c #F1B71A",
"C  c #F6B91B",
"Z  c #FABD1B",
"A  c #C29B27",
"S  c #C59B29",
"D  c #C8A22F",
"F  c #E3B123",
"G  c #EDB623",
"H  c #F4BD23",
"J  c #FBBF23",
"K  c #FFC014",
"L  c #FEC11B",
"P  c #FAC124",
"I  c #F6C22C",
"U  c #F7C83D",
"Y  c #F8C83E",
"T  c #F9C943",
"R  c #F7CD55",
"E  c #F8CD52",
"W  c #F7D25B",
"Q  c #F9D05B",
"!  c #F8D56E",
"~  c #F8D677",
"^  c #F8D679",
"/  c #013884",
"(  c #083C89",
")  c #1A4B8E",
"_  c #2A5593",
"`  c #325B95",
"'  c #3C6399",
"]  c #486EA4",
"[  c #4A71A3",
"{  c #6684AE",
"}  c #6788B0",
"|  c #8DA2BF",
" . c #A4AAA3",
".. c #CDC292",
"X. c #D5CD9F",
"o. c #E9D283",
"O. c #FBE49F",
"+. c #D4CCA0",
"@. c #FAE5A2",
"#. c #F9E6A9",
"$. c #FAE8AE",
"%. c #FAEAB3",
"&. c #FAEAB9",
"*. c #ADBED1",
"=. c #EEE8C7",
"-. c #FAEFC5",
";. c #FAEFC8",
":. c #FAF0CB",
">. c #E7E9DB",
",. c #E9EADB",
"<. c #FAF6DF",
"1. c #E0E6ED",
"2. c #E2E9EF",
"3. c #FCF9EE",
"4. c #E3EBF1",
"5. c #EEF2F3",
"6. c #F9FAFB",
"7. c #FBFCFA",
"8. c #FDFEFB",
"9. c #FAFDFD",
"0. c #FDFFFF",
/* pixels */
"                            .                               ",
"                    O , w p j j i 0 ; +                     ",
"                + 0 D H L L Z L B P H D q +                 ",
"              = A Z K B B B B B B B B B P S =               ",
"            5 m B B B B B B B B B B B B B K F 5             ",
"          3 F K B B B B B B B B B B B B B B K M 4           ",
"        # x K B B B B B B B B B B B B B B B B B c $         ",
"      . a K B B B B B B B B B B B B B B B B B B K j .       ",
"      - V B Z P Z B B B B B B B B J Z B B B Z B B C -       ",
"      u K Q $.-.#.R B B B B B Y O.-.%.! K B B B B B y       ",
"    + z W ,.4.9.0.<.R B B v U =.2.6.0.3.~ B B B B B k O     ",
"    $ G X.[ ` *.0.8.#.Z v B o.} _ | 6.0.:.I B B B B m #     ",
"    * I  .( / { 7.9.-.P v L ..) / ' 5.8.3.T B B B B C &     ",
"    > J +.] ` *.8.9.#.K B B o.{ _ | 6.0.;.J B B B B H -     ",
"    > B Q >.2.9.0.<.E B B B U =.1.6.0.3.^ Z B B B B C :     ",
"    1 N B Q %.:.$.R B B B B B T @.;.&.~ C B B B B B J :     ",
"    2 B K B L P Z B B B B B B B B J J N B B B B B B J :     ",
"    2 B B B B B B B B B B B B B B B B B B B B B B B J :     ",
"    2 N B B N B B B B B B B B B B B B B B B B B B B C 4     ",
"    2 B B B B B B Z B B B B B B B B B B B B B B B B J 4     ",
"    > B B B B B B B B B B B B B B B B B B B B B B B C 4     ",
"    1 B B B B B B Z B B B B B B B B B B B B B B B B J 4     ",
"    1 B B B B B B B B B B B B B Z B B B B B B B B B Z 4     ",
"    2 B B B B B B B B B B B B B B B B B Z B B B B B Z 4     ",
"    6 B B B B K B B B B B B K K B B B B B B K B B B Z 4     ",
"    5 B B B z s n B B B B N d g V B B B B z s n B B Z 3     ",
"    4 N K h @ . 7 N B K C 8 . . e B B B k #   < b K C :     ",
"    = L l @     . t B v y .     X f B b *       < m V %     ",
"    o 8 $         . 7 8 o         @ r *           - 9 .     ",
"                                                            "
};
